<svg xmlns="http://www.w3.org/2000/svg" width="24" height="24" viewBox="0 0 24 24"><defs><style>.a{fill:#4c4c4e;}</style></defs><g transform="translate(-64 -64)"><path class="a" d="M137.5,400a1.5,1.5,0,1,0,1.5,1.5A1.5,1.5,0,0,0,137.5,400Z" transform="translate(-67.5 -315)"/><path class="a" d="M362,400a1.5,1.5,0,1,0,1.5,1.5A1.5,1.5,0,0,0,362,400Z" transform="translate(-277.969 -315)"/><path class="a" d="M88,68,67.7,65.978a2.187,2.187,0,0,0-.74-1.292A4.715,4.715,0,0,0,64,64v1a4.029,4.029,0,0,1,2.332.465,1.52,1.52,0,0,1,.448,1h0l2.628,14.6a4.491,4.491,0,0,0,.831,2.062A2.148,2.148,0,0,0,72,84H87V83H72c-.3,0-1.2.008-1.609-2.11l-.339-1.885L87,76Z"/></g></svg>