<svg width="19" height="20" viewBox="0 0 19 20" fill="none" xmlns="http://www.w3.org/2000/svg">
<g clip-path="url(#clip0_1_559)">
<path d="M15.864 2.66327C14.1674 0.945836 11.9117 0 9.50516 0C4.54482 0.0033452 0.506397 4.09445 0.502812 9.11893L0.5 10.6628L1.68518 9.84505C2.49137 9.2889 3.42509 8.99495 4.38588 8.99495C4.67263 8.99495 4.96219 9.02149 5.24634 9.07395C6.1421 9.23908 6.94513 9.64968 7.59533 10.2667C7.74437 9.93431 7.91969 9.61125 8.1268 9.30328C8.21154 9.17785 8.30076 9.05559 8.39429 8.93673C7.57516 8.23637 6.59117 7.76498 5.51721 7.56698C5.14329 7.49811 4.76403 7.46335 4.38398 7.46313C3.6073 7.46222 2.83734 7.60877 2.11401 7.89516C2.70171 4.24947 5.82934 1.53431 9.51163 1.5316C11.5076 1.5316 13.3836 2.31829 14.7946 3.74634C15.9201 4.88584 16.6402 6.31096 16.8887 7.88278C16.1625 7.59559 15.3975 7.44861 14.6107 7.44548L14.5005 7.44498C14.4208 7.44611 14.3411 7.44874 14.2614 7.45288C14.124 7.46 13.9874 7.4726 13.8522 7.48847C13.8118 7.49295 13.7721 7.49936 13.7322 7.50491C13.6353 7.51815 13.5389 7.53303 13.4433 7.55039C13.4009 7.55822 13.3588 7.56683 13.3168 7.57537C13.2199 7.59533 13.1235 7.61756 13.0276 7.64207C12.993 7.65103 12.9585 7.65936 12.9242 7.66868C12.8039 7.7016 12.6846 7.73811 12.5664 7.77815C12.5594 7.78064 12.5521 7.78263 12.5451 7.78498C12.2788 7.87715 12.0191 7.98771 11.7677 8.11587C11.7609 8.11943 11.7542 8.12306 11.7472 8.12662C11.63 8.18692 11.5149 8.25103 11.4018 8.31886L11.3739 8.3358C10.7774 8.69797 10.247 9.16153 9.80604 9.70612C9.78762 9.72875 9.76921 9.75132 9.75093 9.77431C9.65419 9.89708 9.55985 10.0227 9.47142 10.1541C9.38012 10.291 9.29401 10.4314 9.21328 10.5749C9.15163 10.6832 9.09311 10.7933 9.03781 10.9051C9.03471 10.9115 9.03155 10.9175 9.02846 10.9239C8.90178 11.1835 8.79286 11.4515 8.70248 11.7262L8.70234 11.7268V11.7271C8.48087 12.3994 8.37368 13.1049 8.38536 13.8135C8.38571 13.8417 8.38571 13.87 8.38669 13.8983C8.38817 13.9536 8.39091 14.0091 8.39401 14.0647C8.39903 14.1558 8.4058 14.2468 8.41432 14.3376C8.41981 14.3948 8.42655 14.4519 8.43365 14.5091C8.43808 14.5456 8.44202 14.5821 8.44736 14.6183C8.46066 14.7138 8.47608 14.8089 8.49362 14.9037C8.79865 16.5363 9.70706 17.9597 11.0518 18.912L11.2238 19.0233L11.2252 19.0199C11.9943 19.5249 12.864 19.8518 13.7723 19.9772L13.895 19.994L14.8071 18.512L14.4792 18.5029C11.9556 18.4328 9.9027 16.2963 9.9027 13.7401C9.9027 11.2243 11.8447 9.13502 14.3229 8.98363L14.4796 8.97758C15.4843 8.95182 16.4742 9.25224 17.3145 9.83146L18.4942 10.6443L18.4967 9.1084C18.4986 6.67288 17.5637 4.38391 15.864 2.66327Z" fill="white"/>
</g>
<defs>
<clipPath id="clip0_1_559">
<rect width="18" height="20" fill="white" transform="translate(0.5)"/>
</clipPath>
</defs>
</svg>
