<svg width="40" height="41" viewBox="0 0 40 41" fill="none" xmlns="http://www.w3.org/2000/svg">
<path fill-rule="evenodd" clip-rule="evenodd" d="M20.001 40.6328C31.0467 40.6328 40.001 31.6785 40.001 20.6328C40.001 9.58712 31.0467 0.632812 20.001 0.632812C8.95528 0.632812 0.000976562 9.58712 0.000976562 20.6328C0.000976562 31.6785 8.95528 40.6328 20.001 40.6328ZM20.0092 7.63287C23.2185 7.63287 26.2266 8.87875 28.4893 11.1409C30.7558 13.4073 32.0026 16.4223 32.0001 19.6303L31.9968 21.6535L30.4235 20.5827C29.3029 19.8198 27.9829 19.4241 26.6431 19.458L26.434 19.466C23.1291 19.6654 20.5393 22.4173 20.5393 25.7312C20.5393 29.0981 23.277 31.9123 26.6425 32.0047L27.0798 32.0166L25.8635 33.9686L25.6997 33.9466C24.4902 33.7824 23.3218 33.3479 22.303 32.6855L22.3011 32.6901L22.0717 32.5435C20.2785 31.2892 19.067 29.4142 18.6602 27.2638C18.6365 27.1386 18.6164 27.0134 18.5985 26.8879C18.5933 26.8529 18.5891 26.8177 18.5849 26.7824C18.5834 26.7696 18.5819 26.7569 18.5803 26.7441C18.5708 26.6687 18.5618 26.5935 18.5545 26.5181C18.5482 26.4562 18.5432 26.3944 18.5387 26.3327C18.5344 26.2748 18.5306 26.217 18.5274 26.1587C18.5233 26.0855 18.5196 26.0124 18.5176 25.9395C18.5166 25.9108 18.5164 25.8821 18.5161 25.8535C18.5161 25.8449 18.516 25.8363 18.5159 25.8277C18.5008 24.8901 18.6438 23.9634 18.9386 23.0797V23.0793L18.9387 23.0785C19.0591 22.7182 19.2034 22.3651 19.3735 22.0217L19.3859 21.9969C19.4592 21.8502 19.5378 21.7051 19.62 21.562C19.6399 21.5271 19.6602 21.492 19.6806 21.4573C19.7709 21.3053 19.8639 21.155 19.9642 21.0077C20.0822 20.8346 20.2079 20.6692 20.337 20.5075C20.3614 20.4772 20.3859 20.4475 20.4105 20.4176C21.0057 19.6927 21.7119 19.0859 22.5013 18.6127L22.5386 18.5904C22.6895 18.5012 22.8427 18.4164 22.9991 18.3372C23.0049 18.3342 23.0107 18.3312 23.0164 18.3283C23.0198 18.3265 23.0231 18.3247 23.0265 18.323C23.3607 18.1549 23.7064 18.0089 24.0631 17.8872C24.0725 17.8841 24.0823 17.8814 24.0916 17.8782C24.2487 17.8256 24.408 17.7775 24.5688 17.734C24.5982 17.7261 24.6276 17.7187 24.6572 17.7113C24.6736 17.7072 24.6901 17.7031 24.7066 17.6989C24.834 17.6668 24.9626 17.6374 25.0924 17.6111C25.1483 17.5998 25.2046 17.5884 25.2611 17.5781C25.3884 17.5552 25.5171 17.5357 25.6463 17.5183C25.6621 17.5161 25.6779 17.5138 25.6936 17.5115C25.731 17.5061 25.7684 17.5007 25.8063 17.4966C25.9867 17.4757 26.1687 17.4591 26.352 17.4497C26.4566 17.4437 26.5633 17.4414 26.6708 17.4393L26.8179 17.4399C27.8671 17.4441 28.8873 17.6377 29.8557 18.016C29.5244 15.9456 28.5641 14.0685 27.063 12.5675C25.1814 10.6865 22.6796 9.65025 20.0179 9.65025C15.1072 9.65387 10.9363 13.2302 10.1525 18.0323C11.1205 17.6546 12.1366 17.4632 13.1797 17.4632C13.6832 17.4632 14.1916 17.5092 14.6909 17.5999C16.1232 17.8608 17.4354 18.4816 18.5278 19.4042C18.404 19.5604 18.2843 19.7206 18.171 19.887C17.8949 20.2927 17.661 20.7182 17.4623 21.156C16.5952 20.3433 15.5243 19.8025 14.3297 19.5849C13.9508 19.5158 13.5646 19.4809 13.1822 19.4809C11.901 19.4809 10.6558 19.8681 9.5806 20.6007L8.00011 21.6778L8.00386 19.6442C8.00868 13.026 13.3942 7.63729 20.0092 7.63287Z" fill="white"/>
</svg>
