<svg xmlns="http://www.w3.org/2000/svg" width="21" height="21" viewBox="0 0 21 21"><defs><style>.a{fill:#fff;}.b{fill:#e54a7e;}</style></defs><circle class="a" cx="10.5" cy="10.5" r="10.5"/><path class="b" d="M14.585,7.05A8.549,8.549,0,0,0,6,15.52v.038l1.45.839h.038a4.288,4.288,0,0,1,3.129-.649,4.226,4.226,0,0,1,2.06,1.03l.267.229L13.1,16.7c.153-.305.305-.572.458-.839.076-.114.153-.191.229-.305l.153-.191-.191-.153a6.246,6.246,0,0,0-2.785-1.3,5.721,5.721,0,0,0-2.9.153,6.713,6.713,0,0,1,11.255-3.2,6.265,6.265,0,0,1,1.793,3.2,5.675,5.675,0,0,0-1.793-.267H19.2c-.229,0-.458.038-.725.038h-.038c-.076,0-.191.038-.267.038-.153.038-.267.038-.42.076l-.114.038-.343.114h-.038a6.362,6.362,0,0,0-.763.305h0a1.546,1.546,0,0,0-.343.191h-.038a5.522,5.522,0,0,0-1.526,1.3l-.038.076a3.7,3.7,0,0,1-.267.343,2.13,2.13,0,0,0-.191.305l-.038.076a2.25,2.25,0,0,0-.153.305v.038a4.547,4.547,0,0,0-.305.763v.038a6.492,6.492,0,0,0-.305,1.946v.725c0,.076.038.191.038.267a6.085,6.085,0,0,0,1.259,2.594l.038.038.038-.038a4.9,4.9,0,0,0,.954-1.831h0a3.946,3.946,0,0,1-.458-1.831,4.06,4.06,0,0,1,3.854-4.044h.153a4.11,4.11,0,0,1,2.48.725h.038l1.45-.839h0V15.52a8.31,8.31,0,0,0-2.518-5.99,8.452,8.452,0,0,0-6.028-2.48" transform="translate(-3.859 -4.534)"/></svg>