<svg xmlns="http://www.w3.org/2000/svg" width="1798.746" height="1006.241" viewBox="0 0 1798.746 1006.241">
  <g id="Group_566" data-name="Group 566" transform="translate(9.421 -1077.589)">
    <path id="element1" d="M120.311,221.878a127.727,127.727,0,0,1,91.34-38.078,143.907,143.907,0,0,1,17.52,1.168c63.541,8.643,111.2,63.541,111.2,127.783v2.1c-1.168,69.848-59.1,126.615-128.951,126.615a128.679,128.679,0,0,1-91.107-219.59ZM103.958,327.234c.234,1.635.7,3.037.934,4.672a70.317,70.317,0,0,0,2.1,9.578,48.926,48.926,0,0,0,1.869,5.373c.934,2.8,1.869,5.607,3.037,8.41a38.016,38.016,0,0,0,2.57,5.373c.934,1.869,1.869,3.738,2.8,5.373,3.037.234,6.541.467,10.045.467a107.151,107.151,0,0,0,62.139-20.09,128.155,128.155,0,0,1-69.615-91.574,108.7,108.7,0,0,0-16.82,57.7A75.487,75.487,0,0,0,103.958,327.234ZM319.343,300.6c-.234-2.8-.467-5.84-.934-8.643a88.993,88.993,0,0,0-3.037-10.512c-.934-2.8-1.4-5.607-2.336-8.176-1.4-3.271-3.037-6.541-4.672-9.578a74.358,74.358,0,0,0-3.738-7.475c-1.869-3.037-4.2-5.84-6.307-8.643-1.635-2.1-3.037-4.672-4.906-6.541a82.9,82.9,0,0,0-7.943-7.709c-1.869-1.869-3.738-3.738-5.84-5.607-3.037-2.336-6.307-4.439-9.578-6.541a59.179,59.179,0,0,0-6.307-4.2c-3.738-2.1-7.943-3.5-11.914-5.139-1.869-.7-3.5-1.635-5.373-2.336a125.742,125.742,0,0,1,9.578,48.356,127.831,127.831,0,0,1-28.5,80.361,120.452,120.452,0,0,0,18.455,1.635,108.424,108.424,0,0,0,74.287-29.434A69.707,69.707,0,0,0,319.343,300.6Zm-83.4-42.75a107.294,107.294,0,0,0-14.016-53.262,70.749,70.749,0,0,0-7.242-.467h-5.607a94.635,94.635,0,0,0-16.352,1.635c-1.168.234-2.57.467-3.738.7l-2.8.7a108.392,108.392,0,0,0-12.381,3.738,31.19,31.19,0,0,0-4.2,1.635c-.934.467-1.635.7-2.57,1.168a112.778,112.778,0,0,0-13.783,7.475c-1.168.7-2.57,1.635-3.738,2.336a.816.816,0,0,1-.467.234A120.325,120.325,0,0,0,136.9,233.792c.934,43.918,28.266,82.229,69.148,98.348A106.972,106.972,0,0,0,235.946,257.853Zm-24.3,163.758c50.225,0,92.975-35.041,105.123-82.93a127.908,127.908,0,0,1-70.783,21.258,120.158,120.158,0,0,1-34.574-5.139,126.511,126.511,0,0,1-79.426,31.537C152.315,408.3,181.282,421.611,211.651,421.611Z" transform="translate(1448.957 942.011)" fill="rgba(206,206,206,0.31)"/>
    <path id="element2" d="M146.115,130.815a7.111,7.111,0,0,1-.765,3.213c-.153.306-.153.459-.306.612a5.088,5.088,0,0,1-1.836,2.142l-68.7,40.7a4.074,4.074,0,0,1-1.836.459,2.94,2.94,0,0,1-1.836-.612L2.754,135.558a5.088,5.088,0,0,1-1.836-2.142c-.153-.153-.153-.459-.306-.612A7.1,7.1,0,0,1,0,129.591L.612,47.124a7.111,7.111,0,0,1,.765-3.213c.153-.306.153-.459.306-.612a5.087,5.087,0,0,1,1.836-2.142l68.7-40.7A4.074,4.074,0,0,1,74.052,0a2.94,2.94,0,0,1,1.836.612l68.085,41.769a5.089,5.089,0,0,1,1.836,2.142c.153.153.153.459.306.612a7.1,7.1,0,0,1,.612,3.213ZM9.18,119.952,61.659,88.893,9.639,56.916ZM137.547,57.987,85.068,89.046l52.02,31.977Zm-59.67,40.7-.459,63.036L129.9,130.662Zm-9.639,62.883L68.7,98.532,16.218,129.591ZM68.85,79.1l.459-63.036L16.83,47.124Zm9.639-62.883L78.03,79.254,130.509,48.2Z" transform="translate(435.573 1203.411) rotate(135)" fill="rgba(206,206,206,0.31)"/>
    <path id="element2-2" data-name="element2" d="M121.548,446.123a16.828,16.828,0,0,1,1.811-7.6c.362-.724.362-1.086.724-1.448A12.041,12.041,0,0,1,128.428,432l162.577-96.315a9.64,9.64,0,0,1,4.345-1.086,6.959,6.959,0,0,1,4.345,1.448L460.824,434.9a12.041,12.041,0,0,1,4.345,5.069c.362.362.362,1.086.724,1.448a16.792,16.792,0,0,1,1.448,7.6l-1.448,195.165a16.83,16.83,0,0,1-1.81,7.6c-.362.724-.362,1.086-.724,1.448a12.037,12.037,0,0,1-4.345,5.069L296.436,754.621a9.641,9.641,0,0,1-4.345,1.086,6.958,6.958,0,0,1-4.345-1.448l-161.129-98.85a12.044,12.044,0,0,1-4.345-5.069c-.362-.362-.362-1.086-.724-1.448a16.793,16.793,0,0,1-1.448-7.6Zm324.068,25.708-124.2,73.5,123.11,75.676ZM141.825,618.476l124.2-73.5L142.911,469.3Zm141.214-96.315,1.086-149.18-124.2,73.5Zm22.811-148.818-1.086,149.18,124.2-73.5ZM304.4,568.508l-1.086,149.18,124.2-73.5ZM281.591,717.326l1.086-149.18-124.2,73.5Z" transform="translate(-180.385 1356.214) rotate(-9)" fill="rgba(206,206,206,0.31)"/>
    <path id="element2-3" data-name="element2" d="M193.239,173a9.4,9.4,0,0,1-1.012,4.249c-.2.4-.2.607-.4.809a6.729,6.729,0,0,1-2.428,2.833L98.542,234.72a5.388,5.388,0,0,1-2.428.607,3.889,3.889,0,0,1-2.428-.809L3.642,179.277a6.729,6.729,0,0,1-2.428-2.833c-.2-.2-.2-.607-.4-.809A9.384,9.384,0,0,1,0,171.386L.809,62.322a9.4,9.4,0,0,1,1.012-4.249c.2-.4.2-.607.4-.809a6.728,6.728,0,0,1,2.428-2.833L95.506.607A5.388,5.388,0,0,1,97.935,0a3.888,3.888,0,0,1,2.428.809l90.043,55.24a6.73,6.73,0,0,1,2.428,2.833c.2.2.2.607.4.809a9.385,9.385,0,0,1,.809,4.249Zm-181.1-14.366,69.4-41.076-68.8-42.29ZM181.907,76.689l-69.4,41.076,68.8,42.29Zm-78.914,53.823-.607,83.366,69.4-41.076ZM90.246,213.676l.607-83.366-69.4,41.076Zm.809-109.064.607-83.366-69.4,41.076ZM103.8,21.449l-.607,83.366,69.4-41.076Z" transform="translate(1749.779 1888.049) rotate(135)" fill="rgba(206,206,206,0.31)"/>
  </g>
</svg>
