<svg width="40" height="41" viewBox="0 0 40 41" fill="none" xmlns="http://www.w3.org/2000/svg">
<path d="M20.0369 0.782776C9.01315 0.782776 0.0739746 9.87269 0.0739746 21.0866C0.0739746 30.0575 5.79397 37.6683 13.7259 40.3531C14.7236 40.541 15.0898 39.9126 15.0898 39.3764C15.0898 38.8922 15.0713 37.2928 15.0627 35.5961C9.50902 36.8244 8.33711 33.2005 8.33711 33.2005C7.42902 30.8537 6.12059 30.2296 6.12059 30.2296C4.30935 28.9694 6.25711 28.9953 6.25711 28.9953C8.26174 29.1382 9.31728 31.0877 9.31728 31.0877C11.0978 34.1917 13.9874 33.2943 15.1265 32.7755C15.3057 31.4636 15.8231 30.5672 16.394 30.0605C11.9599 29.5471 7.29877 27.8061 7.29877 20.0261C7.29877 17.8094 8.0786 15.9981 9.35563 14.5762C9.14835 14.0644 8.46505 11.9997 9.54902 9.20293C9.54902 9.20293 11.2254 8.65723 15.0403 11.2842C16.6327 10.8343 18.3404 10.6087 20.0369 10.601C21.7335 10.6087 23.4426 10.8343 25.0379 11.2842C28.8482 8.65723 30.5222 9.20293 30.5222 9.20293C31.6088 11.9997 30.9252 14.0644 30.7179 14.5762C31.9979 15.9981 32.7725 17.8094 32.7725 20.0261C32.7725 27.8246 28.1024 29.5417 23.6571 30.0443C24.3731 30.6744 25.0112 31.9101 25.0112 33.8044C25.0112 36.5208 24.988 38.7073 24.988 39.3764C24.988 39.9167 25.3474 40.5498 26.3593 40.3504C34.2869 37.6626 39.9996 30.0544 39.9996 21.0866C39.9996 9.87269 31.0617 0.782776 20.0369 0.782776Z" fill="white"/>
<path d="M7.63498 29.9347C7.59101 30.0359 7.43498 30.0659 7.29283 29.9966C7.14803 29.9304 7.06671 29.7929 7.11365 29.6916C7.15663 29.5878 7.31299 29.5592 7.45746 29.6281C7.60258 29.6947 7.68522 29.8335 7.63498 29.9347Z" fill="white"/>
<path d="M8.44356 30.852C8.34835 30.9418 8.16223 30.9001 8.03595 30.7582C7.90537 30.6166 7.88091 30.4273 7.97744 30.3362C8.07562 30.2465 8.25612 30.2885 8.38703 30.43C8.51761 30.5733 8.54306 30.7612 8.44356 30.852Z" fill="white"/>
<path d="M9.23072 32.0214C9.1084 32.1078 8.9084 32.0267 8.78477 31.8462C8.66245 31.6656 8.66245 31.4491 8.78741 31.3624C8.91138 31.2756 9.1084 31.3536 9.23369 31.5328C9.35568 31.7161 9.35568 31.9329 9.23072 32.0214Z" fill="white"/>
<path d="M10.3089 33.1511C10.1995 33.2738 9.96647 33.2409 9.79589 33.0734C9.62134 32.9097 9.57275 32.6773 9.6825 32.5546C9.79325 32.4316 10.0276 32.4662 10.1995 32.6323C10.3727 32.7957 10.4256 33.0297 10.3089 33.1511Z" fill="white"/>
<path d="M11.7967 33.8071C11.7485 33.9661 11.524 34.0384 11.2979 33.9708C11.0721 33.9012 10.9243 33.7149 10.9699 33.5542C11.0169 33.3942 11.2423 33.3189 11.4701 33.3911C11.6956 33.4604 11.8437 33.6453 11.7967 33.8071Z" fill="white"/>
<path d="M13.4304 33.9288C13.436 34.0962 13.2442 34.2351 13.0069 34.2378C12.7682 34.2435 12.5752 34.108 12.5725 33.9432C12.5725 33.7741 12.7599 33.6366 12.9986 33.6326C13.236 33.6279 13.4304 33.7624 13.4304 33.9288Z" fill="white"/>
<path d="M14.9508 33.6655C14.9792 33.8289 14.8142 33.9967 14.5785 34.0411C14.3468 34.0844 14.1322 33.9836 14.1028 33.8215C14.0741 33.6541 14.242 33.4863 14.4734 33.4429C14.7094 33.4012 14.9207 33.4994 14.9508 33.6655Z" fill="white"/>
</svg>
