<svg width="20" height="20" viewBox="0 0 20 20" fill="none" xmlns="http://www.w3.org/2000/svg">
<g clip-path="url(#clip0_1_555)">
<path d="M10.0205 0C4.46721 0 0 4.58333 0 10.25C0 14.7917 2.86885 18.625 6.84426 19.9792C7.33607 20.0833 7.52049 19.75 7.52049 19.4792C7.52049 19.25 7.5 18.4167 7.5 17.5833C4.71311 18.1875 4.13934 16.3542 4.13934 16.3542C3.68852 15.1667 3.03279 14.8542 3.03279 14.8542C2.13115 14.2292 3.09426 14.2292 3.09426 14.2292C4.09836 14.2917 4.63115 15.2917 4.63115 15.2917C5.53279 16.8542 6.96721 16.4167 7.54098 16.1458C7.62295 15.4792 7.88934 15.0208 8.17623 14.7708C5.96312 14.5417 3.62705 13.6458 3.62705 9.70833C3.62705 8.58333 4.01639 7.66667 4.65164 6.95833C4.54918 6.70833 4.20082 5.64583 4.7541 4.25C4.7541 4.25 5.59426 3.97917 7.5 5.3125C8.29918 5.08333 9.15984 4.97917 10 4.97917C10.8402 4.97917 11.7008 5.10417 12.5 5.3125C14.4057 3.97917 15.2459 4.25 15.2459 4.25C15.7992 5.66667 15.4508 6.70833 15.3484 6.95833C16.0041 7.66667 16.373 8.58333 16.373 9.70833C16.373 13.6458 14.0369 14.5208 11.8033 14.7708C12.1721 15.0833 12.4795 15.7083 12.4795 16.6667C12.4795 18.0417 12.459 19.1458 12.459 19.4792C12.459 19.75 12.6434 20.0833 13.1352 19.9792C17.1311 18.625 20 14.7917 20 10.25C20.0205 4.58333 15.5328 0 10.0205 0Z" fill="white"/>
</g>
<defs>
<clipPath id="clip0_1_555">
<rect width="20" height="20" fill="white"/>
</clipPath>
</defs>
</svg>
