<svg xmlns="http://www.w3.org/2000/svg" width="14.966" height="14.502" viewBox="0 0 14.966 14.502"><defs><style>.a{fill:#fff;}</style></defs><path class="a" d="M105.3,252.521c.092-.055.055-.166.074-.24a7.473,7.473,0,1,1,10.015,7.946c-.055.018-.129.018-.166.074h-.388c-.2-.055-.24-.2-.24-.37v-1.94a1.947,1.947,0,0,0-.388-1.293c-.111-.148-.074-.2.129-.24a9.02,9.02,0,0,0,1.016-.222,2.882,2.882,0,0,0,2.088-2.568,4.214,4.214,0,0,0,0-1.275,2.511,2.511,0,0,0-.573-1.275.4.4,0,0,1-.092-.425,2.5,2.5,0,0,0-.055-1.515.24.24,0,0,0-.3-.185,3.779,3.779,0,0,0-1.515.628.661.661,0,0,1-.554.092,5.5,5.5,0,0,0-1.552-.185,5.624,5.624,0,0,0-1.663.2.52.52,0,0,1-.407-.055,5.183,5.183,0,0,0-1.109-.554,3.667,3.667,0,0,0-.48-.111.233.233,0,0,0-.277.166,2.5,2.5,0,0,0-.074,1.515.457.457,0,0,1-.092.462,2.983,2.983,0,0,0-.573,2.291,4.159,4.159,0,0,0,.3,1.257,2.822,2.822,0,0,0,2,1.626,5.754,5.754,0,0,0,.813.166c.222.037.259.092.111.277a1.8,1.8,0,0,0-.3.665.36.36,0,0,1-.259.277,1.591,1.591,0,0,1-2-.628,2.666,2.666,0,0,0-.407-.5,1.413,1.413,0,0,0-.758-.333c-.074,0-.185-.018-.222.074s.055.148.111.185a3.384,3.384,0,0,1,.48.388,2.459,2.459,0,0,1,.425.7,1.628,1.628,0,0,0,1.552,1.016,2.5,2.5,0,0,0,.739-.055c.2-.037.259,0,.259.2-.018.37.055.721.037,1.09,0,.2-.037.388-.277.462h-.388a5.475,5.475,0,0,1-1.663-.776,7.5,7.5,0,0,1-2.661-2.975,7.116,7.116,0,0,1-.665-2.125A1.822,1.822,0,0,0,105.3,254v-.185a.056.056,0,0,0,0-.074v-.185a1.493,1.493,0,0,0,0-.573Z" transform="translate(-105.3 -245.816)"/></svg>