<svg id="github-social" xmlns="http://www.w3.org/2000/svg" width="50" height="50" viewBox="0 0 50 50">
  <path id="Path_253" data-name="Path 253" d="M50,25A25.006,25.006,0,0,1,28.852,49.705q-.406.063-.816.112a24.934,24.934,0,0,1-2.679.18c-.119,0-.238,0-.357,0s-.238,0-.357,0a24.935,24.935,0,0,1-2.679-.18q-.41-.049-.816-.112A25,25,0,1,1,50,25Z" transform="translate(0)" fill="#fff"/>
  <g id="Group_11" data-name="Group 11" transform="translate(0)">
    <path id="Path_254" data-name="Path 254" d="M50,25a25.141,25.141,0,0,1-.154,2.787c-.011.1-.022.205-.035.307q-.1.778-.24,1.541-.028.151-.058.3a25.032,25.032,0,0,1-16.6,18.785c-1.267.245-1.717-.534-1.717-1.2,0-.823.029-3.515.029-6.86a5.978,5.978,0,0,0-1.695-4.63c4.33-.482,8.831-1.867,10.616-6.98.036-.1.069-.2.1-.305q.15-.467.268-.975c.023-.1.047-.2.068-.307a18.258,18.258,0,0,0,.36-3.769,9.658,9.658,0,0,0-2.573-6.71,8.966,8.966,0,0,0-.245-6.616s-2.1-.671-6.868,2.563a23.7,23.7,0,0,0-12.52,0c-4.777-3.235-6.877-2.563-6.877-2.563a8.987,8.987,0,0,0-.242,6.616,9.678,9.678,0,0,0-2.577,6.71,18.184,18.184,0,0,0,.361,3.768c.021.1.044.206.067.307q.119.508.269.975c.033.1.067.205.1.305,1.785,5.1,6.273,6.508,10.591,7a5.325,5.325,0,0,0-1.588,3.344c-1.427.639-5.045,1.743-7.275-2.079a5.257,5.257,0,0,0-3.833-2.577s-2.44-.032-.17,1.519c0,0,1.638.769,2.775,3.658,0,0,1.467,4.462,8.422,2.95.011,2.089.034,4.058.034,4.654,0,.66-.458,1.435-1.708,1.2A25.035,25.035,0,0,1,.487,29.935h0c-.02-.1-.04-.2-.057-.3q-.144-.762-.24-1.541c-.013-.1-.025-.2-.036-.307A25,25,0,1,1,50,25Z"/>
    <path id="Path_255" data-name="Path 255" d="M90.547,363.266c-.181-.086-.377-.05-.431.078s.043.294.225.375.373.049.429-.075S90.729,363.347,90.547,363.266Z" transform="translate(-81.302 -327.748)"/>
    <path id="Path_256" data-name="Path 256" d="M101.183,372.2c-.164-.173-.39-.225-.512-.115a.382.382,0,0,0,.072.519c.158.174.392.227.511.116S101.347,372.379,101.183,372.2Z" transform="translate(-90.773 -335.698)"/>
    <path id="Path_257" data-name="Path 257" d="M111.206,385.367c-.157-.22-.4-.316-.558-.21s-.157.373,0,.6.405.322.559.215S111.359,385.592,111.206,385.367Z" transform="translate(-99.735 -347.504)"/>
    <path id="Path_258" data-name="Path 258" d="M123.188,399.852c-.215-.205-.509-.247-.648-.1a.481.481,0,0,0,.142.639c.214.206.506.247.643.1S123.4,400.053,123.188,399.852Z" transform="translate(-110.508 -360.636)"/>
    <path id="Path_259" data-name="Path 259" d="M140.254,410.824c-.286-.089-.568,0-.627.2s.128.428.41.513.564-.006.625-.2S140.536,410.91,140.254,410.824Z" transform="translate(-125.982 -370.674)"/>
    <path id="Path_260" data-name="Path 260" d="M160.811,414.185c-.3.005-.534.173-.534.382s.245.37.544.363.538-.174.531-.381S161.108,414.179,160.811,414.185Z" transform="translate(-144.625 -373.738)"/>
    <path id="Path_261" data-name="Path 261" d="M180.924,411.961c-.038-.205-.3-.326-.6-.275s-.5.26-.464.466.305.323.6.27S180.958,412.162,180.924,411.961Z" transform="translate(-162.293 -371.472)"/>
  </g>
</svg>
