<svg xmlns="http://www.w3.org/2000/svg" xmlns:xlink="http://www.w3.org/1999/xlink" width="1024" height="446" viewBox="0 0 1024 446">
  <defs>
    <clipPath id="clip-path">
      <rect id="Rectangle_596" data-name="Rectangle 596" width="1024" height="446" transform="translate(0 6316)" fill="#fff" stroke="#707070" stroke-width="1"/>
    </clipPath>
    <linearGradient id="linear-gradient" x1="0.302" y1="1.067" x2="0.593" y2="-0.009" gradientUnits="objectBoundingBox">
      <stop offset="0" stop-color="#291a7a"/>
      <stop offset="1" stop-color="#ff0776"/>
    </linearGradient>
    <clipPath id="clip-path-2">
      <rect id="Rectangle_534" data-name="Rectangle 534" width="252.486" height="428.211" fill="none"/>
    </clipPath>
  </defs>
  <g id="Group_1102" data-name="Group 1102" transform="translate(186 -4620)">
    <g id="Mask_Group_862" data-name="Mask Group 862" transform="translate(-186 -1696)" clip-path="url(#clip-path)">
      <path id="Path_2730" data-name="Path 2730" d="M597.453,502.723a206.519,206.519,0,0,1,17.559-23.956c7.021-8.387,15.018-16.973,23.779-25.741,8.987-8.994,18.779-18.179,29.145-27.537,10.638-9.6,21.883-19.389,33.486-29.336,11.913-10.213,24.291-20.692,36.93-31.483,12.99-11.091,26.269-22.52,39.62-34.342,13.743-12.169,27.582-24.771,41.289-37.872,14.138-13.513,28.163-27.582,41.832-42.292,9.028-9.723,17.973-19.958,26.307-30.4a337.223,337.223,0,0,0,23.1-32.381c6.837-11.041,12.392-21.945,16.027-32.311,3.717-10.6,5.418-20.617,4.424-29.6a37.3,37.3,0,0,0-9.847-21.814c-5.466-5.906-12.876-10.4-21.609-13.82a138.172,138.172,0,0,0-29.717-7.405,329.861,329.861,0,0,0-33.862-2.989c-8.686-.384-17.595-.612-26.755-.444a267.893,267.893,0,0,0-28.253,1.937,220.241,220.241,0,0,0-29.681,5.74A211.644,211.644,0,0,0,720.386,97.52c-7.219,3.18-14.378,6.807-21.478,10.675-7.054,3.843-14.044,7.92-20.982,12.035-6.888,4.085-13.725,8.207-20.529,12.177-6.757,3.942-13.487,7.737-20.217,11.205a257.757,257.757,0,0,1-66.841,23.943,232.576,232.576,0,0,1-62.275,4.112,265.977,265.977,0,0,1-59.05-11.007,333.386,333.386,0,0,1-55.636-22.7c-8.407-4.336-16.771-8.935-25.207-13.612-8.53-4.729-17.136-9.538-25.928-14.233-8.889-4.746-17.964-9.372-27.327-13.669A308.2,308.2,0,0,0,285.6,84.668a221.5,221.5,0,0,0-31.839-8.29,191.514,191.514,0,0,0-33.6-3.138,158.654,158.654,0,0,0-33.73,3.434,131.192,131.192,0,0,0-59.592,29.753A160.445,160.445,0,0,0,104.7,130.045a195.772,195.772,0,0,0-17.015,26.42A232.178,232.178,0,0,0,75.257,183.71a287.644,287.644,0,0,0-14.632,53.468,329.626,329.626,0,0,0-4.681,49.733,427.049,427.049,0,0,0,1.612,45.4c1.213,14.123,2.97,27.763,4.9,40.83,4.05,27.412,8.812,52.842,13.972,76.5,4.822,22.112,10.012,42.773,15.318,62.129,4.99,18.2,10.1,35.318,15.12,51.449,4.746,15.249,9.425,29.665,13.86,43.325,1.585,4.878,3.143,9.67,4.755,14.361,1.582,4.6,3.217,9.115,4.982,13.519,1.734,4.325,3.594,8.549,5.654,12.661a120.657,120.657,0,0,0,6.727,11.791,66.1,66.1,0,0,0,4.518,6.18,47.852,47.852,0,0,0,5.607,5.729,44.7,44.7,0,0,0,7.113,5,51.821,51.821,0,0,0,9.039,4.005,72.454,72.454,0,0,0,14.322,3.105,109.644,109.644,0,0,0,16.169.7,120.055,120.055,0,0,0,16.563-1.614,96.669,96.669,0,0,0,15.543-3.909,89.069,89.069,0,0,0,20.887-10.55c6.118-4.12,11.579-8.679,17.215-13.241a161.2,161.2,0,0,1,18.571-13.451,95.84,95.84,0,0,1,24.9-10.571,110.814,110.814,0,0,1,16.555-3.084,134.732,134.732,0,0,1,16.536-.782c5.422.068,10.723.433,15.815,1.009,5.07.573,9.925,1.354,14.485,2.255,9.7,1.917,18.83,4.328,27.75,6.792,8.8,2.431,17.388,4.912,26.155,7.029a206.164,206.164,0,0,0,26.992,4.833,168.033,168.033,0,0,0,30.64.415,189.884,189.884,0,0,0,23.677-3.384,226.78,226.78,0,0,0,24.093-6.363,215.389,215.389,0,0,0,23.123-8.945,159.989,159.989,0,0,0,20.576-11.17,105.948,105.948,0,0,0,17.131-13.637,53.891,53.891,0,0,0,10.726-14.408c2.282-4.8,3.068-9.4,2.017-13.488-1.069-4.159-4.033-7.779-9.229-10.524a29.089,29.089,0,0,1-11.863-10.9,29.919,29.919,0,0,1-3.908-15.04,54.831,54.831,0,0,1,3.25-18.153A100.477,100.477,0,0,1,597.453,502.723Z" transform="translate(11.099 6267.13)" fill="url(#linear-gradient)"/>
      <g id="Group_963" data-name="Group 963" transform="translate(100.198 2279)">
        <g id="Group_862" data-name="Group 862" transform="translate(89.802 4054.677)">
          <g id="Group_754" data-name="Group 754" transform="translate(0 103.696)">
            <g id="Group_756" data-name="Group 756" transform="translate(0 0)">
              <path id="Path_2270" data-name="Path 2270" d="M730.313,595.778V584.556l5.172,5.172,1.293-1.339L729.389,581,722,588.389l1.293,1.293,5.172-5.126v11.222Z" transform="translate(-417.829 -359.195)" fill="#fff"/>
              <path id="Path_2272" data-name="Path 2272" d="M731.735,371.094v-8.409l3.879,3.879.97-1-5.542-5.542-5.542,5.542.97.97,3.879-3.847v8.409Z" transform="translate(-464.16 -287.682)" fill="#fff"/>
              <path id="Path_2273" data-name="Path 2273" d="M512.734,239.094v-8.41l3.879,3.879.97-1-5.542-5.542-5.542,5.542.97.97,3.879-3.847v8.41Z" transform="translate(-425.056 -228.02)" fill="#fff"/>
              <path id="Path_2274" data-name="Path 2274" d="M430.734,419.094v-8.41l3.879,3.879.97-1-5.542-5.542-5.542,5.542.97.97,3.879-3.847v8.41Z" transform="translate(-302.164 -313.515)" fill="#fff"/>
              <path id="Path_2276" data-name="Path 2276" d="M412.734,664.094v-8.41l3.879,3.879.97-1-5.542-5.542-5.542,5.542.97.97,3.879-3.847v8.41Z" transform="translate(-292.477 -445.372)" fill="#fff"/>
              <ellipse id="Ellipse_108" data-name="Ellipse 108" cx="3.02" cy="2.718" rx="3.02" ry="2.718" transform="translate(318.948 67.744)" fill="#fff"/>
              <ellipse id="Ellipse_130" data-name="Ellipse 130" cx="3.02" cy="2.718" rx="3.02" ry="2.718" transform="translate(78.708 164.06)" fill="#fff"/>
              <ellipse id="Ellipse_109" data-name="Ellipse 109" cx="2.718" cy="2.416" rx="2.718" ry="2.416" transform="translate(57.991 60.495)" fill="#fff"/>
              <ellipse id="Ellipse_131" data-name="Ellipse 131" cx="2.718" cy="2.416" rx="2.718" ry="2.416" transform="translate(264.163 157.328)" fill="#fff"/>
              <ellipse id="Ellipse_110" data-name="Ellipse 110" cx="2.718" cy="3.02" rx="2.718" ry="3.02" transform="translate(140.144 130.567)" fill="#fff"/>
              <ellipse id="Ellipse_111" data-name="Ellipse 111" cx="1.208" cy="1.51" rx="1.208" ry="1.51" transform="translate(383.584 178.893)" fill="#fff"/>
              <ellipse id="Ellipse_132" data-name="Ellipse 132" cx="1.208" cy="1.51" rx="1.208" ry="1.51" transform="translate(291.913 117.568)" fill="#fff"/>
              <ellipse id="Ellipse_113" data-name="Ellipse 113" cx="1.208" cy="1.208" rx="1.208" ry="1.208" transform="translate(101.484 250.173)" fill="#fff"/>
              <ellipse id="Ellipse_114" data-name="Ellipse 114" cx="1.51" cy="1.51" rx="1.51" ry="1.51" transform="translate(0 137.212)" fill="#fff"/>
              <ellipse id="Ellipse_115" data-name="Ellipse 115" cx="1.51" cy="1.812" rx="1.51" ry="1.812" transform="translate(13.29 107.613)" fill="#fff"/>
              <ellipse id="Ellipse_117" data-name="Ellipse 117" cx="1.51" cy="1.812" rx="1.51" ry="1.812" transform="translate(54.97 214.533)" fill="#fff"/>
              <ellipse id="Ellipse_118" data-name="Ellipse 118" cx="1.51" cy="1.51" rx="1.51" ry="1.51" transform="translate(86.986 88.282)" fill="#fff"/>
              <path id="Path_2277" data-name="Path 2277" d="M368.74,219.158h-7.158V212h-.924v7.158H353.5v.924h7.158v7.158h.924v-7.158h7.158Z" transform="translate(-233.011 -178.915)" fill="#fff"/>
              <path id="Path_2549" data-name="Path 2549" d="M368.74,219.158h-7.158V212h-.924v7.158H353.5v.924h7.158v7.158h.924v-7.158h7.158Z" transform="translate(-38.534 -83.012)" fill="#fff"/>
              <path id="Path_2280" data-name="Path 2280" d="M229.236,661.836H224.9V657.5h-.563v4.336H220v.563h4.336v4.336h.563V662.4h4.336Z" transform="translate(-161.163 -418.68)" fill="#fff"/>
              <path id="Path_2550" data-name="Path 2550" d="M229.236,661.836H224.9V657.5h-.563v4.336H220v.563h4.336v4.336h.563V662.4h4.336Z" transform="translate(-155.775 -536.169)" fill="#fff"/>
              <path id="Path_2551" data-name="Path 2551" d="M229.236,661.836H224.9V657.5h-.563v4.336H220v.563h4.336v4.336h.563V662.4h4.336Z" transform="translate(46.882 -460.483)" fill="#fff"/>
              <path id="Path_2281" data-name="Path 2281" d="M163.236,485.836H158.9V481.5h-.563v4.336H154v.563h4.336v4.336h.563V486.4h4.336Z" transform="translate(-125.642 -323.958)" fill="#fff"/>
            </g>
          </g>
          <g id="Group_848" data-name="Group 848" transform="translate(106.536 0)">
            <rect id="Rectangle_530" data-name="Rectangle 530" width="68.782" height="249.578" transform="translate(65.247 66.401)" fill="#011638"/>
            <g id="Group_849" data-name="Group 849">
              <g id="Group_848-2" data-name="Group 848" clip-path="url(#clip-path-2)">
                <path id="Path_2532" data-name="Path 2532" d="M226.947,0c-30.272,30.272-34.391,66.4-34.391,66.4h68.782S257.219,30.275,226.947,0" transform="translate(-127.309 -0.003)" fill="#2f11c7"/>
                <path id="Path_2533" data-name="Path 2533" d="M275.493,1135.047a27.82,27.82,0,0,0-8.126,1.193,22.845,22.845,0,0,0-21.267-13.788c-10.751,0-19.766,7.065-22.187,16.576a16.954,16.954,0,0,0-6-1.09c-8.95,0-16.206,6.9-16.206,15.4h96.618c0-10.1-10.221-18.295-22.83-18.295" transform="translate(-133.358 -742.113)" fill="#f4f4f4"/>
                <path id="Path_2534" data-name="Path 2534" d="M93.919,223.372a17.916,17.916,0,0,0-5.765.94,15.971,15.971,0,0,0-30.832,2.194,10.975,10.975,0,0,0-4.258-.858c-6.351,0-11.5,5.43-11.5,12.129h68.554c0-7.955-7.254-14.405-16.2-14.405" transform="translate(-27.48 -141.127)" fill="#fff"/>
                <path id="Path_2535" data-name="Path 2535" d="M345.44,179.772a11.149,11.149,0,0,0-3.593.587,9.957,9.957,0,0,0-19.222,1.368,6.832,6.832,0,0,0-2.655-.535,7.373,7.373,0,0,0-7.168,7.561H355.54c0-4.96-4.522-8.98-10.1-8.98" transform="translate(-206.81 -114.77)" fill="#e5e1f9"/>
                <path id="Path_2536" data-name="Path 2536" d="M409.7,331.027a17.748,17.748,0,0,0-6.019,1.041c-2.464-7.037-8.587-12.021-15.753-12.021-7.963,0-14.642,6.159-16.435,14.451a10.905,10.905,0,0,0-4.446-.949c-6.629,0-12,6.013-12,13.43h71.567c0-8.809-7.571-15.951-16.91-15.951" transform="translate(-234.739 -211.601)" fill="#e5e1f9"/>
                <path id="Path_2537" data-name="Path 2537" d="M278.236,319.351a16.628,16.628,0,1,1-16.629-16.63,16.63,16.63,0,0,1,16.629,16.63" transform="translate(-161.968 -200.146)" fill="#ff0076"/>
                <path id="Path_2538" data-name="Path 2538" d="M278.236,466.688a16.628,16.628,0,1,1-16.629-16.629,16.629,16.629,0,0,1,16.629,16.629" transform="translate(-161.968 -297.559)" fill="#ff0076"/>
                <path id="Path_2539" data-name="Path 2539" d="M282.264,474.957a12.391,12.391,0,1,1-12.39-12.391,12.391,12.391,0,0,1,12.39,12.391" transform="translate(-170.235 -305.828)" fill="#f4f4f4"/>
                <path id="Path_2540" data-name="Path 2540" d="M282.264,327.621a12.391,12.391,0,1,1-12.39-12.391,12.391,12.391,0,0,1,12.39,12.391" transform="translate(-170.235 -208.416)" fill="#f4f4f4"/>
                <rect id="Rectangle_531" data-name="Rectangle 531" width="14.984" height="63.601" transform="translate(57.756 316.738)" fill="#1473e6"/>
                <rect id="Rectangle_532" data-name="Rectangle 532" width="14.984" height="63.601" transform="translate(92.147 316.738)" fill="#1473e6"/>
                <rect id="Rectangle_533" data-name="Rectangle 533" width="14.982" height="63.601" transform="translate(126.538 316.738)" fill="#1473e6"/>
                <path id="Path_2541" data-name="Path 2541" d="M282.264,930.015H257.483a12.391,12.391,0,1,1,24.781,0" transform="translate(-170.235 -606.69)" fill="#011638"/>
                <path id="Path_2542" data-name="Path 2542" d="M383.759,930.015H358.978a12.391,12.391,0,1,1,24.781,0" transform="translate(-237.339 -606.69)" fill="#011638"/>
                <path id="Path_2543" data-name="Path 2543" d="M254.242,1019.7a37.011,37.011,0,0,0-11.909,1.942c-4.876-13.129-16.99-22.426-31.168-22.426-15.756,0-28.969,11.49-32.518,26.958a22.691,22.691,0,0,0-8.8-1.771c-13.117,0-23.751,11.216-23.751,25.052H287.7c0-16.432-14.98-29.755-33.459-29.755" transform="translate(-96.595 -660.636)" fill="#e5e1f9"/>
                <path id="Path_2544" data-name="Path 2544" d="M180.643,1084.129a35.089,35.089,0,0,0-11.909,2.059c-4.876-13.924-16.991-23.784-31.167-23.784-15.757,0-28.969,12.185-32.518,28.592a21.564,21.564,0,0,0-8.8-1.88c-13.117,0-23.751,11.9-23.751,26.572H214.1c0-17.429-14.98-31.559-33.459-31.559" transform="translate(-47.934 -702.412)" fill="#f4f4f4"/>
                <path id="Path_2545" data-name="Path 2545" d="M397,1134.316a45.809,45.809,0,0,0-13.386,1.966c-5.48-13.3-19.1-22.713-35.029-22.713-17.71,0-32.56,11.636-36.549,27.3a27.912,27.912,0,0,0-9.886-1.795c-14.743,0-26.694,11.359-26.694,25.373H434.6c0-16.641-16.837-30.135-37.6-30.135" transform="translate(-182.116 -736.24)" fill="#cbc4eb"/>
                <path id="Path_2546" data-name="Path 2546" d="M94.094,1163.544a35.452,35.452,0,0,0-10.361,1.522c-4.243-10.293-14.784-17.583-27.119-17.583-13.71,0-25.207,9.008-28.295,21.137a21.628,21.628,0,0,0-7.653-1.389C9.254,1167.231,0,1176.025,0,1186.873H123.207c0-12.883-13.034-23.329-29.113-23.329" transform="translate(0 -758.662)" fill="#e5e1f9"/>
                <path id="Path_2547" data-name="Path 2547" d="M180.77,930.015H155.988a12.391,12.391,0,1,1,24.782,0" transform="translate(-103.132 -606.69)" fill="#011638"/>
              </g>
            </g>
          </g>
        </g>
        <path id="Path_2548" data-name="Path 2548" d="M594.99,167.281l12.871-12.871,13,12.871h-8.834v41.363h-8.2v-41.3Z" transform="translate(-312.188 4135.947)" fill="#fff"/>
      </g>
    </g>
    <g id="logo" transform="translate(-52.123 4819.61)">
      <g id="Group_16" data-name="Group 16" transform="translate(232.7 23.95)">
        <path id="Path_362" data-name="Path 362" d="M233.186,81.264V80.2h5.734L234.382,90h4.305V91.06H232.7l4.569-9.8Z" transform="translate(-232.7 -79.937)" fill="#fff"/>
        <path id="Path_363" data-name="Path 363" d="M320.147,83.293a5.724,5.724,0,1,1-5.8-5.693A5.641,5.641,0,0,1,320.147,83.293Zm-10.312.041a4.59,4.59,0,1,0,4.569-4.69A4.6,4.6,0,0,0,309.835,83.333Z" transform="translate(-301.001 -77.6)" fill="#fff"/>
        <path id="Path_364" data-name="Path 364" d="M432.4,81.264V80.2h5.957v1.064h-2.421v9.8h-1.084v-9.8Z" transform="translate(-412.17 -79.937)" fill="#fff"/>
        <path id="Path_365" data-name="Path 365" d="M483.1,80.2l5.065,10.86H487l-1.712-3.566H480.6l-1.692,3.566H477.7l5.146-10.86Zm-.142,2.3-1.874,3.931H484.8Z" transform="translate(-452.881 -79.937)" fill="#fff"/>
        <path id="Path_366" data-name="Path 366" d="M590.1,80.2h2.512a7.782,7.782,0,0,1,2.512.274,2.832,2.832,0,0,1,.527,4.984,6.573,6.573,0,0,1-3.383.547h-1.074V91.06H590.11V80.2Zm1.084,1.064v3.687c.618.01,1.236,0,1.8,0a3.381,3.381,0,0,0,2.148-.456,1.885,1.885,0,0,0,.638-1.408,1.839,1.839,0,0,0-.679-1.418,3.229,3.229,0,0,0-1.986-.405Z" transform="translate(-553.895 -79.937)" fill="#fff"/>
        <path id="Path_367" data-name="Path 367" d="M656,80.2l5.065,10.86H659.9l-1.712-3.566H653.5l-1.692,3.566H650.6l5.146-10.86Zm-.142,2.3-1.874,3.931H657.7Z" transform="translate(-608.266 -79.937)" fill="#fff"/>
        <path id="Path_368" data-name="Path 368" d="M739.895,85.873,736.4,80.2h1.256l2.786,4.478,2.735-4.478h1.256l-3.444,5.673V91.06h-1.084V85.873Z" transform="translate(-685.374 -79.937)" fill="#fff"/>
      </g>
      <rect id="Rectangle_20" data-name="Rectangle 20" width="1.216" height="15.722" transform="translate(248.891 22.248) rotate(26.737)" fill="#fff"/>
      <rect id="Rectangle_21" data-name="Rectangle 21" width="0.881" height="7.01" transform="translate(264.5 17.903) rotate(90)" fill="#fff"/>
      <rect id="Rectangle_22" data-name="Rectangle 22" width="0.881" height="7.01" transform="translate(264.496 39.962) rotate(90)" fill="#fff"/>
    </g>
  </g>
</svg>
