<svg xmlns="http://www.w3.org/2000/svg" xmlns:xlink="http://www.w3.org/1999/xlink" width="970.392" height="748.266" viewBox="50 200 1050.392 448.266">
  <defs>
    <linearGradient id="linear-gradient" x1="0.302" y1="1.067" x2="0.593" y2="-0.009" gradientUnits="objectBoundingBox">
      <stop offset="0" stop-color="#291a7a"/>
      <stop offset="1" stop-color="#ff0776"/>
    </linearGradient>
    <clipPath id="clip-path">
      <rect id="Rectangle_534" data-name="Rectangle 534" width="399.369" height="677.323" fill="none"/>
    </clipPath>
  </defs>
  <g id="Group_1084" data-name="Group 1084" transform="translate(26.85 -3998.497)">
    <path id="Path_2263" data-name="Path 2263" d="M643.583,615.207a257.137,257.137,0,0,1,20.087-27.895c7.986-9.791,17.039-19.825,26.935-30.084,10.169-10.543,21.229-21.324,32.937-32.325,12.038-11.312,24.762-22.857,37.907-34.615,13.524-12.1,27.6-24.534,42-37.369,14.841-13.222,30.053-26.88,45.411-41.046,15.849-14.618,31.879-29.8,47.853-45.63,16.522-16.375,33.019-33.482,49.24-51.434,10.742-11.9,21.465-24.454,31.567-37.3A467.276,467.276,0,0,0,1006,237.439c8.616-13.74,15.835-27.358,20.908-40.358,5.2-13.325,8.134-25.97,8-37.374-.136-11.208-3.2-20.385-8.533-27.891-5.411-7.616-13.126-13.466-22.424-17.969-9.388-4.546-20.346-7.7-32.133-9.92a310.619,310.619,0,0,0-37.229-4.33c-9.594-.62-19.452-1.044-29.629-.962a260.673,260.673,0,0,0-31.521,2.075,222.537,222.537,0,0,0-33.431,6.936A226.123,226.123,0,0,0,804.9,121.105c-8.258,3.967-16.478,8.5-24.648,13.345-8.109,4.807-16.159,9.91-24.149,15.058-7.925,5.107-15.789,10.256-23.6,15.208-7.751,4.914-15.454,9.638-23.131,13.944-26.306,14.752-51.393,24.152-75.332,29.375a226.929,226.929,0,0,1-68.963,4.354,257.466,257.466,0,0,1-64.756-14.7,337.216,337.216,0,0,1-60.779-29.57c-9.186-5.64-18.325-11.621-27.554-17.711-9.343-6.165-18.781-12.443-28.443-18.584-9.781-6.217-19.785-12.289-30.134-17.951a317.941,317.941,0,0,0-32.523-15.613,221.84,221.84,0,0,0-35.532-11.184,187.5,187.5,0,0,0-37.682-4.562,155.453,155.453,0,0,0-37.949,3.944,136.542,136.542,0,0,0-36.083,14,149.341,149.341,0,0,0-31.005,23.528,194.067,194.067,0,0,0-24.807,29.991,251.911,251.911,0,0,0-18.962,33.472,310.616,310.616,0,0,0-13.747,34.379A395.437,395.437,0,0,0,69.181,288.81a457.42,457.42,0,0,0-4.832,61.683c-.245,19.2.6,37.834,2.074,55.758,1.418,17.235,3.421,33.834,5.6,49.688,4.557,33.1,9.846,63.636,15.524,91.888,5.279,26.265,10.923,50.692,16.66,73.474,5.372,21.332,10.849,41.312,16.208,60.071,5.048,17.67,10.009,34.32,14.7,50.045,1.672,5.6,3.313,11.1,5.009,16.48,1.663,5.273,3.381,10.434,5.234,15.468,1.819,4.939,3.769,9.76,5.929,14.45a140.751,140.751,0,0,0,7.044,13.43,75.247,75.247,0,0,0,4.727,7.031,52.707,52.707,0,0,0,5.866,6.519,47.223,47.223,0,0,0,7.444,5.693,52.631,52.631,0,0,0,9.463,4.581,71.485,71.485,0,0,0,15,3.6,107.036,107.036,0,0,0,16.946.9,117.468,117.468,0,0,0,17.38-1.706,95.962,95.962,0,0,0,16.344-4.3A91.894,91.894,0,0,0,273.566,801.8c6.489-4.615,12.3-9.734,18.3-14.861a173.207,173.207,0,0,1,19.781-15.128,98.345,98.345,0,0,1,26.422-11.841,109.612,109.612,0,0,1,17.495-3.39,131.3,131.3,0,0,1,17.418-.767,153.544,153.544,0,0,1,16.6,1.266c5.314.69,10.394,1.615,15.159,2.674,10.131,2.252,19.641,5.061,28.921,7.926,9.148,2.825,18.068,5.7,27.182,8.166a198.226,198.226,0,0,0,28.09,5.67A162.47,162.47,0,0,0,521,782.2a187.355,187.355,0,0,0,24.93-3.662,229.235,229.235,0,0,0,25.519-7.036,223.989,223.989,0,0,0,24.663-9.982,172.709,172.709,0,0,0,22.155-12.548,120.487,120.487,0,0,0,18.728-15.416,65.44,65.44,0,0,0,12.1-16.39c2.68-5.478,3.777-10.747,2.912-15.452-.88-4.787-3.789-8.974-9.1-12.175a30.052,30.052,0,0,1-11.883-12.663,36.272,36.272,0,0,1-3.277-17.422,70.716,70.716,0,0,1,4.469-21.04A128.375,128.375,0,0,1,643.583,615.207Z" transform="translate(-26.85 3998.497)" fill="url(#linear-gradient)"/>
    <g id="Group_962" data-name="Group 962" transform="translate(0 1)">
      <g id="Group_862" data-name="Group 862">
        <g id="Group_754" data-name="Group 754" transform="translate(229.802 4072.171)">
          <g id="Group_756" data-name="Group 756" transform="translate(-140 44)">
            <path id="Path_2270" data-name="Path 2270" d="M735.148,604.375v-17.75l8.181,8.181,2.045-2.118L733.687,581,722,592.687l2.045,2.045,8.181-8.108v17.75Z" transform="translate(-240.878 -127.634)" fill="#fff"/>
            <path id="Path_2272" data-name="Path 2272" d="M735.361,377.537v-13.3l6.136,6.136,1.534-1.585-8.766-8.766-8.766,8.766,1.534,1.534,6.136-6.085v13.3Z" transform="translate(-312.125 -143.072)" fill="#fff"/>
            <path id="Path_2273" data-name="Path 2273" d="M516.361,245.537v-13.3l6.136,6.136,1.534-1.585-8.766-8.766-8.766,8.766,1.534,1.534,6.136-6.085v13.3Z" transform="translate(-377.676 -125.493)" fill="#fff"/>
            <path id="Path_2274" data-name="Path 2274" d="M434.361,425.537v-13.3l6.136,6.136,1.534-1.585-8.766-8.766-8.766,8.766,1.534,1.534,6.136-6.085v13.3Z" transform="translate(-230.995 -156.009)" fill="#fff"/>
            <path id="Path_2276" data-name="Path 2276" d="M416.361,670.537v-13.3l6.136,6.136,1.534-1.585-8.766-8.766-8.766,8.766,1.534,1.534,6.136-6.085v13.3Z" transform="translate(-226.143 -222.045)" fill="#fff"/>
            <ellipse id="Ellipse_108" data-name="Ellipse 108" cx="4.777" cy="4.3" rx="4.777" ry="4.3" transform="translate(504.497 209.681)" fill="#fff"/>
            <ellipse id="Ellipse_130" data-name="Ellipse 130" cx="4.777" cy="4.3" rx="4.777" ry="4.3" transform="translate(124.497 362.029)" fill="#fff"/>
            <ellipse id="Ellipse_109" data-name="Ellipse 109" cx="4.3" cy="3.822" rx="4.3" ry="3.822" transform="translate(91.727 198.215)" fill="#fff"/>
            <ellipse id="Ellipse_131" data-name="Ellipse 131" cx="4.3" cy="3.822" rx="4.3" ry="3.822" transform="translate(417.84 351.38)" fill="#fff"/>
            <ellipse id="Ellipse_110" data-name="Ellipse 110" cx="4.3" cy="4.777" rx="4.3" ry="4.777" transform="translate(221.673 309.052)" fill="#fff"/>
            <ellipse id="Ellipse_111" data-name="Ellipse 111" cx="1.911" cy="2.389" rx="1.911" ry="2.389" transform="translate(606.734 385.491)" fill="#fff"/>
            <ellipse id="Ellipse_132" data-name="Ellipse 132" cx="1.911" cy="2.389" rx="1.911" ry="2.389" transform="translate(461.734 288.491)" fill="#fff"/>
            <ellipse id="Ellipse_113" data-name="Ellipse 113" cx="1.911" cy="1.911" rx="1.911" ry="1.911" transform="translate(160.522 498.238)" fill="#fff"/>
            <ellipse id="Ellipse_114" data-name="Ellipse 114" cx="2.389" cy="2.389" rx="2.389" ry="2.389" transform="translate(0 319.562)" fill="#fff"/>
            <ellipse id="Ellipse_115" data-name="Ellipse 115" cx="2.389" cy="2.866" rx="2.389" ry="2.866" transform="translate(21.021 272.743)" fill="#fff"/>
            <ellipse id="Ellipse_117" data-name="Ellipse 117" cx="2.389" cy="2.866" rx="2.389" ry="2.866" transform="translate(86.949 441.864)" fill="#fff"/>
            <ellipse id="Ellipse_118" data-name="Ellipse 118" cx="2.389" cy="2.389" rx="2.389" ry="2.389" transform="translate(137.59 242.168)" fill="#fff"/>
            <path id="Path_2277" data-name="Path 2277" d="M377.605,223.322H366.283V212h-1.461v11.322H353.5v1.461h11.322v11.322h1.461V224.783h11.322Z" transform="translate(-162.917 -57.141)" fill="#fff"/>
            <path id="Path_2549" data-name="Path 2549" d="M377.605,223.322H366.283V212h-1.461v11.322H353.5v1.461h11.322v11.322h1.461V224.783h11.322Z" transform="translate(144.697 94.554)" fill="#fff"/>
            <path id="Path_2280" data-name="Path 2280" d="M234.609,664.359H227.75V657.5h-.891v6.859H220v.891h6.859v6.859h.891V665.25h6.859Z" transform="translate(-126.934 -177.219)" fill="#fff"/>
            <path id="Path_2550" data-name="Path 2550" d="M234.609,664.359H227.75V657.5h-.891v6.859H220v.891h6.859v6.859h.891V665.25h6.859Z" transform="translate(-118.412 -363.057)" fill="#fff"/>
            <path id="Path_2551" data-name="Path 2551" d="M234.609,664.359H227.75V657.5h-.891v6.859H220v.891h6.859v6.859h.891V665.25h6.859Z" transform="translate(202.14 -243.341)" fill="#fff"/>
            <path id="Path_2281" data-name="Path 2281" d="M168.609,488.359H161.75V481.5h-.891v6.859H154v.891h6.859v6.859h.891V489.25h6.859Z" transform="translate(-109.145 -129.781)" fill="#fff"/>
          </g>
        </g>
        <g id="Group_848" data-name="Group 848" transform="translate(258.315 4054.674)">
          <rect id="Rectangle_530" data-name="Rectangle 530" width="108.797" height="394.77" transform="translate(103.205 105.033)" fill="#011638"/>
          <g id="Group_849" data-name="Group 849" transform="translate(0 0.003)">
            <g id="Group_848-2" data-name="Group 848" clip-path="url(#clip-path)">
              <path id="Path_2532" data-name="Path 2532" d="M246.955,0c-47.883,47.883-54.4,105.03-54.4,105.03h108.8S294.837,47.886,246.955,0" transform="translate(-89.351 -0.003)" fill="#2f11c7"/>
              <path id="Path_2533" data-name="Path 2533" d="M318.42,1142.374a44.005,44.005,0,0,0-12.853,1.888c-5.262-12.767-18.337-21.81-33.639-21.81-17,0-31.264,11.175-35.095,26.219a26.814,26.814,0,0,0-9.495-1.724c-14.157,0-25.633,10.909-25.633,24.364H354.53c0-15.98-16.167-28.938-36.111-28.938" transform="translate(-93.597 -520.85)" fill="#f4f4f4"/>
              <path id="Path_2534" data-name="Path 2534" d="M124.376,229.141a28.338,28.338,0,0,0-9.119,1.487c-3.736-10.054-13.012-17.173-23.868-17.173-12.066,0-22.185,8.8-24.9,20.644a17.36,17.36,0,0,0-6.736-1.357c-10.045,0-18.188,8.589-18.188,19.185H150c0-12.584-11.474-22.786-25.623-22.786" transform="translate(-19.287 -99.051)" fill="#fff"/>
              <path id="Path_2535" data-name="Path 2535" d="M364.428,183.368a17.634,17.634,0,0,0-5.683.928,15.749,15.749,0,0,0-30.4,2.164,10.806,10.806,0,0,0-4.2-.846c-6.262,0-11.339,5.354-11.339,11.959h67.6c0-7.845-7.152-14.2-15.975-14.2" transform="translate(-145.149 -80.552)" fill="#e5e1f9"/>
              <path id="Path_2536" data-name="Path 2536" d="M441.5,337.415a28.072,28.072,0,0,0-9.521,1.646c-3.9-11.131-13.583-19.014-24.917-19.014-12.6,0-23.16,9.742-26,22.858a17.25,17.25,0,0,0-7.033-1.5c-10.486,0-18.987,9.51-18.987,21.242h113.2c0-13.934-11.975-25.23-26.747-25.23" transform="translate(-164.751 -148.512)" fill="#e5e1f9"/>
              <path id="Path_2537" data-name="Path 2537" d="M297.583,329.026a26.3,26.3,0,1,1-26.3-26.3,26.3,26.3,0,0,1,26.3,26.3" transform="translate(-113.677 -140.472)" fill="#ff0076"/>
              <path id="Path_2538" data-name="Path 2538" d="M297.583,476.361a26.3,26.3,0,1,1-26.3-26.3,26.3,26.3,0,0,1,26.3,26.3" transform="translate(-113.677 -208.841)" fill="#ff0076"/>
              <path id="Path_2539" data-name="Path 2539" d="M296.681,482.165a19.6,19.6,0,1,1-19.6-19.6,19.6,19.6,0,0,1,19.6,19.6" transform="translate(-119.479 -214.645)" fill="#f4f4f4"/>
              <path id="Path_2540" data-name="Path 2540" d="M296.681,334.83a19.6,19.6,0,1,1-19.6-19.6,19.6,19.6,0,0,1,19.6,19.6" transform="translate(-119.479 -146.277)" fill="#f4f4f4"/>
              <rect id="Rectangle_531" data-name="Rectangle 531" width="23.701" height="100.602" transform="translate(91.355 501.001)" fill="#1473e6"/>
              <rect id="Rectangle_532" data-name="Rectangle 532" width="23.701" height="100.602" transform="translate(145.753 501.001)" fill="#1473e6"/>
              <rect id="Rectangle_533" data-name="Rectangle 533" width="23.699" height="100.602" transform="translate(200.152 501.001)" fill="#1473e6"/>
              <path id="Path_2541" data-name="Path 2541" d="M296.681,937.224h-39.2a19.6,19.6,0,1,1,39.2,0" transform="translate(-119.479 -425.804)" fill="#011638"/>
              <path id="Path_2542" data-name="Path 2542" d="M398.176,937.224h-39.2a19.6,19.6,0,1,1,39.2,0" transform="translate(-166.576 -425.804)" fill="#011638"/>
              <path id="Path_2543" data-name="Path 2543" d="M317.154,1031.619a58.539,58.539,0,0,0-18.837,3.072c-7.713-20.767-26.873-35.472-49.3-35.472-24.922,0-45.821,18.174-51.435,42.641a35.89,35.89,0,0,0-13.914-2.8c-20.747,0-37.567,17.741-37.567,39.627H370.077c0-25.991-23.7-47.065-52.923-47.065" transform="translate(-67.795 -463.666)" fill="#e5e1f9"/>
              <path id="Path_2544" data-name="Path 2544" d="M243.555,1096.768a55.506,55.506,0,0,0-18.837,3.257C217,1078,197.843,1062.4,175.419,1062.4c-24.924,0-45.822,19.274-51.436,45.226a34.106,34.106,0,0,0-13.914-2.974c-20.748,0-37.568,18.818-37.568,42.031H296.478c0-27.568-23.7-49.918-52.923-49.918" transform="translate(-33.642 -492.986)" fill="#f4f4f4"/>
              <path id="Path_2545" data-name="Path 2545" d="M467.7,1146.385a72.452,72.452,0,0,0-21.173,3.11c-8.668-21.031-30.205-35.926-55.407-35.926-28.013,0-51.5,18.4-57.811,43.188a44.148,44.148,0,0,0-15.638-2.839c-23.319,0-42.224,17.967-42.224,40.133H527.186c0-26.323-26.631-47.666-59.482-47.666" transform="translate(-127.817 -516.728)" fill="#cbc4eb"/>
              <path id="Path_2546" data-name="Path 2546" d="M148.834,1172.888a56.085,56.085,0,0,0-16.389,2.407c-6.711-16.281-23.384-27.812-42.9-27.812-21.686,0-39.871,14.249-44.755,33.433a34.21,34.21,0,0,0-12.1-2.2c-18.052,0-32.69,13.91-32.69,31.069H194.883c0-20.377-20.617-36.9-46.049-36.9" transform="translate(0 -532.465)" fill="#e5e1f9"/>
              <path id="Path_2547" data-name="Path 2547" d="M195.186,937.224h-39.2a19.6,19.6,0,1,1,39.2,0" transform="translate(-72.383 -425.804)" fill="#011638"/>
            </g>
          </g>
        </g>
      </g>
      <path id="Path_2548" data-name="Path 2548" d="M594.99,174.768l20.358-20.358,20.563,20.358H621.937v65.426H608.964V174.87Z" transform="translate(-199.91 4273.054)" fill="#fff"/>
    </g>
    <g id="logo" transform="translate(142.027 4350.139)">
      <g id="Group_16" data-name="Group 16" transform="translate(232.7 26.792)">
        <path id="Path_362" data-name="Path 362" d="M233.415,81.764V80.2h8.428l-6.671,14.4H241.5v1.564h-8.8l6.716-14.4Z" transform="translate(-232.7 -79.813)" fill="#fff"/>
        <path id="Path_363" data-name="Path 363" d="M325.527,85.969a8.414,8.414,0,1,1-8.533-8.369A8.292,8.292,0,0,1,325.527,85.969Zm-15.159.06a6.747,6.747,0,1,0,6.716-6.895A6.766,6.766,0,0,0,310.368,86.028Z" transform="translate(-297.383 -77.6)" fill="#fff"/>
        <path id="Path_364" data-name="Path 364" d="M432.4,81.764V80.2h8.756v1.564H437.6v14.4H436v-14.4Z" transform="translate(-402.663 -79.813)" fill="#fff"/>
        <path id="Path_365" data-name="Path 365" d="M485.637,80.2l7.446,15.963H491.37l-2.517-5.242h-6.895l-2.487,5.242H477.7L485.265,80.2Zm-.208,3.38-2.755,5.778h5.465Z" transform="translate(-441.217 -79.813)" fill="#fff"/>
        <path id="Path_366" data-name="Path 366" d="M590.1,80.2h3.693a11.439,11.439,0,0,1,3.693.4,4.163,4.163,0,0,1,.774,7.326c-1.132.715-2.785.8-4.974.8h-1.578v7.431h-1.593V80.2Zm1.593,1.564v5.42c.908.015,1.817,0,2.651,0a4.97,4.97,0,0,0,3.157-.67,2.77,2.77,0,0,0,.938-2.07,2.7,2.7,0,0,0-1-2.085,4.746,4.746,0,0,0-2.919-.6Z" transform="translate(-536.879 -79.813)" fill="#fff"/>
        <path id="Path_367" data-name="Path 367" d="M658.537,80.2l7.446,15.963H664.27l-2.517-5.242h-6.895l-2.487,5.242H650.6L658.165,80.2Zm-.208,3.38-2.755,5.778h5.465Z" transform="translate(-588.37 -79.813)" fill="#fff"/>
        <path id="Path_368" data-name="Path 368" d="M741.537,88.539,736.4,80.2h1.847l4.095,6.582,4.021-6.582h1.846l-5.063,8.339v7.624h-1.593V88.539Z" transform="translate(-661.394 -79.813)" fill="#fff"/>
      </g>
      <rect id="Rectangle_20" data-name="Rectangle 20" width="1.787" height="23.111" transform="translate(256.501 24.291) rotate(26.737)" fill="#fff"/>
      <rect id="Rectangle_21" data-name="Rectangle 21" width="1.296" height="10.305" transform="translate(279.445 17.903) rotate(90)" fill="#fff"/>
      <rect id="Rectangle_22" data-name="Rectangle 22" width="1.296" height="10.305" transform="translate(279.439 50.329) rotate(90)" fill="#fff"/>
    </g>
    <g id="logo-2" data-name="logo" transform="translate(2140.027 5995.139)">
      <g id="Group_16-2" data-name="Group 16" transform="translate(232.7 26.792)">
        <path id="Path_362-2" data-name="Path 362" d="M233.415,81.764V80.2h8.428l-6.671,14.4H241.5v1.564h-8.8l6.716-14.4Z" transform="translate(-232.7 -79.813)" fill="#fff"/>
        <path id="Path_363-2" data-name="Path 363" d="M325.527,85.969a8.414,8.414,0,1,1-8.533-8.369A8.292,8.292,0,0,1,325.527,85.969Zm-15.159.06a6.747,6.747,0,1,0,6.716-6.895A6.766,6.766,0,0,0,310.368,86.028Z" transform="translate(-297.383 -77.6)" fill="#fff"/>
        <path id="Path_364-2" data-name="Path 364" d="M432.4,81.764V80.2h8.756v1.564H437.6v14.4H436v-14.4Z" transform="translate(-402.663 -79.813)" fill="#fff"/>
        <path id="Path_365-2" data-name="Path 365" d="M485.637,80.2l7.446,15.963H491.37l-2.517-5.242h-6.895l-2.487,5.242H477.7L485.265,80.2Zm-.208,3.38-2.755,5.778h5.465Z" transform="translate(-441.217 -79.813)" fill="#fff"/>
        <path id="Path_366-2" data-name="Path 366" d="M590.1,80.2h3.693a11.439,11.439,0,0,1,3.693.4,4.163,4.163,0,0,1,.774,7.326c-1.132.715-2.785.8-4.974.8h-1.578v7.431h-1.593V80.2Zm1.593,1.564v5.42c.908.015,1.817,0,2.651,0a4.97,4.97,0,0,0,3.157-.67,2.77,2.77,0,0,0,.938-2.07,2.7,2.7,0,0,0-1-2.085,4.746,4.746,0,0,0-2.919-.6Z" transform="translate(-536.879 -79.813)" fill="#fff"/>
        <path id="Path_367-2" data-name="Path 367" d="M658.537,80.2l7.446,15.963H664.27l-2.517-5.242h-6.895l-2.487,5.242H650.6L658.165,80.2Zm-.208,3.38-2.755,5.778h5.465Z" transform="translate(-588.37 -79.813)" fill="#fff"/>
        <path id="Path_368-2" data-name="Path 368" d="M741.537,88.539,736.4,80.2h1.847l4.095,6.582,4.021-6.582h1.846l-5.063,8.339v7.624h-1.593V88.539Z" transform="translate(-661.394 -79.813)" fill="#fff"/>
      </g>
      <rect id="Rectangle_20-2" data-name="Rectangle 20" width="1.787" height="23.111" transform="translate(256.501 24.291) rotate(26.737)" fill="#fff"/>
      <rect id="Rectangle_21-2" data-name="Rectangle 21" width="1.296" height="10.305" transform="translate(279.445 17.903) rotate(90)" fill="#fff"/>
      <rect id="Rectangle_22-2" data-name="Rectangle 22" width="1.296" height="10.305" transform="translate(279.439 50.329) rotate(90)" fill="#fff"/>
    </g>
  </g>
</svg>
