<svg xmlns="http://www.w3.org/2000/svg" xmlns:xlink="http://www.w3.org/1999/xlink" width="887" height="625" viewBox="0 0 887 625">
  <defs>
    <clipPath id="clip-path">
      <rect id="Rectangle_645" data-name="Rectangle 645" width="887" height="625" transform="translate(1033 80)" fill="#fff" stroke="#707070" stroke-width="1"/>
    </clipPath>
    <linearGradient id="linear-gradient" x1="0.94" y1="0.671" x2="0.259" y2="0.49" gradientUnits="objectBoundingBox">
      <stop offset="0" stop-color="#291a7a"/>
      <stop offset="1" stop-color="#ff0776"/>
    </linearGradient>
  </defs>
  <g id="Mask_Group_867" data-name="Mask Group 867" transform="translate(-1033 -80)" clip-path="url(#clip-path)">
    <path id="Path_2840" data-name="Path 2840" d="M1197.286,403.355c-33.134,108.891-190.445,267.3-390.875,231.239-154.2-13.352-173.132,38.358-241.2,117.457-1.164,1.365-2.328,2.729-3.511,4.095-71.283,82.943-252.386,260.526-416.976,241.3C-29.994,981.525-99.084,846.529-109,716.906c-.121-1.576-.221-3.169-.3-4.747C-114.273,628.053-3.05,462.511,74.882,393.109c47.074-41.911,112.079-65.962,177.987-68.243a383.867,383.867,0,0,0,59.483-6.407c4.356-.843,8.587-1.744,12.71-2.735,84.878-20.162,126.17-70.672,153.061-131.261.632-1.436,1.262-2.872,1.876-4.322,62.024-144.4,73.18-185.168,240.459-209.932C883.889-53.985,991.108,15.969,1057.035,93.6S1230.419,294.463,1197.286,403.355Z" transform="matrix(-0.94, 0.342, -0.342, -0.94, 2569.117, 721.952)" fill="url(#linear-gradient)"/>
  </g>
</svg>
