<svg xmlns="http://www.w3.org/2000/svg" xmlns:xlink="http://www.w3.org/1999/xlink" width="1384.761" height="1248.053" viewBox="0 0 1384.761 1248.053">
  <defs>
    <linearGradient id="linear-gradient" x1="0.94" y1="0.671" x2="-0.027" y2="0.85" gradientUnits="objectBoundingBox">
      <stop offset="0" stop-color="#ff0876"/>
      <stop offset="1" stop-color="#291a7a"/>
    </linearGradient>
  </defs>
  <g id="Group_860" data-name="Group 860" transform="translate(-134.641 294.921)">
    <path id="Path_2147" data-name="Path 2147" d="M1025.211,410.45c-28.2,92.689-74.45,128.587-305.7,109.951-131.26-11.366-185.273,45.262-243.21,112.592-.991,1.161-1.982,2.323-2.989,3.486-60.677,70.6-120.8,141.368-260.9,125C63.692,747.93-23.259,648.116-31.7,537.779c-.1-1.342-.188-2.7-.259-4.041-4.232-71.592,24.544-147.2,90.881-206.279,40.07-35.675,95.4-56.147,151.5-58.089a326.75,326.75,0,0,0,50.632-5.453c3.708-.718,7.309-1.484,10.819-2.328,72.249-17.162,107.4-60.157,130.287-111.731.538-1.222,1.075-2.444,1.6-3.679C456.559,23.264,505.344-41.4,647.734-62.48c139.114-20.594,191.093,68.913,247.21,135S1053.414,317.761,1025.211,410.45Z" transform="translate(558.477 -208.483) rotate(27)" fill="none" stroke="#2f11c7" stroke-width="20"/>
    <path id="Path_2146" data-name="Path 2146" d="M1197.286,403.355c-33.134,108.891-190.445,267.3-390.875,231.239-154.2-13.352-173.132,38.358-241.2,117.457-1.164,1.365-2.328,2.729-3.511,4.095-71.283,82.943-252.386,260.526-416.976,241.3C-29.994,981.525-99.084,846.529-109,716.906c-.121-1.576-.221-3.169-.3-4.747C-114.273,628.053-3.05,462.511,74.882,393.109c47.074-41.911,112.079-65.962,177.987-68.243a383.867,383.867,0,0,0,59.483-6.407c4.356-.843,8.587-1.744,12.71-2.735,84.878-20.162,126.17-70.672,153.061-131.261.632-1.436,1.262-2.872,1.876-4.322,62.024-144.4,73.18-185.168,240.459-209.932C883.889-53.985,991.108,15.969,1057.035,93.6S1230.419,294.463,1197.286,403.355Z" transform="translate(1338.286 799.709) rotate(-177)" fill="url(#linear-gradient)"/>
  </g>
</svg>
