<svg xmlns="http://www.w3.org/2000/svg" xmlns:xlink="http://www.w3.org/1999/xlink" width="1384.772" height="1284.366" viewBox="0 0 1384.772 1284.366">
  <defs>
    <linearGradient id="linear-gradient" x1="0.338" y1="0.922" x2="0.484" y2="-0.02" gradientUnits="objectBoundingBox">
      <stop offset="0" stop-color="#291a7a"/>
      <stop offset="1" stop-color="#ff0776"/>
    </linearGradient>
    <clipPath id="clip-path">
      <rect id="Rectangle_535" data-name="Rectangle 535" width="620.266" height="375.685" fill="none"/>
    </clipPath>
    <linearGradient id="linear-gradient-2" x1="0.5" y1="0" x2="0.5" y2="1" xlink:href="#linear-gradient"/>
    <clipPath id="clip-path-2">
      <path id="Path_2557" data-name="Path 2557" d="M386.2,0c-26.971,0-51.857,20.535-56.653,46.748-4.583,25.048-4,163.706-2.591,196.928,1.231,28.984-4.055,51.166-14.879,62.46-6.461,6.741-15.267,10.018-26.921,10.018-27.981,0-40.826-21.861-40.922-42.174l0-.729c-.166-35.727-.354-76.22-23.186-96.673-10.353-9.277-23.7-13.125-39.663-11.44-20.007,2.111-35.133,12.451-43.743,29.9-6.562,13.3-8.364,28.52-9.811,40.75-.649,5.475-1.628,13.749-2.736,15.961-3,5.35-4.811,7-9.22,8.393-7.529,2.382-20.863,2.875-41.96,1.551-34.351-2.154-51.716-.6-52.438-.528v32.253c.156-.015,18.973-.874,50.379,1.1,25.968,1.627,42.1.726,53.935-3.017,15.762-4.986,22.99-14.756,27.984-23.657,4.277-7.624,5.405-17.152,6.711-28.185,3.473-29.33,7.673-40.056,24.349-41.816,8.553-.9,12.239,1.412,14.271,3.231,11.956,10.712,12.122,46.327,12.242,72.333l0,.73c.093,19.771,7.1,38.233,19.745,51.983,13.587,14.781,32.787,22.922,54.061,22.922,20.8,0,37.849-6.779,50.662-20.148,9.568-9.981,16.4-23.438,20.294-39.994,3.192-13.561,4.436-29.243,3.7-46.615-1.644-38.728-1.478-170.146,2.085-189.614,1.928-10.539,13.286-19.782,24.305-19.782,12.437,0,16.955,3.329,19.733,6.585,4.236,4.966,9.285,16.422,9.28,42.807-.008,47.118,1.122,110.024,4.332,132.243,2.157,14.918,15.515,21.193,23.286,23.606,7.333,2.278,16.43,3.522,27.806,3.805a264.921,264.921,0,0,0,35.547-1.794l-4.149-32.623a241.9,241.9,0,0,1-24.439,1.581c-15.613.177-22.95-1.61-25.932-2.688-2.161-19.46-3.577-68.075-3.567-124.124.006-29.641-5.6-50.627-17.148-64.158C420.542,5.929,405.9,0,386.2,0Z" transform="translate(-21.474)" fill="none"/>
    </clipPath>
    <clipPath id="clip-path-3">
      <rect id="Rectangle_536" data-name="Rectangle 536" width="81.25" height="120.264" fill="none"/>
    </clipPath>
  </defs>
  <g id="image-road" transform="translate(-789.5 -4648.837)">
    <g id="Group_758" data-name="Group 758" transform="translate(789.5 4648.837)">
      <g id="Group_1100" data-name="Group 1100" transform="translate(0 0)">
        <path id="Path_2341" data-name="Path 2341" d="M1157.208,603.366c-25.63,118.982-74.409,163.009-329.843,125.307C682.332,706.248,626.216,776.8,566.408,861.051c-1.022,1.454-2.045,2.908-3.084,4.362-62.632,88.35-124.641,176.946-279.689,147.5C119.265,986.629,17.823,851.677,2.126,707.6c-.191-1.752-.364-3.521-.52-5.273-8.819-93.413,18.435-190.138,87.963-263.158,42-44.1,101.668-67.52,163.26-66.784a296.853,296.853,0,0,0,55.373-4.152c4.037-.718,7.953-1.507,11.764-2.4,78.468-18.133,114.627-72.04,136.8-137.825.52-1.559,1.04-3.118,1.542-4.7C509.233,66.425,517.66,21.816,673.047,2.666c151.814-18.71,255.66,64.088,321.227,153.349S1182.838,484.383,1157.208,603.366Z" transform="matrix(0.966, 0.259, -0.259, 0.966, 263.652, 0)" fill="url(#linear-gradient)"/>
      </g>
    </g>
    <g id="Group_863" data-name="Group 863" transform="translate(960.378 4841.341)">
      <g id="Group_859" data-name="Group 859" transform="translate(0 0)">
        <g id="Group_856" data-name="Group 856" transform="translate(0 120.264)">
          <g id="Group_855" data-name="Group 855" transform="translate(63.319)">
            <g id="Group_852" data-name="Group 852">
              <g id="Group_851" data-name="Group 851" clip-path="url(#clip-path)">
                <path id="Path_2552" data-name="Path 2552" d="M609.678,203.476v71.566s61.3-35.783,61.609-35.783Z" transform="translate(-51.021 -17.028)" fill="#e6e6e6"/>
                <path id="Path_2553" data-name="Path 2553" d="M283.358,349.038c-21.275,0-40.474-8.141-54.061-22.922-12.641-13.75-19.653-32.212-19.744-51.983l0-.73c-.12-26.006-.286-61.621-12.242-72.333-2.031-1.819-5.717-4.134-14.27-3.231-16.677,1.76-20.877,12.487-24.349,41.816-1.307,11.032-2.435,20.561-6.712,28.186-4.993,8.9-12.223,18.671-27.983,23.656-11.837,3.743-27.967,4.646-53.936,3.017-31.4-1.969-69.719.071-69.719.071L0,260.284c.723-.067,37.765-.744,72.115,1.41,21.1,1.324,34.431.831,41.96-1.55,4.409-1.4,6.219-3.042,9.221-8.393,1.107-2.212,2.087-10.487,2.734-15.963,1.448-12.229,3.25-27.449,9.813-40.749,8.61-17.451,23.735-27.791,43.742-29.9,15.967-1.684,29.31,2.164,39.663,11.44,22.832,20.452,23.02,60.947,23.186,96.673l0,.729c.1,20.313,12.942,42.174,40.922,42.174,11.654,0,20.46-3.277,26.921-10.017,10.825-11.294,16.11-33.477,14.878-62.46-1.41-33.223-1.991-171.88,2.591-196.928C332.546,20.535,357.433,0,384.4,0h0c19.7,0,34.342,5.929,44.747,18.125,11.545,13.53,17.154,34.517,17.15,64.158-.011,56.049,1.406,104.664,3.566,124.125,2.982,1.077,10.318,2.864,25.931,2.688,12.909-.14,82.589-.951,82.7-.966l1.544,33.983c-.717.091-73.451.261-91.205-.182-11.377-.282-20.472-1.527-27.806-3.8-7.771-2.414-21.129-8.689-23.286-23.607-3.211-22.219-4.341-85.124-4.332-132.242,0-26.385-5.043-37.842-9.281-42.807-2.777-3.257-7.295-6.586-19.732-6.586-11.02,0-22.376,9.244-24.306,19.782-3.562,19.468-3.729,150.886-2.083,189.614.736,17.372-.509,33.055-3.7,46.615-3.9,16.557-10.725,30.013-20.293,39.994-12.813,13.369-29.859,20.148-50.662,20.148" fill="#e6e6e6"/>
                <path id="Path_2554" data-name="Path 2554" d="M303.743,333.441l-2.849-7.738c15.214-5.6,24.642-14.484,29.675-27.962l7.726,2.885c-5.937,15.9-16.915,26.325-34.552,32.815m-47.438-4.165c-12.6-8.32-22.83-22.391-28.069-38.6l7.847-2.535c4.673,14.464,13.7,26.951,24.767,34.258ZM67.153,285.4l-45.811-.6.109-8.247,45.811.6Zm46.687-1.477-1.952-8.012c10.056-2.452,16.4-7.454,21.907-17.267,1.613-2.873,2.568-8.022,3.148-11.646l8.143,1.3c-1.107,6.935-2.334,11.236-4.1,14.381-6.662,11.875-14.781,18.229-27.148,21.244m229.968-29.992-8.247-.031c.039-11.078.151-26.962.322-45.936l8.247.075c-.171,18.959-.283,34.826-.323,45.892m-119.6-9.8c-.991-19.434-3.514-33.229-7.94-43.417l7.563-3.285c4.833,11.121,7.57,25.828,8.613,46.281Zm280.261-15.555c-2.59,0-5.182-.014-7.757-.042l.091-8.247c2.629.029,5.268.031,7.918.042,11.476,0,24.165-.254,37.718-.753l.3,8.242c-13.654.5-26.446.758-38.021.758Zm-54.111-3.27c-1.352-.243-2.645-.5-3.84-.775-11.47-2.6-17.457-19.835-18.129-24.478-.7-4.867-1.295-9.854-1.809-15.245l8.209-.783c.5,5.257,1.078,10.114,1.763,14.848.539,3.725,5.728,16.243,11.788,17.615,1.078.245,2.249.481,3.481.7ZM153.713,204.294l-7.655-3.068c6.86-17.12,19-26.713,36.095-28.518q.83-.088,1.646-.15l.63,8.223q-.7.054-1.409.128c-14.2,1.5-23.513,8.929-29.306,23.384m190.893-42.133-8.247-.094c.2-16.945.393-32.389.59-45.9l8.247.12c-.2,13.506-.395,28.941-.59,45.877m79.579-23.383c-.246-11.046-.367-23.243-.367-37.288v-.522c0-2.769-.02-5.469-.06-8.021L432,92.815c.042,2.6.062,5.34.062,8.153v.522c0,13.982.12,26.119.366,37.1ZM346.065,70.43l-8.243-.268.064-1.813c.6-15.436,5.89-31.717,14.157-43.561l6.762,4.72c-7.4,10.6-12.14,25.237-12.678,39.152ZM419.01,48.49C414.5,31.468,406.542,21.7,393.959,17.749l2.469-7.868c15.331,4.814,25.324,16.752,30.553,36.5Z" transform="translate(-1.786 -0.827)" fill="url(#linear-gradient-2)"/>
              </g>
            </g>
            <g id="Group_854" data-name="Group 854" transform="translate(19.677)">
              <g id="Group_853" data-name="Group 853" clip-path="url(#clip-path-2)">
                <path id="Path_2555" data-name="Path 2555" d="M439.363,3.129C427.524,1.7,415.434,6.911,407.35,15.678S395.61,38.429,393.68,50.2s-.245,22.277.131,34.2l45.552,152.991,56.531,30.808,43.285-17.115c-17.909-2.306-36.928-4.8-48.282-18.837-8.428-10.425-7.5-23.017-8.428-33.048,0,0,6.876-29.722,6.432-28.835s1.552-76.077,1.552-76.077l-.444-42.142L476.924,18.2S440.665,3.287,439.363,3.129" transform="translate(-52.546 -0.242)" fill="#291a7a"/>
                <path id="Path_2556" data-name="Path 2556" d="M346.6,358.87c-12.135,9.481-48.117,4.2-61.588-3.258-17.263-9.562-22.166-25.462-27.046-57.352l2.607-3.585,1.335-37.354-5.107-43.4-19-21.552c-4.68-5.07-17.852-8.9-28.95-4.929-6.5,2.324-13.984,8.332-18.326,13.694-8.555,10.563-9.283,22.527-12.484,35.738h19.124L186.01,267.8l-1.328,52.323,98.272,71.111s70.385-26.224,71.447-26.646-7.8-5.716-7.8-5.716" transform="translate(-34.576 -15.548)" fill="#291a7a"/>
              </g>
            </g>
          </g>
          <circle id="Ellipse_133" data-name="Ellipse 133" cx="36.744" cy="36.744" r="36.744" transform="translate(0 240.839)" fill="#fff"/>
          <path id="Path_2558" data-name="Path 2558" d="M200.089,458.521,181.7,440.133a3.2,3.2,0,0,1,4.519-4.519l13.563,13.563,43.282-49.356a3.2,3.2,0,1,1,4.8,4.213Z" transform="translate(-163.192 -169.875)" fill="#1473e6" stroke="#1473e6" stroke-width="5"/>
        </g>
        <g id="Group_858" data-name="Group 858" transform="translate(433.431 0)">
          <g id="Mask_Group_857" data-name="Mask Group 857" transform="translate(0 0)" clip-path="url(#clip-path-3)">
            <path id="Path_2559" data-name="Path 2559" d="M8.94,13.978,75.02,30.652a3.584,3.584,0,0,1,.614,6.736L9.453,67.668A3.587,3.587,0,0,1,4.374,64.4l.1-46.952A3.585,3.585,0,0,1,8.94,13.978" transform="translate(3.521 11.161)" fill="#c2b9ed"/>
            <line id="Line_1" data-name="Line 1" x1="0.244" y2="111.797" transform="translate(7.798 8.461)" fill="none" stroke="#1028a7" stroke-width="3"/>
            <path id="Path_2560" data-name="Path 2560" d="M16,10.113A8.124,8.124,0,1,1,10.114.248,8.125,8.125,0,0,1,16,10.113" transform="translate(0 -0.001)" fill="#2f11c7"/>
          </g>
        </g>
      </g>
      <path id="Path_2562" data-name="Path 2562" d="M210.276,1090.083a44.714,44.714,0,0,0-15.172,2.623c-6.213-17.739-21.646-30.3-39.708-30.3-20.075,0-36.907,15.524-41.429,36.427a27.476,27.476,0,0,0-11.207-2.4c-16.711,0-30.26,15.156-30.26,33.854H252.9c0-22.2-19.085-40.207-42.627-40.207" transform="translate(26.398 -937.637)" fill="#c2b9ed"/>
      <path id="Path_2563" data-name="Path 2563" d="M148.523,1077.677a24.669,24.669,0,0,0-8.372,1.448c-3.428-9.788-11.944-16.72-21.91-16.72-11.077,0-20.365,8.566-22.86,20.1a15.155,15.155,0,0,0-6.184-1.322c-9.221,0-16.7,8.363-16.7,18.68h99.543c0-12.252-10.531-22.185-23.521-22.185" transform="translate(182.056 -1011.377)" fill="#c2b9ed"/>
    </g>
  </g>
</svg>
