<?xml version="1.0" encoding="UTF-8"?>
<svg width="20px" height="14px" viewBox="0 0 20 14" version="1.1" xmlns="http://www.w3.org/2000/svg" xmlns:xlink="http://www.w3.org/1999/xlink">
    <!-- Generator: Sketch 63.1 (92452) - https://sketch.com -->
    <title>logo-youtube</title>
    <desc>Created with Sketch.</desc>
    <g id="Style-Guide" stroke="none" stroke-width="1" fill="none" fill-rule="evenodd">
        <g id="logo-youtube" fill="#0E2C43" fill-rule="nonzero">
            <path d="M19.8333333,3.26666667 C19.8333333,3.26666667 19.6666667,1.94444444 19,1.4 C18.25,0.622222222 17.4166667,0.622222222 17,0.622222222 C14.1666667,0.466666667 10,0.466666667 10,0.466666667 L10,0.466666667 C10,0.466666667 5.83333333,0.466666667 3,0.622222222 C2.58333333,0.7 1.75,0.7 1,1.4 C0.416666667,1.94444444 0.166666667,3.26666667 0.166666667,3.26666667 C0.166666667,3.26666667 0,4.74444444 0,6.3 L0,7.7 C0,9.17777778 0.166666667,10.7333333 0.166666667,10.7333333 C0.166666667,10.7333333 0.333333333,12.0555556 1,12.6 C1.75,13.3777778 2.75,13.3 3.16666667,13.3777778 C4.75,13.5333333 10,13.5333333 10,13.5333333 C10,13.5333333 14.1666667,13.5333333 17,13.3 C17.4166667,13.2222222 18.25,13.2222222 19,12.5222222 C19.5833333,11.9777778 19.8333333,10.6555556 19.8333333,10.6555556 C19.8333333,10.6555556 20,9.17777778 20,7.62222222 L20,6.22222222 C20,4.74444444 19.8333333,3.26666667 19.8333333,3.26666667 Z M7.91666667,9.41111111 L7.91666667,4.2 L13.3333333,6.84444444 L7.91666667,9.41111111 Z" id="Shape"></path>
        </g>
    </g>
</svg>