<?xml version="1.0" encoding="UTF-8"?>
<svg width="18px" height="14px" viewBox="0 0 18 14" version="1.1" xmlns="http://www.w3.org/2000/svg" xmlns:xlink="http://www.w3.org/1999/xlink">
    <!-- Generator: Sketch 63.1 (92452) - https://sketch.com -->
    <title>logo-twitter</title>
    <desc>Created with Sketch.</desc>
    <g id="Style-Guide" stroke="none" stroke-width="1" fill="none" fill-rule="evenodd">
        <g id="logo-twitter" fill="#0E2C43" fill-rule="nonzero">
            <path d="M18,1.82 C17.325,2.1 16.65,2.31 15.9,2.38 C16.65,1.96 17.25,1.26 17.55,0.49 C16.8,0.91 16.05,1.19 15.225,1.33 C14.55,0.63 13.575,0.21 12.525,0.21 C10.5,0.21 8.85,1.75 8.85,3.64 C8.85,3.92 8.85,4.2 8.925,4.41 C5.775,4.27 3.075,2.87 1.275,0.77 C0.9,1.33 0.75,1.89 0.75,2.52 C0.75,3.71 1.425,4.76 2.4,5.39 C1.8,5.39 1.2,5.25 0.75,4.97 C0.75,4.97 0.75,4.97 0.75,5.04 C0.75,6.72 2.025,8.12 3.675,8.4 C3.375,8.47 3.075,8.54 2.7,8.54 C2.475,8.54 2.25,8.54 2.025,8.47 C2.475,9.87 3.825,10.85 5.475,10.85 C4.2,11.76 2.625,12.32 0.9,12.32 C0.6,12.32 0.3,12.32 1.77635684e-15,12.25 C1.65,13.23 3.6,13.79 5.625,13.79 C12.45,13.79 16.125,8.54 16.125,3.99 C16.125,3.85 16.125,3.71 16.125,3.57 C16.875,3.08 17.475,2.45 18,1.82 Z" id="Path"></path>
        </g>
    </g>
</svg>