<svg xmlns="http://www.w3.org/2000/svg" xmlns:xlink="http://www.w3.org/1999/xlink" width="1920" height="511" viewBox="0 0 1920 511">
  <defs>
    <clipPath id="clip-path">
      <rect id="Rectangle_644" data-name="Rectangle 644" width="1920" height="511" transform="translate(0 16701)" fill="#fff" stroke="#707070" stroke-width="1"/>
    </clipPath>
    <linearGradient id="linear-gradient" x1="1" y1="0.822" x2="0" gradientUnits="objectBoundingBox">
      <stop offset="0" stop-color="#291a7a"/>
      <stop offset="1" stop-color="#ff0776"/>
    </linearGradient>
  </defs>
  <g id="Mask_Group_866" data-name="Mask Group 866" transform="translate(0 -16701)" clip-path="url(#clip-path)">
    <g id="Group_1085" data-name="Group 1085" transform="translate(0 828.624)">
      <path id="Path_2148" data-name="Path 2148" d="M0,0H1920V504.257H0Z" transform="translate(0 15874.68)" fill="url(#linear-gradient)"/>
      <g id="Group_750" data-name="Group 750" transform="translate(14.691 15795.598)">
        <path id="element2" d="M.368,84.32a11.425,11.425,0,0,1,1.667-5.766c.327-.551.33-.825.654-1.1A10,10,0,0,1,6.581,73.58L151.463-.692a9.869,9.869,0,0,1,3.86-.86,6.793,6.793,0,0,1,3.839,1.057l142,73.323a9.41,9.41,0,0,1,3.809,3.795c.318.271.312.818.63,1.089a10.962,10.962,0,0,1,1.221,5.737l-2.886,147.595a11.427,11.427,0,0,1-1.667,5.766c-.327.551-.33.825-.654,1.1a10,10,0,0,1-3.893,3.872L152.836,316.055a9.871,9.871,0,0,1-3.86.86,6.791,6.791,0,0,1-3.839-1.057l-142-73.323A9.411,9.411,0,0,1-.668,238.74c-.318-.271-.312-.818-.63-1.089a10.962,10.962,0,0,1-1.221-5.737Zm287.008,16.571L176.7,157.573l108.49,56.135ZM16.924,214.472,127.6,157.79,19.111,101.654ZM142.871,140.39l2.188-112.818L34.382,84.254Zm21.44-112.737-2.188,112.818L272.8,83.789Zm-2.886,147.595-2.188,112.818,110.678-56.682Zm-21.44,112.737,2.188-112.818L31.5,231.848Z" transform="translate(1175.345 548.159) rotate(7)" fill="#fff" opacity="0.481"/>
        <path id="element1" d="M125.965,223.989c27.947-25.889,65.3-40.189,105.072-40.189a180.207,180.207,0,0,1,20.154,1.233C324.284,194.156,379.1,252.1,379.1,319.9v2.219c-1.344,73.721-67.988,133.636-148.337,133.636-50.789,0-98.891-24.656-125.764-64.352a128.033,128.033,0,0,1-22.3-71.749C82.969,283.9,98.286,249.632,125.965,223.989Zm-18.811,111.2c.269,1.726.806,3.205,1.075,4.931a68.994,68.994,0,0,0,2.418,10.109,48.833,48.833,0,0,0,2.15,5.671c1.075,2.959,2.15,5.917,3.493,8.876a38.77,38.77,0,0,0,2.956,5.671c1.075,1.972,2.15,3.945,3.225,5.671,3.493.247,7.524.493,11.555.493a130.91,130.91,0,0,0,71.481-21.2c-41.921-18.739-71.481-54.736-80.08-96.652-12.361,18.245-19.348,38.957-19.348,60.9A73.219,73.219,0,0,0,107.154,335.188ZM354.919,307.08c-.269-2.959-.537-6.164-1.075-9.123a88.069,88.069,0,0,0-3.493-11.1c-1.075-2.959-1.612-5.917-2.687-8.63-1.612-3.452-3.493-6.9-5.375-10.109a76.1,76.1,0,0,0-4.3-7.89c-2.15-3.205-4.837-6.164-7.256-9.123-1.881-2.219-3.493-4.931-5.643-6.9a92.2,92.2,0,0,0-9.137-8.137c-2.15-1.972-4.3-3.945-6.718-5.917-3.493-2.466-7.256-4.685-11.018-6.9-2.419-1.479-4.568-3.205-7.256-4.438-4.3-2.219-9.137-3.7-13.705-5.424-2.15-.74-4.031-1.726-6.181-2.466a123.274,123.274,0,0,1,11.018,51.038c0,31.067-11.824,61.147-32.785,84.817a150.7,150.7,0,0,0,21.229,1.726,131.012,131.012,0,0,0,85.455-31.067A67.688,67.688,0,0,0,354.919,307.08ZM258.984,261.96a106.094,106.094,0,0,0-16.124-56.216c-2.687-.247-5.375-.493-8.331-.493h-6.449a118.336,118.336,0,0,0-18.811,1.726c-1.344.247-2.956.493-4.3.74l-3.225.74A133.2,133.2,0,0,0,187.5,212.4a37.888,37.888,0,0,0-4.837,1.726c-1.075.493-1.881.74-2.956,1.233a133.833,133.833,0,0,0-15.855,7.89c-1.344.74-2.956,1.726-4.3,2.466a.966.966,0,0,1-.537.247,136.562,136.562,0,0,0-13.974,10.6c1.075,46.353,32.516,86.789,79.543,103.8C246.623,319.408,258.984,291.3,258.984,261.96ZM231.037,434.8c57.776,0,106.953-36.984,120.927-87.529a156.756,156.756,0,0,1-81.424,22.437,149.746,149.746,0,0,1-39.771-5.424A152.96,152.96,0,0,1,139.4,397.568C162.78,420.744,196.1,434.8,231.037,434.8Z" transform="translate(121.502 -183.801)" fill="#fff" opacity="0.481"/>
        <path id="element2-2" data-name="element2" d="M258.811,233.838a11.486,11.486,0,0,1-1.069,5.424c-.238.511-.227.772-.477,1.021a7.658,7.658,0,0,1-2.974,3.519L140.107,308.177a6.572,6.572,0,0,1-3.1.648,5.41,5.41,0,0,1-3.176-1.178L14.643,231.41a9.822,9.822,0,0,1-3.289-3.788c-.272-.272-.295-.794-.567-1.066a12.737,12.737,0,0,1-1.28-5.525L4.5,80.42A11.486,11.486,0,0,1,5.57,75c.239-.511.227-.772.477-1.021a7.657,7.657,0,0,1,2.974-3.519L123.205,6.081a6.572,6.572,0,0,1,3.1-.648,5.41,5.41,0,0,1,3.176,1.179L248.67,82.848a9.824,9.824,0,0,1,3.289,3.788c.272.272.295.794.567,1.066a12.738,12.738,0,0,1,1.28,5.525ZM24.458,205.264l87.23-49.124L20.616,97.783Zm214.4-96.27-87.229,49.124L242.7,216.475Zm-98.787,65.036,3.842,107.481,87.229-49.124ZM128.241,280.577,124.4,173.1,37.169,222.22Zm-5.007-140.611L119.392,32.486,32.163,81.61ZM135.061,33.42,138.9,140.9l87.23-49.124Z" transform="translate(408.404 540.45) rotate(135)" fill="#fff" opacity="0.481"/>
        <path id="element1-2" data-name="element1" d="M43.857,42.891c26.2-25.526,62.052-38.8,100.851-37.3a170.331,170.331,0,0,1,19.712,2.025C236.1,19.734,291.957,81.286,294.741,150.9l.091,2.278c1.716,75.637-60.837,134.638-139.22,131.611-49.547-1.914-97.484-29.039-125.329-70.807-15.037-22.57-23.662-48.43-24.7-74.5C4.373,102.783,17.908,68.174,43.857,42.891ZM30.072,156.346c.333,1.782.918,3.321,1.251,5.1a78.043,78.043,0,0,0,2.774,10.47,55.947,55.947,0,0,0,2.33,5.9c1.17,3.078,2.34,6.156,3.772,9.245A44.614,44.614,0,0,0,43.317,193c1.13,2.066,2.259,4.131,3.379,5.943,3.418.385,7.36.79,11.293.942a115.652,115.652,0,0,0,68.861-19.077C85.185,159.991,54.87,121.92,44.76,78.563a108.044,108.044,0,0,0-16.374,61.8A80.579,80.579,0,0,0,30.072,156.346Zm240.549-19.523c-.384-3.048-.777-6.349-1.423-9.406a100.416,100.416,0,0,0-3.864-11.523c-1.17-3.078-1.816-6.136-2.976-8.961-1.715-3.6-3.691-7.219-5.658-10.581a87.591,87.591,0,0,0-4.518-8.262c-2.229-3.372-4.972-6.511-7.453-9.639-1.926-2.349-3.61-5.194-5.789-7.3a102.987,102.987,0,0,0-9.247-8.7c-2.178-2.106-4.356-4.212-6.8-6.328-3.509-2.663-7.27-5.083-11.032-7.5a74.182,74.182,0,0,0-7.26-4.83c-4.286-2.44-9.065-4.141-13.592-6.085-2.128-.84-4-1.924-6.131-2.764a138.825,138.825,0,0,1,12.844,52.814c1.276,31.9-9.024,62.332-28.5,85.843a143.2,143.2,0,0,0,20.781,2.572c31.2,1.2,60.1-9.052,82.088-28.675A74.984,74.984,0,0,0,270.621,136.824ZM175.18,86.886a120.31,120.31,0,0,0-18.037-58.322c-2.632-.354-5.263-.709-8.147-.82l-2.884-.111L142.7,27.5a107.8,107.8,0,0,0-18.28,1.063c-1.3.2-2.863.395-4.164.6l-3.115.638a117.527,117.527,0,0,0-13.732,3.514,33.158,33.158,0,0,0-4.648,1.59c-1.028.466-1.8.688-2.833,1.154a116.326,116.326,0,0,0-15.143,7.5c-1.28.709-2.813,1.661-4.093,2.369a.844.844,0,0,1-.514.233,119.5,119.5,0,0,0-13.2,10.358c2.952,47.63,35.284,90.329,81.859,109.567C165.48,145.4,176.385,117.009,175.18,86.886ZM155.014,263.281c56.362,2.177,102.817-33.941,114.374-85.307-22.734,14.034-49.936,21.071-78.51,19.968a144.454,144.454,0,0,1-39.021-7.067c-24.064,20.048-54.774,30.994-87.764,30.731C87.851,246.28,120.934,261.964,155.014,263.281Z" transform="matrix(-0.839, 0.545, -0.545, -0.839, 1891.203, 500.035)" fill="#fff" opacity="0.481"/>
      </g>
    </g>
  </g>
</svg>
