<svg xmlns="http://www.w3.org/2000/svg" xmlns:xlink="http://www.w3.org/1999/xlink" width="1024" height="751" viewBox="0 0 1024 751">
  <defs>
    <clipPath id="clip-path">
      <rect id="Rectangle_646" data-name="Rectangle 646" width="1024" height="751" transform="translate(0 17969)" fill="#fff" stroke="#707070" stroke-width="1"/>
    </clipPath>
    <linearGradient id="linear-gradient" x1="1" y1="0.822" x2="0" gradientUnits="objectBoundingBox">
      <stop offset="0" stop-color="#291a7a"/>
      <stop offset="1" stop-color="#ff0776"/>
    </linearGradient>
  </defs>
  <g id="Mask_Group_868" data-name="Mask Group 868" transform="translate(0 -17969)" clip-path="url(#clip-path)">
    <g id="CPA">
      <path id="Path_2737" data-name="Path 2737" d="M0,0H1024V872H0Z" transform="translate(-1.263 17970.059)" fill="url(#linear-gradient)"/>
      <g id="Group_979" data-name="Group 979" transform="translate(-477.263 1107.059)">
        <path id="element2" d="M121.385,426.391a13.044,13.044,0,0,1,1.607-6.258c.321-.6.321-.894.642-1.192a10.167,10.167,0,0,1,3.856-4.172l144.267-79.274a9.1,9.1,0,0,1,3.856-.894,6.5,6.5,0,0,1,3.856,1.192l142.982,81.361a10.168,10.168,0,0,1,3.856,4.172c.321.3.321.894.643,1.192a12.959,12.959,0,0,1,1.285,6.259L426.949,589.41a13.046,13.046,0,0,1-1.606,6.258c-.321.6-.321.894-.643,1.192a10.164,10.164,0,0,1-3.856,4.172L276.577,680.308a9.1,9.1,0,0,1-3.856.894,6.5,6.5,0,0,1-3.856-1.192l-142.982-81.36a10.169,10.169,0,0,1-3.856-4.172c-.321-.3-.321-.894-.643-1.192a12.959,12.959,0,0,1-1.285-6.259Zm287.571,21.159-110.209,60.5,109.245,62.287Zm-269.578,120.7,110.209-60.5L140.342,445.465Zm125.31-79.274.964-122.786-110.209,60.5Zm20.242-122.488-.964,122.786,110.209-60.5Zm-1.285,160.635-.964,122.786,110.209-60.5ZM263.4,649.611l.964-122.786-110.209,60.5Z" transform="translate(951.813 17128.711) rotate(7)" fill="#fff" opacity="0.481"/>
        <path id="element1" d="M125.965,227.6a146.929,146.929,0,0,1,105.072-43.8,165.541,165.541,0,0,1,20.154,1.344C324.284,195.086,379.1,258.237,379.1,332.137v2.419C377.761,414.9,311.117,480.2,230.768,480.2c-50.789,0-98.891-26.873-125.764-70.137A147.663,147.663,0,0,1,125.965,227.6ZM107.154,348.8c.269,1.881.806,3.493,1.075,5.375a80.891,80.891,0,0,0,2.418,11.018,56.282,56.282,0,0,0,2.15,6.181c1.075,3.225,2.15,6.449,3.493,9.674a43.729,43.729,0,0,0,2.956,6.181c1.075,2.15,2.15,4.3,3.225,6.181,3.493.269,7.524.538,11.555.538,26.066,0,50.52-8.331,71.481-23.111a147.421,147.421,0,0,1-80.08-105.341,125.041,125.041,0,0,0-19.348,66.375A86.836,86.836,0,0,0,107.154,348.8Zm247.765-30.635c-.269-3.225-.537-6.718-1.075-9.943a102.373,102.373,0,0,0-3.493-12.093c-1.075-3.225-1.612-6.449-2.687-9.405-1.612-3.762-3.493-7.524-5.375-11.018a85.522,85.522,0,0,0-4.3-8.6c-2.15-3.493-4.837-6.718-7.256-9.943-1.881-2.418-3.493-5.374-5.643-7.524a95.361,95.361,0,0,0-9.137-8.868c-2.15-2.15-4.3-4.3-6.718-6.449-3.493-2.687-7.256-5.106-11.018-7.524-2.419-1.612-4.568-3.493-7.256-4.837-4.3-2.418-9.137-4.031-13.705-5.912-2.15-.806-4.031-1.881-6.181-2.687a144.646,144.646,0,0,1,11.018,55.626,147.049,147.049,0,0,1-32.785,92.442,138.559,138.559,0,0,0,21.229,1.881,124.724,124.724,0,0,0,85.455-33.859A80.184,80.184,0,0,0,354.919,318.163Zm-95.935-49.177a123.424,123.424,0,0,0-16.124-61.269,81.387,81.387,0,0,0-8.331-.537h-6.449a108.863,108.863,0,0,0-18.811,1.881c-1.344.269-2.956.537-4.3.806l-3.225.806a124.69,124.69,0,0,0-14.242,4.3,35.881,35.881,0,0,0-4.837,1.881c-1.075.537-1.881.806-2.956,1.344a129.736,129.736,0,0,0-15.855,8.6c-1.344.806-2.956,1.881-4.3,2.687a.938.938,0,0,1-.537.269,138.415,138.415,0,0,0-13.974,11.555c1.075,50.52,32.516,94.591,79.543,113.134A123.054,123.054,0,0,0,258.984,268.986ZM231.037,457.363c57.776,0,106.953-40.309,120.927-95.4a147.137,147.137,0,0,1-81.424,24.454,138.221,138.221,0,0,1-39.771-5.912A145.53,145.53,0,0,1,139.4,416.785C162.78,442.045,196.1,457.363,231.037,457.363Z" transform="translate(405.299 16621.797)" fill="#fff" opacity="0.481"/>
        <path id="element2-2" data-name="element2" d="M202.2,181.023a9.84,9.84,0,0,1-1.059,4.446c-.212.424-.212.635-.423.847a7.04,7.04,0,0,1-2.541,2.964L103.109,245.6a5.637,5.637,0,0,1-2.541.635,4.069,4.069,0,0,1-2.541-.847l-94.217-57.8a7.041,7.041,0,0,1-2.541-2.964c-.212-.212-.212-.635-.423-.847A9.819,9.819,0,0,1,0,179.33L.847,65.211a9.84,9.84,0,0,1,1.059-4.446c.212-.423.212-.635.423-.847A7.039,7.039,0,0,1,4.87,56.954L99.933.635A5.638,5.638,0,0,1,102.474,0a4.069,4.069,0,0,1,2.541.847l94.217,57.8a7.042,7.042,0,0,1,2.541,2.964c.212.212.212.635.423.847a9.82,9.82,0,0,1,.847,4.446ZM12.7,165.991l72.621-42.98L13.339,78.761ZM190.339,80.243l-72.621,42.98,71.986,44.25Zm-82.572,56.318-.635,87.23,72.621-42.98ZM94.429,223.58l.635-87.23L22.443,179.33Zm.847-114.119.635-87.23L23.29,65.211Zm13.339-87.018-.635,87.23L180.6,66.693Z" transform="translate(595.203 17619.664) rotate(135)" fill="#fff" opacity="0.481"/>
        <path id="element1-2" data-name="element1" d="M125.965,227.6a146.929,146.929,0,0,1,105.072-43.8,165.541,165.541,0,0,1,20.154,1.344C324.284,195.086,379.1,258.237,379.1,332.137v2.419C377.761,414.9,311.117,480.2,230.768,480.2c-50.789,0-98.891-26.873-125.764-70.137A147.663,147.663,0,0,1,125.965,227.6ZM107.154,348.8c.269,1.881.806,3.493,1.075,5.375a80.891,80.891,0,0,0,2.418,11.018,56.282,56.282,0,0,0,2.15,6.181c1.075,3.225,2.15,6.449,3.493,9.674a43.729,43.729,0,0,0,2.956,6.181c1.075,2.15,2.15,4.3,3.225,6.181,3.493.269,7.524.538,11.555.538,26.066,0,50.52-8.331,71.481-23.111a147.421,147.421,0,0,1-80.08-105.341,125.041,125.041,0,0,0-19.348,66.375A86.836,86.836,0,0,0,107.154,348.8Zm247.765-30.635c-.269-3.225-.537-6.718-1.075-9.943a102.373,102.373,0,0,0-3.493-12.093c-1.075-3.225-1.612-6.449-2.687-9.405-1.612-3.762-3.493-7.524-5.375-11.018a85.522,85.522,0,0,0-4.3-8.6c-2.15-3.493-4.837-6.718-7.256-9.943-1.881-2.418-3.493-5.374-5.643-7.524a95.361,95.361,0,0,0-9.137-8.868c-2.15-2.15-4.3-4.3-6.718-6.449-3.493-2.687-7.256-5.106-11.018-7.524-2.419-1.612-4.568-3.493-7.256-4.837-4.3-2.418-9.137-4.031-13.705-5.912-2.15-.806-4.031-1.881-6.181-2.687a144.646,144.646,0,0,1,11.018,55.626,147.049,147.049,0,0,1-32.785,92.442,138.559,138.559,0,0,0,21.229,1.881,124.724,124.724,0,0,0,85.455-33.859A80.184,80.184,0,0,0,354.919,318.163Zm-95.935-49.177a123.424,123.424,0,0,0-16.124-61.269,81.387,81.387,0,0,0-8.331-.537h-6.449a108.863,108.863,0,0,0-18.811,1.881c-1.344.269-2.956.537-4.3.806l-3.225.806a124.69,124.69,0,0,0-14.242,4.3,35.881,35.881,0,0,0-4.837,1.881c-1.075.537-1.881.806-2.956,1.344a129.736,129.736,0,0,0-15.855,8.6c-1.344.806-2.956,1.881-4.3,2.687a.938.938,0,0,1-.537.269,138.415,138.415,0,0,0-13.974,11.555c1.075,50.52,32.516,94.591,79.543,113.134A123.054,123.054,0,0,0,258.984,268.986ZM231.037,457.363c57.776,0,106.953-40.309,120.927-95.4a147.137,147.137,0,0,1-81.424,24.454,138.221,138.221,0,0,1-39.771-5.912A145.53,145.53,0,0,1,139.4,416.785C162.78,442.045,196.1,457.363,231.037,457.363Z" transform="matrix(-0.839, 0.545, -0.545, -0.839, 1896.472, 17393.223)" fill="#fff" opacity="0.481"/>
      </g>
    </g>
  </g>
</svg>
