<svg xmlns="http://www.w3.org/2000/svg" xmlns:xlink="http://www.w3.org/1999/xlink" width="2450.674" height="1620.615" viewBox="0 0 2450.674 1620.615">
  <defs>
    <linearGradient id="linear-gradient" x1="0.5" x2="0.5" y2="1" gradientUnits="objectBoundingBox">
      <stop offset="0" stop-color="#291a7a"/>
      <stop offset="1" stop-color="#ff0776"/>
    </linearGradient>
  </defs>
  <path id="Path_2300" data-name="Path 2300" d="M1602.8,60.619a216.055,216.055,0,0,1-30.016,2.237c-11.785.17-24.908-.256-39.191-1.147-14.962-.933-31.214-2.378-48.552-4.187-18.207-1.9-37.636-4.2-58.059-6.742-21.5-2.673-44.323-5.615-68.351-8.64-25.409-3.2-52.26-6.5-80.471-9.688-30.007-3.391-61.7-6.671-95.067-9.581-35.767-3.12-73.7-5.838-113.878-7.834-27.58-1.363-56.826-2.279-86.642-2.431-31.608-.162-63.983.534-95.671,2.475-33.735,2.067-66.715,5.547-96.98,10.9-32.241,5.7-61.28,13.5-84.554,23.888-23.717,10.59-39.527,22.954-48.694,36.66-9.557,14.289-11.748,29.814-8.387,46.089,3.457,16.741,12.74,34.06,25.67,51.5,13.156,17.747,29.963,35.455,48.1,52.757,13.756,13.14,28.452,26.409,44.87,39.422a470.34,470.34,0,0,0,55.109,37.78,466.155,466.155,0,0,0,68.26,32.7,532.168,532.168,0,0,0,82.117,23.993c20.318,4.252,41.34,7.512,62.524,10.186,20.73,2.617,41.551,4.664,62.037,6.537,20.018,1.831,39.71,3.495,58.751,5.37,18.628,1.834,36.672,3.873,53.891,6.479,57.49,8.706,105.129,23.587,145.745,43.107a426.955,426.955,0,0,1,105.69,72.31c31.522,29.175,59.985,63.556,85.959,101.961,27.257,40.3,52.462,86.059,75.716,135.733,11.472,24.59,22.906,50.473,34.7,77.367,12.241,27.909,24.894,56.955,38.36,86.721,13.992,30.929,28.852,62.609,44.969,94.444,16.721,33.027,34.729,66.09,54.367,98.367a904.86,904.86,0,0,0,66.032,95c24.146,30.145,49.541,57.085,75.582,79.073,26.242,22.157,52.707,38.919,78.618,48.636,25.635,9.614,50.222,12.141,72.936,6.351,21.828-5.561,40.817-18.495,57.069-36.793,15.513-17.467,28.337-39.6,38.77-64.606,9.874-23.661,17.536-49.726,23.351-76.757a685.768,685.768,0,0,0,11.83-77.844,1012.389,1012.389,0,0,0,3.285-141.965c-1.834-41.13-5.85-80.837-11.1-118.4-4.777-34.175-10.6-66.771-16.8-97.295-5.691-28.056-11.726-54.535-17.588-79.074-11.54-48.315-22.631-90.578-33.08-127.792-9.151-32.589-17.962-61.848-26.256-88.17-7.425-23.563-14.524-45.049-21.144-64.619-6.02-17.8-11.7-34.165-16.9-49.164-1.819-5.242-3.587-10.334-5.379-15.323-1.74-4.845-3.506-9.6-5.366-14.3-1.809-4.575-3.709-9.108-5.767-13.642-2-4.414-4.157-8.833-6.522-13.294-1.291-2.431-2.678-4.914-4.224-7.457-1.525-2.508-3.2-5.076-5.1-7.713-1.874-2.6-3.963-5.278-6.328-8.034-2.339-2.725-4.952-5.536-7.9-8.445-3.709-3.658-7.905-7.378-12.357-11.007-4.419-3.6-9.112-7.131-13.854-10.434s-9.536-6.382-14.194-9.106a139.233,139.233,0,0,0-13.426-6.985,85.334,85.334,0,0,0-18.481-6,158.6,158.6,0,0,0-15.849-2.04,115.884,115.884,0,0,1-17.466-2.815,111.38,111.38,0,0,1-23.179-8.867c-5.017-2.521-10.074-5.421-15.085-8.577s-9.959-6.558-14.756-10.079c-4.781-3.509-9.4-7.124-13.788-10.732-4.361-3.585-8.485-7.154-12.318-10.6-8.118-7.3-15.593-14.495-22.823-21.538-7.083-6.9-13.927-13.652-20.959-20.265-6.9-6.492-14.019-12.877-21.8-19.207a315.575,315.575,0,0,0-25.744-18.867c-6.618-4.361-13.658-8.614-20.88-12.65-7.266-4.061-14.765-7.928-22.246-11.481-7.572-3.6-15.171-6.89-22.527-9.748-7.487-2.908-14.762-5.378-21.531-7.258a130.712,130.712,0,0,0-20-4.073c-6.1-.688-11.332-.63-15.275.252-4.056.907-6.748,2.685-7.615,5.409-.89,2.8.147,6.574,3.584,11.388,3.613,5.055,5.5,9.593,5.907,13.638a15.022,15.022,0,0,1-3.136,11c-2.513,3.281-6.429,6.05-11.476,8.29A77.247,77.247,0,0,1,1602.8,60.619Z" fill="url(#linear-gradient)"/>
</svg>
