<svg xmlns="http://www.w3.org/2000/svg" xmlns:xlink="http://www.w3.org/1999/xlink" width="1510.949" height="1607.594" viewBox="0 0 1510.949 1607.594">
  <defs>
    <linearGradient id="linear-gradient" x1="0.5" x2="0.5" y2="1" gradientUnits="objectBoundingBox">
      <stop offset="0" stop-color="#291a7a"/>
      <stop offset="1" stop-color="#ff0776"/>
    </linearGradient>
  </defs>
  <path id="Path_2299" data-name="Path 2299" d="M495.125,512.285a383.765,383.765,0,0,1-14.422,39.55c-6.16,14.655-13.481,30.345-21.725,46.908-8.515,17.108-18.018,35.153-28.245,53.957-10.574,19.441-21.926,39.7-33.769,60.581-12.255,21.609-25.125,44.08-38.357,67.335-13.719,24.11-27.848,49.1-42.118,74.906-14.832,26.822-29.848,54.582-44.758,83.233-15.549,29.88-31.028,60.818-46.12,92.8-10.071,21.354-20.032,43.593-29.246,65.87-9.518,23.012-18.251,46.095-25.466,68.25-7.46,22.907-13.292,44.808-16.667,64.529-3.485,20.367-4.338,38.349-1.657,52.6,2.657,14.1,8.54,23.508,16.92,29.113,8.545,5.716,19.62,7.439,32.416,6.229,12.961-1.225,27.61-5.452,43.11-11.525,15.62-6.121,32.039-14.092,48.436-22.725,12.384-6.513,25.06-13.485,38.01-21.356,12.976-7.886,26.2-16.656,39.62-26.73a453.929,453.929,0,0,0,40.594-34.362,490.167,490.167,0,0,0,40.568-43.714c9.25-11.238,18.25-23.131,27.066-35.335,8.73-12.084,17.265-24.455,25.687-36.8,8.332-12.215,16.549-24.4,24.745-36.281,8.111-11.756,16.207-23.221,24.393-34.141,27.917-37.238,56.01-67.088,84.07-91.141a425.371,425.371,0,0,1,84.7-56.945,411.053,411.053,0,0,1,87.435-32.365,463.747,463.747,0,0,1,90.11-12.837c14.317-.626,28.789-.828,43.486-.976,14.942-.15,30.124-.245,45.6-.672,15.73-.434,31.749-1.212,48.082-2.74a470.528,470.528,0,0,0,50.626-7.384,362.842,362.842,0,0,0,52.809-15.025,336.742,336.742,0,0,0,52.451-24.572,295.224,295.224,0,0,0,48.193-34.713,255.078,255.078,0,0,0,39.828-44.633,250.524,250.524,0,0,0,27.243-50.911,280.329,280.329,0,0,0,14.983-52.406,315.765,315.765,0,0,0,5.125-50.653,345.971,345.971,0,0,0-2.181-46.6,387.336,387.336,0,0,0-17.76-79.932,398.139,398.139,0,0,0-27.9-63.567,477.293,477.293,0,0,0-32.2-50.808c-10.684-14.809-21.641-28.47-32.332-41.2-22.014-26.217-43.229-49.193-63.454-69.547-18.518-18.638-36.342-35.216-53.291-50.148-15.679-13.813-30.7-26.3-44.9-37.75-13.243-10.681-25.834-20.513-37.624-29.719-4.179-3.261-8.268-6.45-12.357-9.5-4-2.981-8-5.83-12.083-8.482a135.412,135.412,0,0,0-12.329-7.164,104.567,104.567,0,0,0-13.038-5.584,62.822,62.822,0,0,0-7.913-2.215,51.984,51.984,0,0,0-8.913-1.058,57.543,57.543,0,0,0-10.26.621,78.045,78.045,0,0,0-11.97,2.8,123.213,123.213,0,0,0-17.513,7.212,198.714,198.714,0,0,0-18.543,10.54c-6.173,3.943-12.277,8.274-18.019,12.808a179.665,179.665,0,0,0-15.957,14.12,157.142,157.142,0,0,0-19.416,23.726c-5.309,7.9-9.719,15.767-14.339,23.781a269.777,269.777,0,0,1-15.941,25.14,177.313,177.313,0,0,1-24.423,27.1,209.3,209.3,0,0,1-17.79,14.414c-6.131,4.45-12.388,8.528-18.626,12.246-6.221,3.708-12.408,7.048-18.425,10.041-5.988,2.978-11.8,5.608-17.306,7.917-11.7,4.9-22.894,8.931-33.837,12.753-10.767,3.761-21.286,7.32-31.864,11.338a327.693,327.693,0,0,0-31.9,13.919,296.167,296.167,0,0,0-34.525,20.568c-8.442,5.806-17.06,12.376-25.587,19.445-8.568,7.1-17.088,14.748-25.276,22.664-8.268,7.993-16.235,16.3-23.6,24.638-7.466,8.455-14.342,16.977-20.3,25.266a209.514,209.514,0,0,0-15.936,25.6c-4.254,8.227-7.225,15.808-8.612,22.227-1.418,6.561-1.179,11.9,1.038,15.454,2.262,3.622,6.574,5.368,13.246,4.638,6.975-.767,12.42.429,16.515,3.235,4.181,2.865,6.973,7.422,8.535,13.307,1.6,6.034,1.915,13.481,1.1,21.945A157.692,157.692,0,0,1,495.125,512.285Z" fill="url(#linear-gradient)"/>
</svg>
