<svg xmlns="http://www.w3.org/2000/svg" xmlns:xlink="http://www.w3.org/1999/xlink" width="1837.51" height="906.88" viewBox="0 0 1837.51 906.88">
  <defs>
    <linearGradient id="linear-gradient" x1="0.5" x2="0.5" y2="1" gradientUnits="objectBoundingBox">
      <stop offset="0" stop-color="#291a7a"/>
      <stop offset="1" stop-color="#ff0776"/>
    </linearGradient>
  </defs>
  <path id="Path_2297" data-name="Path 2297" d="M861.064,701a383.8,383.8,0,0,1,32.265-27.04c12.662-9.612,26.848-19.539,42.268-29.761,15.929-10.558,33.18-21.435,51.44-32.606,18.878-11.549,38.839-23.418,59.535-35.581,21.418-12.586,43.8-25.612,66.885-39.135,23.936-14.021,48.668-28.6,73.928-43.811,26.256-15.812,53.141-32.345,80.378-49.7,28.406-18.1,57.28-37.156,86.339-57.3,19.4-13.458,39.145-27.736,58.263-42.422,19.749-15.17,38.854-30.794,56.179-46.373,17.914-16.108,33.916-32.159,46.7-47.55,13.2-15.9,22.931-31.042,27.736-44.728,4.751-13.543,4.358-24.628-.1-33.673-4.542-9.223-13.272-16.252-24.959-21.6-11.838-5.42-26.637-9.084-43.1-11.574-16.588-2.51-34.793-3.816-53.309-4.538-13.981-.551-28.444-.852-43.6-.511-15.18.341-31.016,1.326-47.677,3.339a453.975,453.975,0,0,0-52.337,9.461,490.165,490.165,0,0,0-56.99,17.574c-13.63,5.108-27.371,10.907-41.108,17.068-13.6,6.1-27.18,12.546-40.646,19.028-13.323,6.413-26.533,12.858-39.57,19.048-12.9,6.126-25.646,12.006-38.2,17.371-42.8,18.291-82.05,30.1-118.377,36.9A425.371,425.371,0,0,1,841.2,279.839a411.057,411.057,0,0,1-91.9-15.689,463.747,463.747,0,0,1-84.456-33.939c-12.712-6.616-25.346-13.677-38.148-20.9-13.015-7.341-26.211-14.85-39.824-22.216-13.84-7.489-28.1-14.825-43.011-21.668a470.56,470.56,0,0,0-47.535-18.918,362.882,362.882,0,0,0-53.246-13.393,336.752,336.752,0,0,0-57.71-4.945,295.236,295.236,0,0,0-59.093,5.966,255.074,255.074,0,0,0-56.808,18.74,250.526,250.526,0,0,0-49.049,30.469,280.328,280.328,0,0,0-39.178,37.894,315.739,315.739,0,0,0-29.765,41.3,345.976,345.976,0,0,0-21.409,41.443,387.352,387.352,0,0,0-24.585,78.1,398.145,398.145,0,0,0-7.619,69,477.272,477.272,0,0,0,2.482,60.1c1.848,18.167,4.506,35.476,7.4,51.847,5.956,33.712,12.842,64.217,20.179,91.957,6.719,25.4,13.865,48.669,21.077,70.075,6.672,19.8,13.438,38.126,20.009,55.143,6.129,15.871,12.117,30.682,17.724,44.549,1.989,4.914,3.936,9.72,5.952,14.405,1.971,4.581,4.011,9.047,6.223,13.387a135.412,135.412,0,0,0,7.1,12.368,104.559,104.559,0,0,0,8.5,11.355,62.814,62.814,0,0,0,5.746,5.875,51.984,51.984,0,0,0,7.19,5.373,57.562,57.562,0,0,0,9.2,4.592,78.074,78.074,0,0,0,11.768,3.557,123.2,123.2,0,0,0,18.773,2.511,198.688,198.688,0,0,0,21.329.144c7.318-.328,14.769-1.027,22.009-2.082A179.749,179.749,0,0,0,331.386,892a157.141,157.141,0,0,0,28.678-10.84c8.549-4.189,16.3-8.795,24.308-13.426a269.772,269.772,0,0,1,26.375-13.8,177.321,177.321,0,0,1,34.7-11.26,209.336,209.336,0,0,1,22.614-3.587c7.535-.788,14.992-1.191,22.253-1.292,7.242-.1,14.269.1,20.977.517,6.674.414,13.021,1.042,18.946,1.8,12.584,1.6,24.293,3.713,35.68,5.874,11.205,2.127,22.094,4.3,33.264,6.112a327.67,327.67,0,0,0,34.586,3.9,296.2,296.2,0,0,0,40.184-.55c10.214-.807,20.962-2.187,31.881-4.046,10.973-1.868,22.172-4.228,33.222-6.99,11.157-2.788,22.209-6,32.756-9.538,10.694-3.589,20.909-7.532,30.209-11.733a209.493,209.493,0,0,0,26.6-14.206c7.8-5,14.161-10.077,18.572-14.943,4.508-4.973,6.973-9.719,6.828-13.9-.148-4.268-3.009-7.936-9.152-10.64-6.424-2.823-10.541-6.582-12.684-11.059-2.188-4.572-2.328-9.914-.738-15.792,1.63-6.026,5.082-12.632,10.024-19.553A157.716,157.716,0,0,1,861.064,701Z" fill="url(#linear-gradient)"/>
</svg>
