<svg xmlns="http://www.w3.org/2000/svg" xmlns:xlink="http://www.w3.org/1999/xlink" width="3207.35" height="1806.364" viewBox="0 0 3207.35 1806.364">
  <defs>
    <linearGradient id="linear-gradient" x1="0.5" x2="0.5" y2="1" gradientUnits="objectBoundingBox">
      <stop offset="0" stop-color="#291a7a"/>
      <stop offset="1" stop-color="#ff0776"/>
    </linearGradient>
  </defs>
  <path id="Path_2302" data-name="Path 2302" d="M418.375,1124.791c21.081,3.262,43.035,7.517,65.855,12.626,23.815,5.331,48.595,11.6,74.337,18.637q40.374,11.043,83.987,24.478,45.7,13.985,95.064,30.038c34.567,11.17,70.872,23.053,109.193,35.489,40.407,13.114,83.186,26.886,128.736,41.153,48.283,15.123,99.9,30.871,155.433,47.077,59.285,17.3,123.41,35.234,193.288,53.639,47.773,12.574,99.6,25.561,154.224,38.308,57.66,13.456,118.638,26.692,181.218,38.877,66.29,12.907,134.4,24.64,201.933,34.139,71.543,10.063,142.162,17.581,208.542,21.26,67.285,3.725,124.716,3.238,173.575-.68,50.723-4.067,91.494-11.773,124.377-22.107,33.722-10.6,58.76-23.836,77.814-38.585a164.594,164.594,0,0,0,42.156-48.11c7.458-12.674,13.62-25.79,16.259-39.465a68.988,68.988,0,0,0-4.958-42.732c-6.677-14.744-19.058-29.925-39.18-45.517-19.9-15.421-47.176-31.088-83.49-46.907-24.727-10.772-53.062-21.346-83.133-31.707-29.494-10.162-60.576-20.09-91.568-29.809-30.356-9.519-60.615-18.834-89.3-28-28.125-8.986-54.788-17.845-78.681-26.657-80.066-29.538-127.932-58.085-152.042-85.989-23.768-27.509-25.331-55.406-9.832-83.606,15.78-28.712,49.706-58.561,97.725-89.155,50.156-31.956,116.829-65.446,195.865-99.7,38.98-16.848,80.964-34.225,124.561-52.171,45.06-18.548,91.9-37.731,138.854-57.531,48.568-20.483,97.206-41.609,143.875-63.284,48.2-22.386,94.132-45.278,135.376-68.474,42.406-23.849,79.03-47.974,106.985-71.537,28.495-24.017,47.675-47.19,54.646-68.535,7.017-21.487,1.561-40.814-18.819-56.966-20.192-16-54.691-28.616-105.058-36.951-48.595-8.044-109.549-11.727-178.61-11.9-66.3-.168-139.332,2.9-215.483,8.338-72.53,5.179-147.429,12.475-221.929,21.124-70.735,8.212-140.942,17.624-208.593,27.614-127.271,18.805-246.515,39.4-357.08,60.634-100.431,19.285-194.075,39.164-280.663,58.83-79.337,18.019-153.126,35.945-221.258,53.2-62.974,15.945-121.452,31.4-175.39,45.921-106.925,28.788-199.314,54.674-279.926,77.973C536.219,648.6,473.248,667.43,417.045,684.639c-50.537,15.474-96.148,29.8-137.532,42.977-37.761,12.02-72.31,23.178-104.058,33.431q-16.669,5.385-32.388,10.534-15.267,5.034-29.608,10.027-13.946,4.887-26.989,9.907-12.7,4.917-24.517,10.119c-4.289,1.9-8.531,3.877-12.621,5.963-4.035,2.058-7.924,4.225-11.566,6.536a85.953,85.953,0,0,0-9.988,7.312,55.2,55.2,0,0,0-7.947,8.306,37.745,37.745,0,0,0-6.151,11.843,34.1,34.1,0,0,0-1.45,12.281,32.566,32.566,0,0,0,3.045,11.748A33.656,33.656,0,0,0,22.81,875.87c5.53,5.161,12.679,8.97,20.691,12.178,8.195,3.281,17.34,5.955,26.566,8.779,9.466,2.9,19.012,5.954,27.607,9.957,8.786,4.092,16.51,9.142,22,15.923a34.576,34.576,0,0,1,6.343,11.852,36.163,36.163,0,0,1,1.416,12.5,49.07,49.07,0,0,1-2.406,12.385A70.755,70.755,0,0,1,120,971.056a199.886,199.886,0,0,1-14.709,22.568c-5.184,7.129-10.436,14.066-14.908,21.02-4.393,6.831-8.053,13.707-10.2,20.873a46.043,46.043,0,0,0-1.183,22.577,55.7,55.7,0,0,0,6.6,16.853,92.2,92.2,0,0,0,12.713,16.844,132.417,132.417,0,0,0,18.207,16,160.859,160.859,0,0,0,23.224,14.13,193.106,193.106,0,0,0,29.1,11.615,189.844,189.844,0,0,0,31.691,6.979,127.084,127.084,0,0,0,30.669.526c9.671-1.144,18.215-3.73,24.823-8.006,6.928-4.49,15.883-7.884,26.41-10.318a209.242,209.242,0,0,1,37.118-4.627,413.4,413.4,0,0,1,46.149.752C382.654,1119.991,400.452,1122.017,418.375,1124.791Z" fill="url(#linear-gradient)"/>
</svg>
