<svg xmlns="http://www.w3.org/2000/svg" xmlns:xlink="http://www.w3.org/1999/xlink" width="2679.857" height="1768.745" viewBox="0 0 2679.857 1768.745">
  <defs>
    <linearGradient id="linear-gradient" x1="0.5" x2="0.5" y2="1" gradientUnits="objectBoundingBox">
      <stop offset="0" stop-color="#291a7a"/>
      <stop offset="1" stop-color="#ff0776"/>
    </linearGradient>
  </defs>
  <path id="Path_2301" data-name="Path 2301" d="M1565.9,73.623a201.75,201.75,0,0,1-32.081,2.466c-12.7.111-26.949-.5-42.516-1.688-16.276-1.237-34.012-3.1-52.951-5.4-19.844-2.409-41.032-5.305-63.277-8.482-23.362-3.336-48.114-6.994-74.087-10.747-27.384-3.957-56.215-8.032-86.338-11.967-31.928-4.17-65.454-8.2-100.463-11.785-37.369-3.826-76.661-7.169-117.84-9.654-28.137-1.689-57.717-2.855-87.539-3.126-31.476-.286-63.331.425-94.01,2.579-32.493,2.281-63.677,6.183-91.524,12.224-29.5,6.4-55.141,15.173-74.374,26.869C629.409,66.777,618.045,80.63,613.41,95.98c-4.811,15.934-2.305,33.257,5.631,51.421,8.138,18.625,21.892,37.918,39.072,57.357C675.56,224.5,696.4,244.23,718.346,263.515c16.632,14.63,34.172,29.409,53.254,43.938A663.025,663.025,0,0,0,834,349.787a590.664,590.664,0,0,0,73.6,37.222,593.592,593.592,0,0,0,84.917,28.351c20.672,5.223,41.819,9.406,63.026,12.969,20.8,3.495,41.6,6.384,62.085,9.08,20.064,2.641,39.814,5.1,59.02,7.767,18.831,2.617,37.173,5.444,54.863,8.867,59.3,11.48,110.4,29.429,155.57,52.241,44.531,22.49,84.938,50.531,122.179,82.839,37.915,32.894,73.634,71.154,107.444,113.439,35.311,44.161,69.335,93.709,101.844,146.893,15.964,26.179,32.052,53.591,48.615,81.953,17.117,29.31,34.766,59.677,53.278,90.693,19.148,32.081,39.2,64.831,60.459,97.679,21.951,33.923,45.1,67.831,69.682,100.96a1220.971,1220.971,0,0,0,80.054,97.483c28.441,31.007,57.637,59,86.789,82.315,29.346,23.468,58.229,41.859,85.712,53.575,27.231,11.608,52.623,16.464,75.237,13.306,21.822-3.045,40-13.38,54.869-29.158,14.274-15.15,25.328-35.148,33.643-58.28,7.921-22.036,13.307-46.777,16.666-72.807a597.981,597.981,0,0,0,4.528-76.359c-.047-48.6-4.371-97.175-11.443-144.4-6.426-42.9-15.144-84.849-25.054-124.95-9.082-36.749-19.206-72.122-29.561-105.5-9.573-30.856-19.393-60.171-28.838-87.489-18.726-54.161-36.365-102-52.782-144.475-14.47-37.438-28.209-71.273-41.049-101.884q-17.32-41.291-32.67-75.8c-9.289-21.042-18.018-40.457-26.04-58.3-2.81-6.247-5.542-12.321-8.291-18.279-2.671-5.791-5.359-11.479-8.152-17.117-2.717-5.487-5.535-10.932-8.534-16.386-2.922-5.314-6.018-10.641-9.364-16.028-1.826-2.937-3.77-5.94-5.905-9.02-2.106-3.039-4.4-6.154-6.953-9.359-2.521-3.165-5.3-6.421-8.4-9.783-3.072-3.325-6.47-6.76-10.269-10.323-4.776-4.48-10.119-9.049-15.739-13.513-5.581-4.433-11.462-8.784-17.366-12.865s-11.833-7.893-17.552-11.275c-5.735-3.391-11.276-6.357-16.344-8.7a106.092,106.092,0,0,0-21.908-7.6,179.827,179.827,0,0,0-18.262-2.769,133.063,133.063,0,0,1-20.175-3.727,141.128,141.128,0,0,1-27.572-11.117c-6.064-3.13-12.235-6.717-18.4-10.611s-12.3-8.085-18.282-12.416c-5.966-4.317-11.768-8.761-17.312-13.193-5.51-4.4-10.754-8.787-15.652-13.019-10.375-8.965-20.017-17.8-29.362-26.446-9.161-8.479-18.032-16.779-27.094-24.915-8.9-7.992-18.021-15.858-27.88-23.668-9.746-7.72-20.3-15.45-32.24-23.306-8.2-5.393-16.843-10.656-25.65-15.654-8.859-5.028-17.936-9.817-26.93-14.22-9.1-4.455-18.169-8.537-26.879-12.079-8.86-3.6-17.394-6.666-25.246-9a145.745,145.745,0,0,0-22.868-5.065c-6.857-.862-12.593-.8-16.743.268-4.266,1.1-6.853,3.275-7.241,6.611-.4,3.421,1.516,8.05,6.273,13.952,5,6.194,7.986,11.742,9.263,16.678a18.159,18.159,0,0,1-1.189,13.369c-2.078,3.97-5.788,7.3-10.838,9.985A66.734,66.734,0,0,1,1565.9,73.623Z" fill="url(#linear-gradient)"/>
</svg>
