<svg xmlns="http://www.w3.org/2000/svg" xmlns:xlink="http://www.w3.org/1999/xlink" width="1062" height="743" viewBox="0 0 1062 743">
  <defs>
    <linearGradient id="linear-gradient" x1="0.338" y1="0.922" x2="0.484" y2="-0.02" gradientUnits="objectBoundingBox">
      <stop offset="0" stop-color="#291a7a"/>
      <stop offset="1" stop-color="#ff0776"/>
    </linearGradient>
    <clipPath id="clip-path">
      <rect id="Rectangle_451" data-name="Rectangle 451" width="1062" height="743" transform="translate(858 4732)" stroke="#707070" stroke-width="1" fill="url(#linear-gradient)"/>
    </clipPath>
    <clipPath id="clip-path-2">
      <rect id="Rectangle_535" data-name="Rectangle 535" width="676.914" height="409.995" fill="none"/>
    </clipPath>
    <linearGradient id="linear-gradient-3" x1="0.5" y1="0" x2="0.5" y2="1" xlink:href="#linear-gradient"/>
    <clipPath id="clip-path-3">
      <path id="Path_2557" data-name="Path 2557" d="M419.509,0c-29.434,0-56.593,22.41-61.827,51.017-5,27.336-4.367,178.657-2.828,214.913,1.343,31.631-4.425,55.839-16.238,68.164-7.051,7.357-16.661,10.933-29.38,10.933-30.536,0-44.555-23.858-44.659-46.026l0-.8c-.181-38.99-.386-83.181-25.3-105.5-11.3-10.124-25.86-14.324-43.285-12.485-21.834,2.3-38.342,13.588-47.738,32.633-7.161,14.515-9.128,31.125-10.707,44.472-.708,5.975-1.777,15.005-2.986,17.419-3.275,5.839-5.25,7.637-10.062,9.159-8.217,2.6-22.768,3.138-45.792,1.693-37.488-2.351-56.439-.65-57.227-.576v35.2c.17-.016,20.706-.954,54.98,1.2,28.34,1.776,45.944.792,58.861-3.293,17.2-5.441,25.09-16.1,30.54-25.818,4.668-8.32,5.9-18.719,7.324-30.759,3.79-32.009,8.374-43.714,26.573-45.635,9.334-.985,13.357,1.541,15.574,3.526,13.048,11.69,13.229,50.558,13.36,78.939l0,.8c.1,21.577,7.753,41.725,21.548,56.731,14.828,16.131,35.781,25.015,59,25.015,22.7,0,41.306-7.4,55.289-21.988,10.442-10.893,17.893-25.579,22.147-43.647,3.483-14.8,4.841-31.914,4.037-50.872-1.794-42.265-1.613-185.685,2.275-206.931,2.1-11.5,14.5-21.589,26.525-21.589,13.573,0,18.5,3.633,21.535,7.186C445.667,48.493,451.177,61,451.172,89.79c-.009,51.421,1.224,120.072,4.728,144.32,2.354,16.28,16.932,23.129,25.413,25.762,8,2.486,17.93,3.844,30.345,4.153a289.11,289.11,0,0,0,38.793-1.958l-4.528-35.6a264,264,0,0,1-26.671,1.725c-17.039.193-25.046-1.757-28.3-2.933-2.358-21.237-3.9-74.292-3.893-135.46.007-32.348-6.115-55.251-18.714-70.017C456.988,6.471,441.014,0,419.511,0Z" fill="none"/>
    </clipPath>
    <clipPath id="clip-path-4">
      <rect id="Rectangle_536" data-name="Rectangle 536" width="88.67" height="131.247" fill="none"/>
    </clipPath>
  </defs>
  <g id="Group_1083" data-name="Group 1083" transform="translate(-858 -4779)">
    <g id="Group_758" data-name="Group 758" transform="translate(0 47)">
      <g id="Mask_Group_4" data-name="Mask Group 4" clip-path="url(#clip-path)">
        <path id="Path_2341" data-name="Path 2341" d="M1532.715,906.669c-27.971,129.848-81.2,177.9-359.967,136.751-158.279-24.473-219.519,52.523-284.79,144.468-1.116,1.587-2.231,3.174-3.366,4.761-68.352,96.419-136.024,193.106-305.232,160.966-179.381-28.679-290.087-175.956-307.218-333.193-.209-1.912-.4-3.843-.568-5.755-9.624-101.944,20.118-207.5,96-287.192,45.833-48.123,110.953-73.686,178.171-72.883a323.965,323.965,0,0,0,60.43-4.531c4.406-.784,8.679-1.644,12.839-2.619,85.635-19.789,125.1-78.619,149.3-150.412.568-1.7,1.135-3.4,1.683-5.124,55.571-171.214,64.768-219.9,234.346-240.8,165.678-20.418,279.009,69.941,350.564,167.354S1560.686,776.82,1532.715,906.669Z" transform="matrix(0.966, 0.259, -0.259, 0.966, 880.841, 4292.26)" fill="url(#linear-gradient)"/>
      </g>
    </g>
    <g id="Group_863" data-name="Group 863">
      <g id="Group_859" data-name="Group 859">
        <g id="Group_856" data-name="Group 856">
          <g id="Group_855" data-name="Group 855" transform="translate(1045.086 4990.169)">
            <g id="Group_852" data-name="Group 852">
              <g id="Group_851" data-name="Group 851" clip-path="url(#clip-path-2)">
                <path id="Path_2552" data-name="Path 2552" d="M609.678,203.476v78.1s66.9-39.051,67.235-39.051Z" fill="#e6e6e6"/>
                <path id="Path_2553" data-name="Path 2553" d="M309.236,380.915c-23.218,0-44.17-8.884-59-25.015-13.8-15.006-21.448-35.154-21.547-56.731l0-.8c-.131-28.381-.312-67.249-13.36-78.939-2.217-1.985-6.239-4.511-15.573-3.526-18.2,1.921-22.784,13.627-26.573,45.635-1.426,12.04-2.657,22.439-7.325,30.76-5.449,9.713-13.339,20.376-30.539,25.817-12.918,4.085-30.521,5.07-58.862,3.293-34.273-2.149-76.086.077-76.086.077L0,284.055c.789-.073,41.214-.812,78.7,1.539,23.025,1.445,37.576.907,45.792-1.692,4.812-1.523,6.787-3.32,10.063-9.159,1.208-2.414,2.278-11.445,2.984-17.421,1.58-13.346,3.547-29.956,10.709-44.471,9.4-19.045,25.9-30.329,47.737-32.633,17.425-1.838,31.987,2.362,43.285,12.485,24.917,22.32,25.122,66.513,25.3,105.5l0,.8c.1,22.168,14.124,46.026,44.659,46.026,12.718,0,22.329-3.576,29.38-10.932,11.814-12.326,17.581-36.534,16.237-68.164-1.539-36.257-2.173-187.577,2.828-214.913C362.917,22.41,390.076,0,419.508,0h0c21.5,0,37.478,6.471,48.834,19.78,12.6,14.766,18.721,37.669,18.716,70.017-.012,61.168,1.534,114.223,3.892,135.461,3.254,1.175,11.26,3.126,28.3,2.933,14.088-.153,90.132-1.038,90.257-1.054l1.685,37.087c-.783.1-80.159.285-99.535-.2-12.416-.308-22.342-1.667-30.345-4.152-8.481-2.634-23.059-9.483-25.413-25.763-3.5-24.248-4.737-92.9-4.728-144.319,0-28.8-5.5-41.3-10.129-46.716-3.031-3.554-7.961-7.187-21.534-7.187-12.026,0-24.42,10.088-26.526,21.589-3.887,21.246-4.069,164.666-2.273,206.931.8,18.958-.555,36.074-4.039,50.872-4.254,18.069-11.7,32.754-22.146,43.647-13.983,14.59-32.586,21.988-55.289,21.988" fill="#e6e6e6"/>
                <path id="Path_2554" data-name="Path 2554" d="M329.534,362.991l-3.109-8.445c16.6-6.111,26.893-15.807,32.385-30.516l8.432,3.149c-6.479,17.349-18.46,28.729-37.708,35.812m-51.77-4.545c-13.75-9.08-24.915-24.436-30.632-42.13l8.564-2.767c5.1,15.785,14.951,29.412,27.029,37.387ZM71.337,310.564,21.342,309.9l.119-9,50,.659Zm50.951-1.612-2.13-8.744c10.974-2.676,17.9-8.135,23.908-18.844,1.76-3.135,2.8-8.755,3.435-12.71l8.887,1.42c-1.208,7.568-2.547,12.262-4.473,15.694-7.27,12.96-16.131,19.894-29.627,23.184m250.97-32.731-9-.034c.043-12.09.165-29.424.352-50.131l9,.082c-.187,20.69-.309,38.007-.352,50.083m-130.528-10.7c-1.081-21.209-3.835-36.264-8.665-47.382l8.254-3.585c5.274,12.137,8.261,28.187,9.4,50.508Zm305.857-16.976c-2.827,0-5.655-.015-8.465-.046l.1-9c2.869.032,5.749.034,8.641.046,12.524,0,26.372-.277,41.163-.822l.332,8.995c-14.9.548-28.861.827-41.493.827Zm-59.053-3.569c-1.476-.265-2.886-.55-4.191-.846-12.518-2.835-19.051-21.646-19.785-26.714-.766-5.312-1.413-10.754-1.974-16.637l8.959-.855c.548,5.737,1.177,11.038,1.924,16.2.588,4.065,6.251,17.726,12.864,19.224,1.177.267,2.454.525,3.8.767ZM165.8,222.049l-8.354-3.348c7.486-18.683,20.738-29.153,39.391-31.122q.906-.1,1.8-.164l.687,8.974q-.761.058-1.538.14c-15.5,1.636-25.66,9.745-31.982,25.52m208.327-45.981-9-.1c.213-18.493.429-35.347.644-50.095l9,.131c-.215,14.739-.431,31.584-.644,50.067m86.847-25.518c-.269-12.055-.4-25.366-.4-40.693v-.57c0-3.022-.022-5.968-.066-8.754l9-.144c.046,2.834.068,5.828.068,8.9v.57c0,15.259.131,28.5.4,40.491ZM375.721,75.96l-9-.293.07-1.979c.652-16.846,6.428-34.614,15.45-47.539l7.38,5.151c-8.076,11.569-13.249,27.542-13.836,42.728Zm79.607-23.944c-4.92-18.576-13.607-29.236-27.339-33.548l2.695-8.587c16.731,5.254,27.637,18.282,33.343,39.831Z" fill="url(#linear-gradient-3)"/>
              </g>
            </g>
            <g id="Group_854" data-name="Group 854">
              <g id="Group_853" data-name="Group 853" clip-path="url(#clip-path-3)">
                <path id="Path_2555" data-name="Path 2555" d="M443.618,3.151C430.7,1.588,417.5,7.278,408.682,16.845s-12.813,24.829-14.919,37.672-.267,24.311.143,37.319L443.618,258.8l61.694,33.622,47.238-18.678c-19.545-2.517-40.3-5.233-52.691-20.557-9.2-11.377-8.183-25.119-9.2-36.066,0,0,7.5-32.436,7.02-31.468s1.694-83.025,1.694-83.025l-.484-45.991L484.61,19.6S445.039,3.323,443.618,3.151" fill="#291a7a"/>
                <path id="Path_2556" data-name="Path 2556" d="M361.992,374.677c-13.243,10.347-52.511,4.587-67.213-3.556-18.84-10.435-24.19-27.787-29.516-62.59l2.845-3.912,1.457-40.765-5.573-47.366-20.732-23.52c-5.107-5.533-19.482-9.712-31.594-5.379-7.09,2.536-15.261,9.093-20,14.945-9.336,11.528-10.131,24.584-13.624,39h20.87l-12.174,33.752-1.449,57.1,107.247,77.6s76.813-28.619,77.972-29.08-8.516-6.238-8.516-6.238" fill="#291a7a"/>
              </g>
            </g>
          </g>
          <circle id="Ellipse_133" data-name="Ellipse 133" cx="40.1" cy="40.1" r="40.1" transform="translate(975.984 5253.003)" fill="#fff"/>
          <path id="Path_2558" data-name="Path 2558" d="M201.854,463.981l-20.067-20.067a3.487,3.487,0,0,1,4.932-4.932l14.8,14.8,47.234-53.864a3.487,3.487,0,1,1,5.243,4.6Z" transform="translate(814.397 4841.195)" fill="#1473e6" stroke="#1473e6" stroke-width="5"/>
        </g>
        <g id="Group_858" data-name="Group 858" transform="translate(1449 4858.921)">
          <g id="Mask_Group_857" data-name="Mask Group 857" transform="translate(0 0)" clip-path="url(#clip-path-4)">
            <path id="Path_2559" data-name="Path 2559" d="M9.357,13.988l72.115,18.2a3.912,3.912,0,0,1,.67,7.351L9.917,72.581a3.915,3.915,0,0,1-5.543-3.567l.112-51.24a3.912,3.912,0,0,1,4.871-3.786" transform="translate(4.241 13.447)" fill="#c2b9ed"/>
            <line id="Line_1" data-name="Line 1" x1="0.266" y2="122.008" transform="translate(8.51 9.234)" fill="none" stroke="#1028a7" stroke-width="3"/>
            <path id="Path_2560" data-name="Path 2560" d="M17.465,11.037A8.866,8.866,0,1,1,11.038.271a8.867,8.867,0,0,1,6.427,10.766" transform="translate(0 -0.002)" fill="#2f11c7"/>
          </g>
        </g>
      </g>
      <path id="Path_2562" data-name="Path 2562" d="M222.859,1092.61a48.793,48.793,0,0,0-16.558,2.863c-6.78-19.359-23.623-33.069-43.334-33.069-21.909,0-40.278,16.942-45.213,39.754a29.979,29.979,0,0,0-12.23-2.614c-18.237,0-33.023,16.541-33.023,36.945H269.379c0-24.232-20.828-43.879-46.52-43.879" transform="translate(1011.415 3932.68)" fill="#c2b9ed"/>
      <path id="Path_2563" data-name="Path 2563" d="M155.466,1079.071a26.921,26.921,0,0,0-9.136,1.58c-3.741-10.682-13.035-18.247-23.911-18.247-12.089,0-22.225,9.348-24.948,21.936a16.543,16.543,0,0,0-6.749-1.443c-10.063,0-18.222,9.127-18.222,20.386H181.135c0-13.371-11.493-24.212-25.669-24.212" transform="translate(1181.288 3852.205)" fill="#c2b9ed"/>
    </g>
  </g>
</svg>
