<svg xmlns="http://www.w3.org/2000/svg" xmlns:xlink="http://www.w3.org/1999/xlink" width="490" height="364" viewBox="0 0 490 364">
  <defs>
    <clipPath id="clip-path">
      <rect id="Rectangle_643" data-name="Rectangle 643" width="490" height="364" transform="translate(902.687 1762.881)" fill="#fff" stroke="#707070" stroke-width="1"/>
    </clipPath>
    <linearGradient id="linear-gradient" x1="0.5" x2="0.5" y2="1" gradientUnits="objectBoundingBox">
      <stop offset="0" stop-color="#291a7a"/>
      <stop offset="1" stop-color="#ff0776"/>
    </linearGradient>
    <clipPath id="clip-path-2">
      <rect id="Rectangle_642" data-name="Rectangle 642" width="384.612" height="369.867" fill="none"/>
    </clipPath>
    <clipPath id="clip-path-3">
      <path id="Path_2796" data-name="Path 2796" d="M333.916,180.31l.575,105.3a12.319,12.319,0,0,0,11.23,12.2l156.172,13.86a12.319,12.319,0,0,0,13.36-11.183L524.8,192.905q.045-.5.049-1v-.2a12.321,12.321,0,0,0-11.465-12.175l-166.3-11.573c-.292-.02-.582-.03-.87-.03a12.321,12.321,0,0,0-12.3,12.387" transform="translate(-333.916 -167.923)" fill="none"/>
    </clipPath>
    <clipPath id="clip-path-5">
      <rect id="Rectangle_606" data-name="Rectangle 606" width="173.618" height="121.029" fill="none"/>
    </clipPath>
    <clipPath id="clip-path-6">
      <path id="Path_2798" data-name="Path 2798" d="M469.287,345.2a1.542,1.542,0,0,0,1.421,1.675l84.629,6.334a1.543,1.543,0,0,0,1.653-1.4l.121-1.361a1.543,1.543,0,0,0-1.447-1.677l-84.75-4.973-.092,0a1.543,1.543,0,0,0-1.535,1.407" transform="translate(-469.28 -343.798)" fill="none"/>
    </clipPath>
    <linearGradient id="linear-gradient-2" x1="-3.543" y1="3.401" x2="-3.536" y2="3.401" gradientUnits="objectBoundingBox">
      <stop offset="0" stop-color="#a737d5"/>
      <stop offset="1" stop-color="#ef497a"/>
    </linearGradient>
    <clipPath id="clip-path-7">
      <path id="Path_2799" data-name="Path 2799" d="M468.164,357.423l-.052.579a1.543,1.543,0,0,0,1.4,1.673l84.526,7.5a1.542,1.542,0,0,0,1.673-1.4l.052-.58a1.543,1.543,0,0,0-1.4-1.673l-84.525-7.5c-.047,0-.093-.006-.139-.006a1.543,1.543,0,0,0-1.534,1.407" transform="translate(-468.106 -356.016)" fill="none"/>
    </clipPath>
    <linearGradient id="linear-gradient-3" x1="-3.49" y1="3.197" x2="-3.483" y2="3.197" xlink:href="#linear-gradient-2"/>
    <clipPath id="clip-path-8">
      <path id="Path_2800" data-name="Path 2800" d="M511.257,374.412l-.022.255a1.543,1.543,0,0,0,1.4,1.673l58.871,5.225a1.543,1.543,0,0,0,1.673-1.4l.107-1.2a1.544,1.544,0,0,0-1.425-1.676l-58.954-4.282c-.038,0-.075,0-.113,0a1.544,1.544,0,0,0-1.536,1.407" transform="translate(-511.228 -373.005)" fill="none"/>
    </clipPath>
    <linearGradient id="linear-gradient-4" x1="-5.311" y1="4.053" x2="-5.301" y2="4.053" xlink:href="#linear-gradient-2"/>
    <clipPath id="clip-path-9">
      <path id="Path_2802" data-name="Path 2802" d="M243.065,97.169l9.107,123.473a14.484,14.484,0,0,0,14.151,13.416l184.306,3.752a14.485,14.485,0,0,0,14.777-14.187l2.584-126.966a14.485,14.485,0,0,0-14.462-14.779l-196-.258h-.02a14.485,14.485,0,0,0-14.445,15.55" transform="translate(-243.025 -81.619)" fill="none"/>
    </clipPath>
    <clipPath id="clip-path-11">
      <rect id="Rectangle_611" data-name="Rectangle 611" width="203.176" height="132.643" fill="none"/>
    </clipPath>
    <clipPath id="clip-path-12">
      <path id="Path_2804" data-name="Path 2804" d="M516.07,276.981l-99.813.953a1.814,1.814,0,0,0,.005,3.628l99.78.653a1.815,1.815,0,0,0,1.826-1.777l.032-1.607a1.814,1.814,0,0,0-1.813-1.85h-.018" transform="translate(-414.46 -276.981)" fill="#291a7a"/>
    </clipPath>
    <clipPath id="clip-path-13">
      <path id="Path_2805" data-name="Path 2805" d="M414.157,294.82l-.013.684a1.814,1.814,0,0,0,1.777,1.851l99.752,2.03a1.814,1.814,0,0,0,1.85-1.777l.014-.684a1.814,1.814,0,0,0-1.777-1.851l-99.752-2.031h-.038a1.815,1.815,0,0,0-1.814,1.778" transform="translate(-414.143 -293.042)" fill="#291a7a"/>
    </clipPath>
    <clipPath id="clip-path-14">
      <path id="Path_2806" data-name="Path 2806" d="M466.049,311.3l-.006.3a1.814,1.814,0,0,0,1.777,1.851l69.475,1.414a1.815,1.815,0,0,0,1.851-1.777l.029-1.412a1.815,1.815,0,0,0-1.806-1.851l-69.5-.3h-.008a1.814,1.814,0,0,0-1.814,1.777" transform="translate(-466.042 -309.523)" fill="#291a7a"/>
    </clipPath>
    <clipPath id="clip-path-15">
      <path id="Path_2808" data-name="Path 2808" d="M388.08,9.994,176.637,17.437a16.066,16.066,0,0,0-15.689,17.571l8.562,128.744a16.067,16.067,0,0,0,16,14.558H389.974a16.066,16.066,0,0,0,16.065-16.066L404.451,26.057A16.065,16.065,0,0,0,388.392,9.991c-.1,0-.208,0-.312,0" transform="translate(-160.876 -9.991)" fill="none"/>
    </clipPath>
    <linearGradient id="linear-gradient-5" x1="0.275" y1="0.635" x2="1.037" y2="0.609" xlink:href="#linear-gradient"/>
    <clipPath id="clip-path-17">
      <rect id="Rectangle_616" data-name="Rectangle 616" width="225.256" height="147.15" fill="none"/>
    </clipPath>
    <clipPath id="clip-path-18">
      <path id="Path_2810" data-name="Path 2810" d="M464.155,50.87,353.49,54.18a2.012,2.012,0,0,0,.088,4.024l110.665-1.528a2.012,2.012,0,0,0,1.985-2.012V52.881a2.012,2.012,0,0,0-2.011-2.012h-.062" transform="translate(-351.538 -50.869)" fill="#f4f4f4"/>
    </clipPath>
    <clipPath id="clip-path-19">
      <path id="Rectangle_620" data-name="Rectangle 620" d="M2.391,0H112.3a2.391,2.391,0,0,1,2.391,2.391v0A2.392,2.392,0,0,1,112.3,4.783H2.391A2.391,2.391,0,0,1,0,2.392v0A2.391,2.391,0,0,1,2.391,0Z" fill="#f4f4f4"/>
    </clipPath>
    <clipPath id="clip-path-20">
      <path id="Path_2811" data-name="Path 2811" d="M488.5,87.551l-77.076,1.233a2.012,2.012,0,0,0-1.98,2.012v.333a2.013,2.013,0,0,0,2.012,2.013h77.076a2.013,2.013,0,0,0,2.013-2.013V89.562a2.013,2.013,0,0,0-2.011-2.012H488.5" transform="translate(-409.448 -87.55)" fill="#f4f4f4"/>
    </clipPath>
    <clipPath id="clip-path-21">
      <path id="Path_2812" data-name="Path 2812" d="M270.627,94.476S231.594,128.7,226.75,132.939a.87.87,0,1,0,1.145,1.31c4.468-3.908,38.028-33.334,43.208-37.876l45.553,54.648a.87.87,0,0,0,1.182.144l32.748-23.985,33.22,26.987a.869.869,0,0,0,1.121-.02l18.314-16.006a.87.87,0,1,0-1.145-1.31l-17.761,15.522-33.172-26.948a.868.868,0,0,0-1.063-.027l-32.631,23.9-45.6-54.706a.868.868,0,0,0-.6-.31l-.068,0a.869.869,0,0,0-.574.216" transform="translate(-226.453 -94.26)" fill="none"/>
    </clipPath>
    <linearGradient id="linear-gradient-6" x1="-0.74" y1="5.244" x2="-0.737" y2="5.244" gradientUnits="objectBoundingBox">
      <stop offset="0" stop-color="#53d8ff"/>
      <stop offset="1" stop-color="#3840f7"/>
    </linearGradient>
    <clipPath id="clip-path-22">
      <path id="Path_2813" data-name="Path 2813" d="M303.781,189.524v1.741a.58.58,0,1,0,1.16,0v-1.741a.58.58,0,1,0-1.16,0m0-5.8v1.74a.58.58,0,1,0,1.16,0v-1.74a.58.58,0,1,0-1.16,0m0-5.8v1.74a.58.58,0,1,0,1.16,0v-1.74a.58.58,0,0,0-1.16,0m0-5.8v1.739a.58.58,0,1,0,1.16,0v-1.739a.58.58,0,1,0-1.16,0m0-5.8v1.739a.58.58,0,1,0,1.16,0v-1.739a.58.58,0,1,0-1.16,0m0-5.8v1.739a.58.58,0,1,0,1.16,0v-1.739a.58.58,0,1,0-1.16,0m0-5.8v1.74a.58.58,0,0,0,1.16,0v-1.74a.58.58,0,1,0-1.16,0m0-5.8v1.741a.58.58,0,1,0,1.16,0v-1.741a.58.58,0,1,0-1.16,0m0-5.8v1.741a.58.58,0,1,0,1.16,0v-1.741a.58.58,0,1,0-1.16,0m0-5.8v1.741a.58.58,0,1,0,1.16,0v-1.741a.58.58,0,1,0-1.16,0m0-5.8v1.74a.58.58,0,1,0,1.16,0v-1.74a.58.58,0,1,0-1.16,0m0-5.8v1.74a.58.58,0,1,0,1.16,0v-1.74a.58.58,0,0,0-1.16,0m0-5.8v1.739a.58.58,0,1,0,1.16,0v-1.739a.58.58,0,1,0-1.16,0m0-5.8v1.739a.58.58,0,1,0,1.16,0v-1.739a.58.58,0,1,0-1.16,0" transform="translate(-303.781 -113.542)" fill="none"/>
    </clipPath>
    <linearGradient id="linear-gradient-7" x1="-151.891" y1="3.883" x2="-151.391" y2="3.883" xlink:href="#linear-gradient-6"/>
    <clipPath id="clip-path-23">
      <path id="Path_2814" data-name="Path 2814" d="M382.124,224.962v1.74a.58.58,0,1,0,1.16,0v-1.74a.58.58,0,0,0-1.16,0m0-5.8v1.74a.58.58,0,0,0,1.16,0v-1.74a.58.58,0,1,0-1.16,0m0-5.8v1.74a.58.58,0,1,0,1.16,0v-1.74a.58.58,0,1,0-1.16,0m0-5.8v1.74a.58.58,0,1,0,1.16,0v-1.74a.58.58,0,1,0-1.16,0m0-5.8V203.5a.58.58,0,1,0,1.16,0V201.76a.58.58,0,1,0-1.16,0m0-5.8V197.7a.58.58,0,0,0,1.16,0V195.96a.58.58,0,1,0-1.16,0" transform="translate(-382.124 -195.38)" fill="none"/>
    </clipPath>
    <linearGradient id="linear-gradient-8" x1="-191.062" y1="8.042" x2="-190.562" y2="8.042" xlink:href="#linear-gradient-6"/>
    <clipPath id="clip-path-24">
      <path id="Path_2815" data-name="Path 2815" d="M440.952,209.521a.581.581,0,0,0-.562.6l.055,1.739a.579.579,0,0,0,.579.561h.019a.58.58,0,0,0,.561-.6l-.054-1.739a.563.563,0,0,0-.553-.564l-.045,0m-.18-5.8a.58.58,0,0,0-.561.6l.054,1.739a.58.58,0,0,0,.579.563h.018a.58.58,0,0,0,.561-.6l-.053-1.739a.579.579,0,0,0-.574-.562h-.024m-.179-5.8a.58.58,0,0,0-.563.6l.054,1.739a.581.581,0,0,0,.579.562h.019a.58.58,0,0,0,.562-.6l-.054-1.739a.579.579,0,0,0-.568-.563h-.029m-.181-5.8a.58.58,0,0,0-.562.6l.054,1.739a.58.58,0,0,0,.579.562h.019a.579.579,0,0,0,.561-.6l-.054-1.739a.568.568,0,0,0-.563-.563h-.035m-.179-5.8a.58.58,0,0,0-.562.6l.054,1.739a.58.58,0,0,0,.579.561h.019a.58.58,0,0,0,.562-.6l-.054-1.739a.568.568,0,0,0-.557-.563l-.041,0m-.18-5.8a.58.58,0,0,0-.562.6l.053,1.739a.581.581,0,0,0,.579.562h.019a.58.58,0,0,0,.562-.6l-.054-1.739a.579.579,0,0,0-.555-.564l-.042,0m-.18-5.8a.58.58,0,0,0-.562.6l.054,1.739a.58.58,0,0,0,.579.562h.018a.581.581,0,0,0,.562-.6l-.054-1.739a.585.585,0,0,0-.573-.562h-.024m-.18-5.8a.58.58,0,0,0-.561.6l.053,1.739a.58.58,0,0,0,.579.562h.019a.58.58,0,0,0,.561-.6l-.054-1.739a.575.575,0,0,0-.567-.563h-.031m-.18-5.8a.58.58,0,0,0-.562.6l.055,1.739a.58.58,0,0,0,.579.562h.018a.58.58,0,0,0,.562-.6l-.055-1.739a.563.563,0,0,0-.56-.563h-.037m-.18-5.8a.579.579,0,0,0-.561.6l.053,1.739a.58.58,0,0,0,.579.561h.019a.58.58,0,0,0,.561-.6l-.054-1.739a.565.565,0,0,0-.556-.563l-.042,0" transform="translate(-438.772 -157.343)" fill="none"/>
    </clipPath>
    <linearGradient id="linear-gradient-9" x1="-89.214" y1="5.058" x2="-89.011" y2="5.058" xlink:href="#linear-gradient-6"/>
    <clipPath id="clip-path-25">
      <path id="Path_2816" data-name="Path 2816" d="M498.435,222.871v1.739a.58.58,0,0,0,1.16,0v-1.739a.58.58,0,0,0-1.16,0m0-5.8v1.74a.58.58,0,0,0,1.16,0v-1.74a.58.58,0,0,0-1.16,0m0-5.8v1.74a.58.58,0,0,0,1.16,0v-1.74a.58.58,0,0,0-1.16,0m0-5.8v1.74a.58.58,0,0,0,1.16,0v-1.74a.58.58,0,0,0-1.16,0m0-5.8v1.74a.58.58,0,1,0,1.16,0v-1.74a.58.58,0,1,0-1.16,0" transform="translate(-498.435 -199.09)" fill="none"/>
    </clipPath>
    <linearGradient id="linear-gradient-10" x1="-249.217" y1="9.746" x2="-248.717" y2="9.746" xlink:href="#linear-gradient-6"/>
    <clipPath id="clip-path-26">
      <path id="Path_2817" data-name="Path 2817" d="M204.43,71.514a.87.87,0,0,0-.793.94l9.349,110.411a.871.871,0,0,0,.867.8c.024,0,.049,0,.074,0a.87.87,0,0,0,.794-.941L205.371,72.308a.866.866,0,0,0-.861-.8c-.026,0-.053,0-.079,0" transform="translate(-203.634 -71.511)" fill="#ff0076"/>
    </clipPath>
    <clipPath id="clip-path-27">
      <path id="Path_2818" data-name="Path 2818" d="M200.206,72.783l.211,2.5,2.691-3.19,3.188,2.692-.211-2.5L202.9,69.6Z" transform="translate(-200.206 -69.595)" fill="#ff0076"/>
    </clipPath>
    <clipPath id="clip-path-28">
      <path id="Path_2819" data-name="Path 2819" d="M208.515,252.985a.87.87,0,1,0,0,1.74H400.077a.87.87,0,1,0,0-1.74Z" transform="translate(-207.644 -252.985)" fill="#ff0076"/>
    </clipPath>
    <clipPath id="clip-path-29">
      <path id="Path_2820" data-name="Path 2820" d="M533.438,249.4l2.952,2.95-2.952,2.95h2.505l2.95-2.95-2.95-2.95Z" transform="translate(-533.438 -249.399)" fill="#ff0076"/>
    </clipPath>
    <clipPath id="clip-path-30">
      <path id="Path_2821" data-name="Path 2821" d="M230.793,109.992c-.541,4.509,3.511,4.87,3.511,4.87l29.138-10.98-2.336-4.894Z" transform="translate(-230.743 -98.988)" fill="none"/>
    </clipPath>
    <linearGradient id="linear-gradient-11" x1="-3.85" y1="9.224" x2="-3.833" y2="9.224" xlink:href="#linear-gradient-6"/>
    <clipPath id="clip-path-31">
      <path id="Path_2822" data-name="Path 2822" d="M282.979,98.161c-.893,2.705,2.336,4.894,2.336,4.894l5.5-3.89a11.019,11.019,0,0,1-.58-2.145Z" transform="translate(-282.823 -97.02)" fill="none"/>
    </clipPath>
    <linearGradient id="linear-gradient-12" x1="-15.802" y1="29.96" x2="-15.746" y2="29.96" gradientUnits="objectBoundingBox">
      <stop offset="0" stop-color="#fdf53f"/>
      <stop offset="1" stop-color="#d93c65"/>
    </linearGradient>
    <clipPath id="clip-path-32">
      <path id="Path_2823" data-name="Path 2823" d="M295.6,96.49a11.021,11.021,0,0,0,.58,2.145l4.063-2.876Z" transform="translate(-295.597 -95.759)" fill="none"/>
    </clipPath>
    <linearGradient id="linear-gradient-13" x1="-33.469" y1="58.098" x2="-33.355" y2="58.098" xlink:href="#linear-gradient-6"/>
    <clipPath id="clip-path-33">
      <path id="Path_2824" data-name="Path 2824" d="M66.577,357.6A82.833,82.833,0,0,0,84.8,373.808l2.255,5.06,7.224-8.659s-12.963-6.45-17.734-19.9a42.9,42.9,0,0,1-9.972,7.29" transform="translate(-66.577 -350.309)" fill="none"/>
    </clipPath>
    <linearGradient id="linear-gradient-14" x1="-1.394" y1="5.837" x2="-1.373" y2="5.837" gradientUnits="objectBoundingBox">
      <stop offset="0" stop-color="#f9b776"/>
      <stop offset="1" stop-color="#f47960"/>
    </linearGradient>
    <clipPath id="clip-path-34">
      <path id="Path_2826" data-name="Path 2826" d="M104.881,381.508s-6.367,10.5-6.387,12.915q-.014,1.7-.01,3.43h41.452c-2.083-10.413-3.644-16.345-3.644-16.345Z" transform="translate(-98.484 -381.508)" fill="#e5e1f9"/>
    </clipPath>
    <clipPath id="clip-path-35">
      <path id="Path_2827" data-name="Path 2827" d="M128.227,205.913c-15.708,2.96-43.913,6.618-55.25,8.047a13.885,13.885,0,0,0-8.775,4.71c-8.91,10.312-28.463,38.542-5.449,66.989a42.9,42.9,0,0,0,9.972-7.29c-2.546-7.177-2.755-16.349,2.582-27.6a26.226,26.226,0,0,0,.682,2.642,163.692,163.692,0,0,1,7.731,47.157,1.475,1.475,0,0,0,.925,1.379c9.679,3.879,28.311,1.57,34.566.639a2.1,2.1,0,0,0,1.76-2.387c-3.069-22.239,12.684-58.823,16.845-67.985a6.067,6.067,0,0,1,3.022-3.024c23.794-10.764,34.138-27.333,38.332-42.26-3.627-4.871-9.25-7-13.171-7.917-6.3,11.726-16.757,23.691-33.771,26.9" transform="translate(-47.948 -179.015)" fill="#011638"/>
    </clipPath>
    <clipPath id="clip-path-36">
      <path id="Path_2828" data-name="Path 2828" d="M253.459,134.443a87.752,87.752,0,0,1-8.88,25.853c3.921.921,9.543,3.046,13.171,7.917a72.241,72.241,0,0,0,1.13-33.77Z" transform="translate(-244.579 -134.443)" fill="none"/>
    </clipPath>
    <linearGradient id="linear-gradient-15" x1="-3.462" y1="8.489" x2="-3.447" y2="8.489" xlink:href="#linear-gradient-14"/>
    <clipPath id="clip-path-37">
      <path id="Path_2829" data-name="Path 2829" d="M253.184,107.737C250.5,113.3,258.755,124,258.755,124h2.383l5.079-13.427a5.49,5.49,0,0,0,.13-3.5l-1.289-4.363s-.244-.014-.663-.014c-2.158,0-8.967.38-11.212,5.042" transform="translate(-252.648 -102.695)" fill="none"/>
    </clipPath>
    <linearGradient id="linear-gradient-16" x1="-5.203" y1="12.241" x2="-5.182" y2="12.241" xlink:href="#linear-gradient-14"/>
    <clipPath id="clip-path-38">
      <path id="Path_2830" data-name="Path 2830" d="M118.591,201.988l-1.865,19.059s10.722,3.23,18.52-2.273l-5.482-17.322Z" transform="translate(-116.726 -201.453)" fill="none"/>
    </clipPath>
    <linearGradient id="linear-gradient-17" x1="-2.414" y1="10.919" x2="-2.392" y2="10.919" xlink:href="#linear-gradient-14"/>
    <clipPath id="clip-path-39">
      <path id="Path_2831" data-name="Path 2831" d="M116.947,172.991l13.017,18.293,12.051-5.818s-10.633-20.88-10.89-21.123a2.9,2.9,0,0,0-2.063-.8c-4.789,0-12.115,9.45-12.115,9.45" transform="translate(-116.947 -163.541)" fill="none"/>
    </clipPath>
    <linearGradient id="linear-gradient-18" x1="-2.237" y1="8.777" x2="-2.217" y2="8.777" xlink:href="#linear-gradient-14"/>
    <clipPath id="clip-path-40">
      <path id="Path_2832" data-name="Path 2832" d="M119.359,149.531a4.923,4.923,0,0,0-2.749,5.641,1.866,1.866,0,0,1-1.51,2.191,1.271,1.271,0,0,0-.992.782,2,2,0,0,1-2.094,1.164,6,6,0,0,0-6.493,3.178c-1.6,3.1.08,5.013,1.63,6.033a1.924,1.924,0,0,1,.6,2.613c-2.216,3.526.206,5.609,1.6,6.445a1.932,1.932,0,0,0,1.535.2c1.368-.393,4.405-1.011,6.051.628,1.771,1.764,6.961,8.813,8.8,11.335a1.92,1.92,0,0,0,1.817.773,53.333,53.333,0,0,0,11.543-3.368A1.912,1.912,0,0,0,140.2,184.8a71.726,71.726,0,0,0-4.114-9.757,1.921,1.921,0,0,0-2.593-.854c-1.621.843-3.134,2.886-4.747,5.134-1.893,2.637-4.341.7-5.057.035a1.909,1.909,0,0,1-.329-.411l-6.01-10.019a1.926,1.926,0,0,1-.145-1.688c.593-1.533,2.066-4.464,4.752-4.805,3.657-.463,9.471-3.243,8.312-7.175-.908-3.085-3.906-6.615-7.666-6.615a6.685,6.685,0,0,0-3.246.883" transform="translate(-104.872 -148.648)" fill="none"/>
    </clipPath>
    <linearGradient id="linear-gradient-19" x1="-0.905" y1="5.242" x2="-0.895" y2="5.242" gradientUnits="objectBoundingBox">
      <stop offset="0" stop-color="#2b3582"/>
      <stop offset="1" stop-color="#150e42"/>
    </linearGradient>
    <clipPath id="clip-path-41">
      <path id="Path_2833" data-name="Path 2833" d="M117.924,195.06c-2.96.249-5.289,3.2-1.622,6.511,4.562,4.123,6.894.006,6.894.006s-2.23-6.523-5.112-6.523c-.053,0-.106,0-.16.006" transform="translate(-114.423 -195.054)" fill="none"/>
    </clipPath>
    <linearGradient id="linear-gradient-20" x1="-5.846" y1="23.182" x2="-5.793" y2="23.182" xlink:href="#linear-gradient-14"/>
  </defs>
  <g id="Mask_Group_865" data-name="Mask Group 865" transform="translate(-902.687 -1762.881)" clip-path="url(#clip-path)">
    <path id="Path_2795" data-name="Path 2795" d="M603.859,313.716c-13.375,62.088-38.828,85.062-172.12,65.388-75.682-11.7-104.964,25.114-136.174,69.078-.534.759-1.067,1.518-1.61,2.276-32.683,46.1-65.041,92.335-145.948,76.967C62.235,513.712,9.3,443.291,1.109,368.107c-.1-.914-.19-1.838-.272-2.752-4.6-48.745,9.62-99.218,45.9-137.322,21.916-23.01,53.053-35.233,85.193-34.849a154.905,154.905,0,0,0,28.895-2.167c2.107-.375,4.15-.786,6.139-1.252,40.947-9.462,59.815-37.592,71.388-71.92.272-.814.543-1.627.8-2.45C265.73,33.527,302.73,11.549,383.815,1.556c79.22-9.763,130.2,27.792,164.418,74.371S617.233,251.628,603.859,313.716Z" transform="translate(1034.128 1708.148) rotate(24)" fill="url(#linear-gradient)"/>
    <g id="Group_1069" data-name="Group 1069" transform="translate(941.074 1888.904)">
      <g id="Group_1068" data-name="Group 1068" clip-path="url(#clip-path-2)">
        <g id="Group_988" data-name="Group 988" transform="translate(193.677 97.399)">
          <g id="Group_987" data-name="Group 987" clip-path="url(#clip-path-3)">
            <rect id="Rectangle_605" data-name="Rectangle 605" width="239.058" height="226.554" transform="translate(-67.021 45.295) rotate(-34.067)" fill="#cac6e0"/>
          </g>
        </g>
        <g id="Group_993" data-name="Group 993">
          <g id="Group_992" data-name="Group 992" clip-path="url(#clip-path-2)">
            <g id="Group_991" data-name="Group 991" transform="translate(201.8 112.446)" opacity="0.87">
              <g id="Group_990" data-name="Group 990">
                <g id="Group_989" data-name="Group 989" clip-path="url(#clip-path-5)">
                  <path id="Path_2797" data-name="Path 2797" d="M348.953,201.4l-1.033,90.917a7.619,7.619,0,0,0,6.866,7.668l149.752,14.872a7.619,7.619,0,0,0,8.342-6.908l8.627-97.214a7.619,7.619,0,0,0-7.175-8.281l-157.346-8.575a7.619,7.619,0,0,0-8.033,7.521" transform="translate(-347.92 -193.866)" fill="#fff"/>
                </g>
              </g>
            </g>
          </g>
        </g>
        <g id="Group_995" data-name="Group 995" transform="translate(272.192 199.409)">
          <g id="Group_994" data-name="Group 994" clip-path="url(#clip-path-6)">
            <rect id="Rectangle_608" data-name="Rectangle 608" width="78.188" height="57.134" transform="matrix(0.828, -0.56, 0.56, 0.828, -4.469, 2.974)" fill="url(#linear-gradient-2)"/>
          </g>
        </g>
        <g id="Group_997" data-name="Group 997" transform="translate(271.511 206.496)">
          <g id="Group_996" data-name="Group 996" clip-path="url(#clip-path-7)">
            <rect id="Rectangle_609" data-name="Rectangle 609" width="79.027" height="58.492" transform="translate(-5.283 3.526) rotate(-34.067)" fill="url(#linear-gradient-3)"/>
          </g>
        </g>
        <g id="Group_999" data-name="Group 999" transform="translate(296.522 216.35)">
          <g id="Group_998" data-name="Group 998" clip-path="url(#clip-path-8)">
            <rect id="Rectangle_610" data-name="Rectangle 610" width="56.364" height="41.996" transform="translate(-4.076 2.71) rotate(-34.067)" fill="url(#linear-gradient-4)"/>
          </g>
        </g>
        <g id="Group_1001" data-name="Group 1001" transform="translate(140.959 47.341)">
          <g id="Group_1000" data-name="Group 1000" clip-path="url(#clip-path-9)">
            <path id="Path_2801" data-name="Path 2801" d="M0,0H274.13V262.125H0Z" transform="translate(-76.414 59.184) rotate(-37.97)" fill="#a89fd6"/>
          </g>
        </g>
        <g id="Group_1006" data-name="Group 1006">
          <g id="Group_1005" data-name="Group 1005" clip-path="url(#clip-path-2)">
            <g id="Group_1004" data-name="Group 1004" transform="translate(152.541 62.106)" opacity="0.87">
              <g id="Group_1003" data-name="Group 1003">
                <g id="Group_1002" data-name="Group 1002" clip-path="url(#clip-path-11)">
                  <path id="Path_2803" data-name="Path 2803" d="M263.007,119.084l6.069,106.731a8.958,8.958,0,0,0,8.668,8.446L454.6,239.715a8.959,8.959,0,0,0,9.233-8.772l2.335-114.726a8.959,8.959,0,0,0-9.08-9.14l-185.259,2.542a8.958,8.958,0,0,0-8.821,9.466" transform="translate(-262.993 -107.075)" fill="#fff"/>
                </g>
              </g>
            </g>
          </g>
        </g>
        <g id="Group_1008" data-name="Group 1008" transform="translate(240.395 160.654)">
          <g id="Group_1007" data-name="Group 1007" clip-path="url(#clip-path-12)">
            <rect id="Rectangle_613" data-name="Rectangle 613" width="84.802" height="67.798" transform="translate(-2.562 1.984) rotate(-37.97)" fill="#291a7a"/>
          </g>
        </g>
        <g id="Group_1010" data-name="Group 1010" transform="translate(240.211 169.97)">
          <g id="Group_1009" data-name="Group 1009" clip-path="url(#clip-path-13)">
            <rect id="Rectangle_614" data-name="Rectangle 614" width="85.456" height="68.654" transform="matrix(0.788, -0.615, 0.615, 0.788, -3.106, 2.409)" fill="#291a7a"/>
          </g>
        </g>
        <g id="Group_1012" data-name="Group 1012" transform="translate(270.313 179.529)">
          <g id="Group_1011" data-name="Group 1011" clip-path="url(#clip-path-14)">
            <rect id="Rectangle_615" data-name="Rectangle 615" width="60.984" height="49.247" transform="matrix(0.788, -0.615, 0.615, 0.788, -2.622, 2.03)" fill="#291a7a"/>
          </g>
        </g>
        <g id="Group_1014" data-name="Group 1014" transform="translate(92.267 4.667)">
          <g id="Group_1013" data-name="Group 1013" transform="translate(0)" clip-path="url(#clip-path-15)">
            <path id="Path_2807" data-name="Path 2807" d="M0,0H250.292V172.988H0Z" transform="translate(-5.129 -4.667)" fill="url(#linear-gradient-5)"/>
          </g>
        </g>
        <g id="Group_1019" data-name="Group 1019">
          <g id="Group_1018" data-name="Group 1018" clip-path="url(#clip-path-2)">
            <g id="Group_1017" data-name="Group 1017" transform="translate(101.053 16.195)" opacity="0.87">
              <g id="Group_1016" data-name="Group 1016">
                <g id="Group_1015" data-name="Group 1015" clip-path="url(#clip-path-17)">
                  <path id="Path_2809" data-name="Path 2809" d="M174.253,45.623l9.139,118.221a9.936,9.936,0,0,0,9.8,9.17l196.244,2.056a9.937,9.937,0,0,0,10.041-9.936V37.857A9.937,9.937,0,0,0,389.2,27.927l-205.383,7a9.937,9.937,0,0,0-9.569,10.7" transform="translate(-174.224 -27.921)" fill="#fff"/>
                </g>
              </g>
            </g>
          </g>
        </g>
        <g id="Group_1021" data-name="Group 1021" transform="translate(203.899 29.505)">
          <g id="Group_1020" data-name="Group 1020" clip-path="url(#clip-path-18)">
            <rect id="Rectangle_618" data-name="Rectangle 618" width="114.69" height="7.349" transform="translate(0 0)" fill="#f4f4f4"/>
          </g>
        </g>
        <g id="Group_1023" data-name="Group 1023" transform="translate(203.899 42.093)">
          <g id="Group_1022" data-name="Group 1022" clip-path="url(#clip-path-19)">
            <rect id="Rectangle_619" data-name="Rectangle 619" width="114.69" height="4.783" transform="translate(0 0)" fill="#f4f4f4"/>
          </g>
        </g>
        <g id="Group_1025" data-name="Group 1025" transform="translate(237.488 50.781)">
          <g id="Group_1024" data-name="Group 1024" clip-path="url(#clip-path-20)">
            <rect id="Rectangle_621" data-name="Rectangle 621" width="81.101" height="5.591" transform="translate(0 0)" fill="#f4f4f4"/>
          </g>
        </g>
        <g id="Group_1027" data-name="Group 1027" transform="translate(131.347 54.673)">
          <g id="Group_1026" data-name="Group 1026" clip-path="url(#clip-path-21)">
            <rect id="Rectangle_622" data-name="Rectangle 622" width="177.289" height="60.102" transform="translate(-0.101 0)" fill="url(#linear-gradient-6)"/>
          </g>
        </g>
        <g id="Group_1029" data-name="Group 1029" transform="translate(176.199 65.857)">
          <g id="Group_1028" data-name="Group 1028" clip-path="url(#clip-path-22)">
            <rect id="Rectangle_623" data-name="Rectangle 623" width="1.16" height="78.303" transform="translate(0 0)" fill="url(#linear-gradient-7)"/>
          </g>
        </g>
        <g id="Group_1031" data-name="Group 1031" transform="translate(221.639 113.324)">
          <g id="Group_1030" data-name="Group 1030" clip-path="url(#clip-path-23)">
            <rect id="Rectangle_624" data-name="Rectangle 624" width="1.16" height="31.901" transform="translate(0 0)" fill="url(#linear-gradient-8)"/>
          </g>
        </g>
        <g id="Group_1033" data-name="Group 1033" transform="translate(254.496 91.262)">
          <g id="Group_1032" data-name="Group 1032" clip-path="url(#clip-path-24)">
            <rect id="Rectangle_625" data-name="Rectangle 625" width="2.853" height="55.077" transform="translate(-0.01 0)" fill="url(#linear-gradient-9)"/>
          </g>
        </g>
        <g id="Group_1035" data-name="Group 1035" transform="translate(289.102 115.476)">
          <g id="Group_1034" data-name="Group 1034" clip-path="url(#clip-path-25)">
            <rect id="Rectangle_626" data-name="Rectangle 626" width="1.16" height="26.101" transform="translate(0 0)" fill="url(#linear-gradient-10)"/>
          </g>
        </g>
        <g id="Group_1037" data-name="Group 1037" transform="translate(118.111 41.478)">
          <g id="Group_1036" data-name="Group 1036" clip-path="url(#clip-path-26)">
            <rect id="Rectangle_627" data-name="Rectangle 627" width="11.164" height="112.152" transform="translate(-0.037 0)" fill="#ff0076"/>
          </g>
        </g>
        <g id="Group_1039" data-name="Group 1039" transform="translate(116.123 40.366)">
          <g id="Group_1038" data-name="Group 1038" clip-path="url(#clip-path-27)">
            <rect id="Rectangle_628" data-name="Rectangle 628" width="6.09" height="5.684" transform="translate(0 0)" fill="#ff0076"/>
          </g>
        </g>
        <g id="Group_1041" data-name="Group 1041" transform="translate(120.437 146.736)">
          <g id="Group_1040" data-name="Group 1040" clip-path="url(#clip-path-28)">
            <rect id="Rectangle_629" data-name="Rectangle 629" width="193.303" height="1.74" transform="translate(0 0)" fill="#ff0076"/>
          </g>
        </g>
        <g id="Group_1043" data-name="Group 1043" transform="translate(309.404 144.656)">
          <g id="Group_1042" data-name="Group 1042" clip-path="url(#clip-path-29)">
            <rect id="Rectangle_630" data-name="Rectangle 630" width="5.455" height="5.9" fill="#ff0076"/>
          </g>
        </g>
        <g id="Group_1045" data-name="Group 1045" transform="translate(133.836 57.415)">
          <g id="Group_1044" data-name="Group 1044" clip-path="url(#clip-path-30)">
            <rect id="Rectangle_631" data-name="Rectangle 631" width="34.471" height="34.905" transform="matrix(0.694, -0.72, 0.72, 0.694, -8.423, 8.218)" fill="url(#linear-gradient-11)"/>
          </g>
        </g>
        <g id="Group_1047" data-name="Group 1047" transform="translate(164.043 56.273)">
          <g id="Group_1046" data-name="Group 1046" clip-path="url(#clip-path-31)">
            <rect id="Rectangle_632" data-name="Rectangle 632" width="10.285" height="10.542" transform="matrix(0.658, -0.753, 0.753, 0.658, -3.727, 3.425)" fill="url(#linear-gradient-12)"/>
          </g>
        </g>
        <g id="Group_1049" data-name="Group 1049" transform="translate(171.452 55.542)">
          <g id="Group_1048" data-name="Group 1048" clip-path="url(#clip-path-32)">
            <rect id="Rectangle_633" data-name="Rectangle 633" width="5.116" height="5.432" transform="translate(-1.392 1.8) rotate(-52.284)" fill="url(#linear-gradient-13)"/>
          </g>
        </g>
        <g id="Group_1051" data-name="Group 1051" transform="translate(38.616 203.186)">
          <g id="Group_1050" data-name="Group 1050" clip-path="url(#clip-path-33)">
            <rect id="Rectangle_634" data-name="Rectangle 634" width="27.706" height="28.558" transform="translate(0 0)" fill="url(#linear-gradient-14)"/>
          </g>
        </g>
        <g id="Group_1053" data-name="Group 1053" transform="translate(57.122 221.282)">
          <g id="Group_1052" data-name="Group 1052" clip-path="url(#clip-path-34)">
            <path id="Path_2825" data-name="Path 2825" d="M0,0H36.195V43.7H0Z" transform="matrix(0.542, -0.841, 0.841, 0.542, -7.444, 11.549)" fill="#2f11c7"/>
          </g>
        </g>
        <g id="Group_1055" data-name="Group 1055" transform="translate(27.811 103.832)">
          <g id="Group_1054" data-name="Group 1054" clip-path="url(#clip-path-35)">
            <rect id="Rectangle_635" data-name="Rectangle 635" width="173.214" height="179.462" transform="translate(-60.061 105.008) rotate(-65.501)" fill="#011638"/>
          </g>
        </g>
        <g id="Group_1057" data-name="Group 1057" transform="translate(141.861 77.98)">
          <g id="Group_1056" data-name="Group 1056" clip-path="url(#clip-path-36)">
            <rect id="Rectangle_636" data-name="Rectangle 636" width="38.107" height="34.42" transform="translate(-15.932 22.478) rotate(-54.672)" fill="url(#linear-gradient-15)"/>
          </g>
        </g>
        <g id="Group_1059" data-name="Group 1059" transform="translate(146.541 59.565)">
          <g id="Group_1058" data-name="Group 1058" clip-path="url(#clip-path-37)">
            <rect id="Rectangle_637" data-name="Rectangle 637" width="26.736" height="25.521" transform="matrix(0.578, -0.816, 0.816, 0.578, -12.195, 14.178)" fill="url(#linear-gradient-16)"/>
          </g>
        </g>
        <g id="Group_1061" data-name="Group 1061" transform="translate(67.703 116.847)">
          <g id="Group_1060" data-name="Group 1060" clip-path="url(#clip-path-38)">
            <rect id="Rectangle_638" data-name="Rectangle 638" width="26.411" height="23.189" transform="translate(-5.013 21.664) rotate(-76.971)" fill="url(#linear-gradient-17)"/>
          </g>
        </g>
        <g id="Group_1063" data-name="Group 1063" transform="translate(67.831 94.857)">
          <g id="Group_1062" data-name="Group 1062" clip-path="url(#clip-path-39)">
            <rect id="Rectangle_639" data-name="Rectangle 639" width="29.362" height="31.551" transform="matrix(0.986, -0.168, 0.168, 0.986, -4.582, 0.779)" fill="url(#linear-gradient-18)"/>
          </g>
        </g>
        <g id="Group_1065" data-name="Group 1065" transform="translate(60.828 86.219)">
          <g id="Group_1064" data-name="Group 1064" clip-path="url(#clip-path-40)">
            <rect id="Rectangle_640" data-name="Rectangle 640" width="55.635" height="55.405" transform="translate(-21.899 22.25) rotate(-46.73)" fill="url(#linear-gradient-19)"/>
          </g>
        </g>
        <g id="Group_1067" data-name="Group 1067" transform="translate(66.367 113.135)">
          <g id="Group_1066" data-name="Group 1066" clip-path="url(#clip-path-41)">
            <rect id="Rectangle_641" data-name="Rectangle 641" width="11.009" height="11.085" transform="translate(-2.245 0.02) rotate(-2.465)" fill="url(#linear-gradient-20)"/>
          </g>
        </g>
      </g>
    </g>
  </g>
</svg>
