<svg width="17" height="12" viewBox="0 0 17 12" fill="none" xmlns="http://www.w3.org/2000/svg">
<path d="M10.9297 2.63077C12.831 2.63077 14.3767 4.20246 14.3767 6.13282C14.3767 8.06318 12.8297 9.63488 10.9297 9.63488H6.0547C4.15337 9.63488 2.60772 8.06318 2.60772 6.13282C2.60772 4.20246 4.15469 2.63077 6.0547 2.63077H10.9297ZM10.9297 0.481445H6.0547C2.9819 0.481445 0.492188 3.01227 0.492188 6.13282C0.492188 9.25471 2.98322 11.7842 6.0547 11.7842H10.9297C14.0025 11.7842 16.4922 9.25337 16.4922 6.13282C16.4922 3.01093 14.0012 0.481445 10.9297 0.481445Z" fill="white"/>
<path d="M10.9484 8.4267C12.2316 8.4267 13.2718 7.38612 13.2718 6.10251C13.2718 4.81889 12.2316 3.77832 10.9484 3.77832C9.66523 3.77832 8.625 4.81889 8.625 6.10251C8.625 7.38612 9.66523 8.4267 10.9484 8.4267Z" fill="white"/>
</svg>
