<svg width="16" height="12" viewBox="0 0 16 12" fill="none" xmlns="http://www.w3.org/2000/svg">
<path d="M10.4385 2.63077C12.3398 2.63077 13.8854 4.20246 13.8854 6.13282C13.8854 8.06318 12.3385 9.63488 10.4385 9.63488H5.56349C3.66216 9.63488 2.1165 8.06318 2.1165 6.13282C2.1165 4.20246 3.66348 2.63077 5.56349 2.63077H10.4385ZM10.4385 0.481445H5.56349C2.49069 0.481445 0.000976562 3.01227 0.000976562 6.13282C0.000976562 9.25471 2.49201 11.7842 5.56349 11.7842H10.4385C13.5113 11.7842 16.001 9.25337 16.001 6.13282C16.001 3.01093 13.5099 0.481445 10.4385 0.481445Z" fill="white"/>
<path d="M10.465 8.4306C11.7482 8.4306 12.7884 7.39003 12.7884 6.10641C12.7884 4.8228 11.7482 3.78223 10.465 3.78223C9.18183 3.78223 8.1416 4.8228 8.1416 6.10641C8.1416 7.39003 9.18183 8.4306 10.465 8.4306Z" fill="white"/>
</svg>
